<svg xmlns="http://www.w3.org/2000/svg" xmlns:xlink="http://www.w3.org/1999/xlink" width="500" zoomAndPan="magnify" viewBox="0 0 375 374.999991" height="500" preserveAspectRatio="xMidYMid meet" version="1.0"><defs><clipPath id="ce19a03d6e"><path d="M 112.5 112.96875 L 262.5 112.96875 L 262.5 262.21875 L 112.5 262.21875 Z M 112.5 112.96875 " clip-rule="nonzero"/></clipPath></defs><path fill="#af1d1e" d="M 194.859375 147.300781 C 195.085938 147.335938 195.277344 147.382812 195.433594 147.449219 C 195.589844 147.511719 195.664062 147.574219 195.65625 147.628906 C 195.648438 147.6875 195.558594 147.722656 195.390625 147.742188 C 195.222656 147.757812 195.027344 147.75 194.796875 147.714844 C 194.570312 147.679688 194.375 147.632812 194.222656 147.566406 C 194.066406 147.503906 193.992188 147.441406 194 147.386719 C 194.007812 147.328125 194.097656 147.292969 194.265625 147.273438 C 194.429688 147.257812 194.628906 147.265625 194.859375 147.300781 Z M 194.859375 147.300781 " fill-opacity="1" fill-rule="nonzero"/><g clip-path="url(#ce19a03d6e)"><path fill="#af1d1e" d="M 261.390625 205.410156 L 230.554688 187.578125 L 261.390625 169.75 C 262.164062 169.300781 262.433594 168.3125 261.988281 167.503906 L 242.085938 133.011719 C 241.640625 132.234375 240.652344 131.964844 239.847656 132.414062 L 209.011719 150.242188 L 209.011719 114.613281 C 209.011719 113.714844 208.296875 112.96875 207.367188 112.96875 L 167.601562 112.96875 C 166.703125 112.96875 165.957031 113.6875 165.957031 114.613281 L 165.957031 150.273438 L 135.152344 132.414062 C 134.375 131.964844 133.390625 132.234375 132.914062 133.011719 L 113.011719 167.535156 C 112.566406 168.3125 112.835938 169.300781 113.609375 169.777344 L 144.445312 187.609375 L 113.609375 205.410156 C 112.835938 205.855469 112.566406 206.84375 113.011719 207.652344 L 132.914062 242.144531 C 133.359375 242.921875 134.347656 243.191406 135.152344 242.742188 L 165.988281 224.914062 L 165.988281 260.574219 C 165.988281 261.472656 166.703125 262.21875 167.632812 262.21875 L 207.429688 262.21875 C 208.324219 262.21875 209.070312 261.5 209.070312 260.574219 L 209.070312 224.914062 L 239.90625 242.742188 C 240.683594 243.191406 241.667969 242.921875 242.148438 242.144531 L 262.046875 207.652344 C 262.433594 206.84375 262.164062 205.855469 261.390625 205.410156 Z M 190.128906 233.917969 C 189.679688 234.515625 189.054688 234.15625 188.785156 234.066406 C 188.664062 233.976562 188.546875 233.917969 188.425781 233.859375 C 188.425781 233.828125 188.425781 233.769531 188.425781 233.738281 L 188.457031 231.914062 C 189.382812 232.570312 190.070312 232.960938 190.097656 232.992188 C 190.429688 233.261719 190.367188 233.621094 190.128906 233.917969 Z M 200.824219 149.347656 C 199.152344 152.785156 189.652344 153.921875 189.652344 153.921875 C 189.324219 154.011719 188.964844 154.101562 188.664062 154.191406 L 188.097656 191.40625 C 188.695312 191.140625 189.082031 190.960938 189.082031 190.960938 C 192.609375 189.195312 194.640625 187.96875 194.640625 184.347656 C 194.640625 181.714844 192.578125 180.578125 189.261719 179.023438 L 189.351562 172.5 C 194.640625 175.105469 199.601562 178.125 199.601562 184.378906 C 199.601562 191.140625 194.640625 194.070312 189.859375 196.464844 C 189.5625 196.613281 189.261719 196.761719 188.964844 196.914062 C 188.636719 197.09375 188.308594 197.273438 187.976562 197.449219 L 187.679688 218.121094 C 188.277344 217.855469 188.664062 217.644531 188.664062 217.644531 C 189.832031 216.957031 190.785156 216.148438 190.785156 215.160156 C 190.785156 214.324219 189.859375 213.425781 188.726562 212.589844 L 188.816406 207.503906 C 191.625 209.597656 194.011719 211.0625 194.011719 214.773438 C 194.011719 218.691406 191.144531 219.769531 188.636719 220.753906 C 188.308594 220.90625 187.976562 221.023438 187.648438 221.175781 L 187.441406 235.144531 C 187.441406 235.535156 187.113281 235.832031 186.722656 235.832031 C 186.335938 235.832031 186.007812 235.535156 186.007812 235.144531 L 185.945312 232.003906 C 185.585938 231.734375 185.257812 231.433594 184.929688 231.167969 C 182.660156 229.28125 180.328125 226.917969 180.328125 224.105469 C 180.328125 221.265625 182.628906 220.308594 184.75 219.46875 L 184.78125 222.222656 C 183.707031 222.730469 182.71875 223.539062 182.71875 224.824219 C 182.660156 226.230469 183.644531 227.664062 184.871094 228.980469 C 184.871094 228.980469 185.289062 229.371094 185.886719 229.910156 L 185.585938 210.554688 C 185.257812 210.316406 184.929688 210.046875 184.570312 209.746094 C 181.644531 207.53125 179.375 205.527344 179.375 200.59375 C 179.375 196.613281 181.464844 194.847656 184.332031 193.292969 L 184.421875 199.785156 C 184.09375 200.171875 183.914062 200.53125 183.914062 200.921875 C 183.914062 201.699219 184.09375 202.417969 184.453125 203.136719 C 184.453125 203.136719 184.839844 203.644531 185.46875 204.332031 L 185.050781 177.046875 C 184.691406 176.867188 184.363281 176.6875 184.0625 176.539062 C 179.132812 173.996094 174.023438 170.617188 174.023438 164.394531 C 174.023438 157.722656 177.460938 152.667969 183.675781 149.765625 L 183.765625 156.554688 C 181.523438 158.261719 179.96875 160.746094 179.96875 164.363281 C 179.96875 166.488281 181.464844 168.074219 183.972656 169.660156 C 183.972656 169.660156 184.363281 169.867188 184.960938 170.199219 L 184.570312 144.46875 C 183.914062 143.84375 183.554688 142.945312 183.675781 141.957031 C 183.824219 140.582031 184.929688 139.503906 186.304688 139.355469 C 188.097656 139.144531 189.621094 140.550781 189.621094 142.316406 C 189.621094 143.152344 189.261719 143.929688 188.695312 144.46875 L 188.636719 148.058594 C 189.234375 147.910156 189.621094 147.820312 189.621094 147.820312 C 190.277344 147.671875 190.964844 147.550781 191.652344 147.460938 C 191.890625 147.433594 192.25 147.402344 192.699219 147.402344 C 192.730469 147.402344 192.730469 147.402344 192.757812 147.402344 C 193.59375 147.34375 193.265625 146.773438 194.402344 146.863281 C 195.328125 146.953125 196.523438 147.582031 197.121094 147.609375 C 198.972656 147.851562 200.617188 148.300781 200.707031 149.046875 C 200.855469 149.167969 200.855469 149.257812 200.824219 149.347656 Z M 200.824219 149.347656 " fill-opacity="1" fill-rule="nonzero"/></g></svg>