<svg xmlns="http://www.w3.org/2000/svg" xmlns:xlink="http://www.w3.org/1999/xlink" width="500" zoomAndPan="magnify" viewBox="0 0 375 374.999991" height="500" preserveAspectRatio="xMidYMid meet" version="1.0"><defs><clipPath id="a85d265987"><path d="M 112.5 115 L 262.5 115 L 262.5 260 L 112.5 260 Z M 112.5 115 " clip-rule="nonzero"/></clipPath><clipPath id="9aac48e956"><path d="M 161.070312 146.441406 L 213.570312 146.441406 L 213.570312 228.191406 L 161.070312 228.191406 Z M 161.070312 146.441406 " clip-rule="nonzero"/></clipPath></defs><g clip-path="url(#a85d265987)"><path fill="#ffd100" d="M 187.5 252.167969 C 190.960938 252.167969 194.519531 253.402344 197.960938 254.59375 C 202.3125 256.101562 206.421875 257.523438 209.882812 256.402344 C 213.539062 255.214844 216.074219 251.550781 218.757812 247.671875 C 220.769531 244.765625 222.851562 241.757812 225.5 239.828125 C 228.195312 237.871094 231.726562 236.800781 235.144531 235.769531 C 239.628906 234.414062 243.863281 233.136719 246.085938 230.082031 C 248.277344 227.070312 248.195312 222.671875 248.105469 218.015625 C 248.035156 214.425781 247.964844 210.710938 249.007812 207.5 C 250 204.445312 252.1875 201.578125 254.304688 198.808594 C 257.0625 195.191406 259.914062 191.457031 259.914062 187.515625 C 259.914062 183.574219 257.0625 179.835938 254.304688 176.222656 C 252.1875 173.449219 250 170.582031 249.007812 167.527344 C 247.964844 164.316406 248.035156 160.605469 248.105469 157.015625 C 248.195312 152.359375 248.277344 147.960938 246.085938 144.949219 C 243.863281 141.894531 239.628906 140.613281 235.144531 139.257812 C 231.726562 138.226562 228.195312 137.160156 225.5 135.199219 C 222.851562 133.269531 220.769531 130.265625 218.757812 127.359375 C 216.074219 123.480469 213.539062 119.816406 209.882812 118.628906 C 206.425781 117.503906 202.3125 118.929688 197.960938 120.4375 C 194.519531 121.628906 190.960938 122.859375 187.5 122.859375 C 184.039062 122.859375 180.480469 121.628906 177.039062 120.4375 C 172.6875 118.929688 168.574219 117.503906 165.117188 118.628906 C 161.460938 119.816406 158.925781 123.480469 156.238281 127.359375 C 154.230469 130.265625 152.148438 133.269531 149.5 135.199219 C 146.804688 137.160156 143.273438 138.226562 139.855469 139.257812 C 135.371094 140.613281 131.136719 141.894531 128.910156 144.949219 C 126.71875 147.960938 126.804688 152.359375 126.894531 157.015625 C 126.964844 160.605469 127.035156 164.316406 125.992188 167.527344 C 125 170.582031 122.8125 173.449219 120.695312 176.222656 C 117.9375 179.835938 115.085938 183.574219 115.085938 187.515625 C 115.085938 191.457031 117.9375 195.195312 120.695312 198.808594 C 122.8125 201.578125 125 204.445312 125.992188 207.5 C 127.035156 210.710938 126.964844 214.425781 126.894531 218.015625 C 126.804688 222.671875 126.71875 227.070312 128.910156 230.082031 C 131.136719 233.136719 135.371094 234.414062 139.855469 235.769531 C 143.273438 236.800781 146.804688 237.871094 149.5 239.828125 C 152.148438 241.757812 154.230469 244.765625 156.238281 247.671875 C 158.925781 251.550781 161.460938 255.214844 165.117188 256.402344 C 168.574219 257.523438 172.6875 256.101562 177.039062 254.59375 C 180.480469 253.402344 184.039062 252.167969 187.5 252.167969 Z M 207.183594 259.386719 C 203.898438 259.386719 200.464844 258.199219 197.113281 257.039062 C 193.875 255.917969 190.527344 254.757812 187.5 254.757812 C 184.472656 254.757812 181.125 255.917969 177.886719 257.039062 C 173.320312 258.617188 168.601562 260.253906 164.320312 258.863281 C 159.832031 257.40625 156.925781 253.207031 154.113281 249.144531 C 152.136719 246.289062 150.273438 243.589844 147.976562 241.921875 C 145.636719 240.21875 142.464844 239.261719 139.109375 238.246094 C 134.410156 236.828125 129.554688 235.363281 126.820312 231.605469 C 124.117188 227.890625 124.214844 222.84375 124.308594 217.964844 C 124.375 214.589844 124.441406 211.097656 123.53125 208.300781 C 122.675781 205.664062 120.714844 203.097656 118.640625 200.375 C 115.621094 196.421875 112.5 192.332031 112.5 187.515625 C 112.5 182.699219 115.621094 178.609375 118.640625 174.652344 C 120.714844 171.933594 122.675781 169.363281 123.53125 166.730469 C 124.441406 163.933594 124.375 160.441406 124.308594 157.0625 C 124.214844 152.183594 124.117188 147.140625 126.820312 143.425781 C 129.554688 139.667969 134.410156 138.203125 139.109375 136.785156 C 142.464844 135.769531 145.636719 134.8125 147.976562 133.109375 C 150.273438 131.4375 152.136719 128.742188 154.113281 125.886719 C 156.925781 121.824219 159.832031 117.625 164.320312 116.167969 C 168.601562 114.777344 173.320312 116.410156 177.886719 117.992188 C 181.125 119.113281 184.472656 120.273438 187.5 120.273438 C 190.527344 120.273438 193.875 119.113281 197.113281 117.992188 C 201.679688 116.410156 206.398438 114.777344 210.679688 116.167969 C 215.167969 117.625 218.074219 121.824219 220.886719 125.886719 C 222.859375 128.742188 224.726562 131.4375 227.023438 133.109375 C 229.363281 134.8125 232.535156 135.769531 235.890625 136.785156 C 240.589844 138.203125 245.445312 139.667969 248.179688 143.425781 C 250.882812 147.140625 250.785156 152.183594 250.691406 157.0625 C 250.625 160.441406 250.558594 163.933594 251.46875 166.730469 C 252.324219 169.363281 254.285156 171.933594 256.359375 174.652344 C 259.378906 178.609375 262.5 182.699219 262.5 187.515625 C 262.5 192.332031 259.378906 196.421875 256.359375 200.375 C 254.285156 203.097656 252.324219 205.664062 251.46875 208.300781 C 250.558594 211.097656 250.625 214.589844 250.691406 217.964844 C 250.785156 222.84375 250.882812 227.890625 248.179688 231.605469 C 245.445312 235.363281 240.589844 236.828125 235.890625 238.246094 C 232.535156 239.261719 229.363281 240.21875 227.023438 241.921875 C 224.726562 243.589844 222.859375 246.289062 220.886719 249.144531 C 218.074219 253.207031 215.167969 257.40625 210.679688 258.863281 C 209.542969 259.234375 208.375 259.386719 207.183594 259.386719 " fill-opacity="1" fill-rule="nonzero"/></g><path fill="#ffd100" d="M 252.929688 187.515625 C 252.929688 194.15625 244.308594 199.351562 242.363281 205.34375 C 240.347656 211.550781 244.199219 220.808594 240.4375 225.976562 C 236.636719 231.199219 226.617188 230.378906 221.398438 234.179688 C 216.230469 237.941406 213.933594 247.742188 207.722656 249.757812 C 201.730469 251.707031 194.140625 245.1875 187.5 245.1875 C 180.859375 245.1875 173.265625 251.707031 167.277344 249.757812 C 161.066406 247.742188 158.769531 237.941406 153.601562 234.179688 C 148.382812 230.378906 138.363281 231.199219 134.5625 225.976562 C 130.800781 220.808594 134.652344 211.550781 132.636719 205.34375 C 130.691406 199.351562 122.070312 194.15625 122.070312 187.515625 C 122.070312 180.875 130.691406 175.679688 132.636719 169.6875 C 134.652344 163.476562 130.800781 154.21875 134.5625 149.050781 C 138.363281 143.832031 148.382812 144.648438 153.601562 140.851562 C 158.769531 137.089844 161.066406 127.285156 167.277344 125.269531 C 173.265625 123.324219 180.859375 129.84375 187.5 129.84375 C 194.140625 129.84375 201.730469 123.324219 207.722656 125.269531 C 213.933594 127.285156 216.230469 137.089844 221.398438 140.851562 C 226.617188 144.648438 236.636719 143.832031 240.4375 149.050781 C 244.199219 154.21875 240.347656 163.476562 242.363281 169.6875 C 244.308594 175.679688 252.929688 180.875 252.929688 187.515625 " fill-opacity="1" fill-rule="nonzero"/><g clip-path="url(#9aac48e956)"><path fill="#ffffff" d="M 212.011719 192.503906 C 210.75 190.175781 209.117188 188.289062 207.113281 186.851562 C 205.105469 185.410156 202.824219 184.316406 200.285156 183.566406 C 197.742188 182.8125 195.160156 182.207031 192.550781 181.75 L 192.550781 166.527344 C 198.054688 166.796875 203.992188 168.078125 210.367188 170.363281 L 210.367188 156.789062 C 207.757812 155.78125 204.898438 154.996094 201.769531 154.421875 C 198.644531 153.855469 195.574219 153.46875 192.550781 153.285156 L 192.550781 146.441406 L 182.683594 146.441406 L 182.683594 153.503906 C 179.335938 153.917969 176.320312 154.644531 173.652344 155.691406 C 170.980469 156.75 168.71875 158.125 166.855469 159.84375 C 164.992188 161.554688 163.558594 163.59375 162.570312 165.941406 C 161.578125 168.292969 161.082031 170.980469 161.082031 173.996094 C 161.082031 177.695312 161.722656 180.710938 163.007812 183.046875 C 164.289062 185.371094 165.960938 187.25 168.003906 188.667969 C 170.050781 190.082031 172.363281 191.144531 174.929688 191.855469 C 177.496094 192.566406 180.078125 193.128906 182.683594 193.535156 L 182.683594 208.542969 C 180.574219 208.503906 178.632812 208.375 176.847656 208.167969 C 175.066406 207.960938 173.371094 207.6875 171.753906 207.34375 C 170.140625 207 168.566406 206.59375 167.039062 206.113281 C 165.503906 205.632812 163.9375 205.074219 162.320312 204.433594 L 162.320312 217.867188 C 164.679688 219.046875 167.644531 219.976562 171.226562 220.640625 C 174.808594 221.304688 178.625 221.703125 182.675781 221.839844 L 182.675781 228.554688 L 192.542969 228.554688 L 192.542969 221.496094 C 199.371094 220.671875 204.632812 218.59375 208.34375 215.257812 C 212.042969 211.925781 213.898438 207.328125 213.898438 201.484375 C 213.90625 197.820312 213.277344 194.832031 212.011719 192.503906 Z M 182.683594 180.023438 C 179.992188 179.480469 177.984375 178.695312 176.664062 177.695312 C 175.335938 176.695312 174.675781 175.234375 174.675781 173.308594 C 174.675781 171.613281 175.25 170.210938 176.410156 169.09375 C 177.570312 167.972656 179.65625 167.230469 182.675781 166.863281 L 182.675781 180.023438 Z M 192.550781 208.0625 L 192.550781 195.175781 C 195.160156 195.679688 197.09375 196.421875 198.355469 197.40625 C 199.621094 198.386719 200.25 199.835938 200.25 201.753906 C 200.25 205.226562 197.683594 207.328125 192.550781 208.0625 Z M 192.550781 208.0625 " fill-opacity="1" fill-rule="nonzero"/></g></svg>