<svg xmlns="http://www.w3.org/2000/svg" xmlns:xlink="http://www.w3.org/1999/xlink" width="500" zoomAndPan="magnify" viewBox="0 0 375 374.999991" height="500" preserveAspectRatio="xMidYMid meet" version="1.0"><path fill="#0096ff" d="M 191.792969 114.855469 L 201.3125 124.320312 C 202.84375 125.839844 205.066406 126.4375 207.152344 125.882812 L 220.132812 122.445312 C 223.363281 121.585938 226.675781 123.503906 227.550781 126.726562 L 231.058594 139.683594 C 231.625 141.765625 233.25 143.390625 235.332031 143.957031 L 248.289062 147.464844 C 251.515625 148.339844 253.429688 151.65625 252.570312 154.886719 L 249.132812 167.863281 C 248.582031 169.949219 249.175781 172.171875 250.695312 173.703125 L 260.160156 183.222656 C 262.515625 185.589844 262.515625 189.417969 260.160156 191.789062 L 250.695312 201.308594 C 249.175781 202.835938 248.582031 205.0625 249.132812 207.148438 L 252.570312 220.125 C 253.429688 223.355469 251.511719 226.671875 248.289062 227.546875 L 235.332031 231.054688 C 233.25 231.621094 231.625 233.246094 231.058594 235.328125 L 227.550781 248.285156 C 226.675781 251.511719 223.363281 253.425781 220.132812 252.566406 L 207.152344 249.128906 C 205.066406 248.578125 202.847656 249.171875 201.3125 250.691406 L 191.792969 260.15625 C 189.425781 262.511719 185.601562 262.511719 183.226562 260.15625 L 173.707031 250.691406 C 172.179688 249.171875 169.953125 248.578125 167.867188 249.128906 L 154.890625 252.566406 C 151.660156 253.425781 148.34375 251.507812 147.46875 248.285156 L 143.960938 235.328125 C 143.394531 233.246094 141.769531 231.621094 139.6875 231.054688 L 126.730469 227.546875 C 123.503906 226.671875 121.59375 223.355469 122.449219 220.125 L 125.886719 207.148438 C 126.441406 205.0625 125.84375 202.84375 124.324219 201.308594 L 114.859375 191.789062 C 112.503906 189.421875 112.503906 185.59375 114.859375 183.222656 L 124.324219 173.703125 C 125.84375 172.175781 126.441406 169.949219 125.886719 167.863281 L 122.449219 154.886719 C 121.59375 151.65625 123.507812 148.339844 126.730469 147.464844 L 139.6875 143.957031 C 141.769531 143.390625 143.394531 141.765625 143.960938 139.683594 L 147.46875 126.726562 C 148.34375 123.5 151.660156 121.585938 154.890625 122.445312 L 167.867188 125.882812 C 169.953125 126.4375 172.175781 125.839844 173.707031 124.320312 L 183.226562 114.855469 C 185.59375 112.5 189.421875 112.5 191.792969 114.855469 Z M 191.792969 114.855469 " fill-opacity="1" fill-rule="nonzero"/><path fill="#ffffff" d="M 173.320312 216.480469 C 171.855469 216.480469 170.386719 215.925781 169.273438 214.804688 L 151.160156 196.695312 C 148.925781 194.460938 148.925781 190.835938 151.160156 188.597656 C 153.394531 186.359375 157.019531 186.363281 159.253906 188.597656 L 173.320312 202.664062 L 215.769531 160.214844 C 218.003906 157.980469 221.625 157.980469 223.863281 160.214844 C 226.097656 162.449219 226.097656 166.074219 223.863281 168.3125 L 177.367188 214.804688 C 176.25 215.925781 174.789062 216.480469 173.324219 216.480469 Z M 173.320312 216.480469 " fill-opacity="1" fill-rule="nonzero"/></svg>