<svg xmlns="http://www.w3.org/2000/svg" xmlns:xlink="http://www.w3.org/1999/xlink" width="288" zoomAndPan="magnify" viewBox="0 0 216 60" height="80" preserveAspectRatio="xMidYMid meet" version="1.0"><defs><g/><clipPath id="5636667602"><path d="M 41 0 L 97.199219 0 L 97.199219 60 L 41 60 Z M 41 0 " clip-rule="nonzero"/></clipPath><clipPath id="1e1092cdc7"><path d="M 0.28125 42 L 18 42 L 18 59.761719 L 0.28125 59.761719 Z M 0.28125 42 " clip-rule="nonzero"/></clipPath><clipPath id="bbc055328d"><path d="M 5 0.480469 L 17 0.480469 L 17 12 L 5 12 Z M 5 0.480469 " clip-rule="nonzero"/></clipPath><clipPath id="915ca3bc27"><path d="M 8 3 L 56.199219 3 L 56.199219 52 L 8 52 Z M 8 3 " clip-rule="nonzero"/></clipPath><clipPath id="264940620e"><rect x="0" width="57" y="0" height="60"/></clipPath><clipPath id="006881e279"><rect x="0" width="75" y="0" height="24"/></clipPath><clipPath id="38fc3b2374"><rect x="0" width="75" y="0" height="24"/></clipPath><clipPath id="7f4924bac3"><path d="M 46 0.238281 L 60 0.238281 L 60 18 L 46 18 Z M 46 0.238281 " clip-rule="nonzero"/></clipPath><clipPath id="14ecfb91e9"><rect x="0" width="61" y="0" height="24"/></clipPath><clipPath id="4f9aa1e44f"><rect x="0" width="58" y="0" height="23"/></clipPath></defs><g clip-path="url(#5636667602)"><g transform="matrix(1, 0, 0, 1, 41, -0.000000000000001499)"><g clip-path="url(#264940620e)"><g clip-path="url(#1e1092cdc7)"><path fill="#1800ad" d="M 1.609375 52.308594 L 11.742188 42.179688 C 12.5625 43.324219 13.484375 44.414062 14.503906 45.433594 C 15.523438 46.453125 16.613281 47.371094 17.761719 48.191406 L 7.625 58.328125 C 5.964844 59.988281 3.269531 59.988281 1.609375 58.328125 C -0.0507812 56.664062 -0.0507812 53.972656 1.609375 52.308594 " fill-opacity="1" fill-rule="nonzero"/></g><g clip-path="url(#bbc055328d)"><path fill="#bc05bf" d="M 7.203125 9.488281 C 9.253906 11.539062 12.578125 11.539062 14.628906 9.488281 C 16.675781 7.441406 16.675781 4.117188 14.628906 2.066406 C 12.578125 0.015625 9.253906 0.015625 7.203125 2.066406 C 5.15625 4.117188 5.15625 7.441406 7.203125 9.488281 " fill-opacity="1" fill-rule="nonzero"/></g><path fill="#bc05bf" d="M 15.757812 10.617188 C 19.5 6.875 24.273438 4.539062 29.4375 3.867188 L 29.4375 10.144531 C 22.28125 11.425781 16.617188 17.0625 15.300781 24.207031 L 9.019531 24.207031 C 9.703125 19.078125 12.035156 14.339844 15.757812 10.617188 " fill-opacity="1" fill-rule="nonzero"/><g clip-path="url(#915ca3bc27)"><path fill="#1800ad" d="M 15.265625 30.40625 C 16.695312 38.644531 23.894531 44.929688 32.539062 44.929688 C 42.203125 44.929688 50.070312 37.066406 50.070312 27.398438 C 50.070312 18.789062 43.832031 11.609375 35.636719 10.144531 L 35.636719 3.867188 C 40.800781 4.539062 45.574219 6.875 49.320312 10.617188 C 53.800781 15.101562 56.269531 21.058594 56.269531 27.398438 C 56.269531 33.738281 53.800781 39.699219 49.320312 44.179688 C 44.835938 48.664062 38.875 51.132812 32.539062 51.132812 C 26.199219 51.132812 20.238281 48.664062 15.757812 44.179688 C 11.992188 40.414062 9.648438 35.605469 8.992188 30.40625 L 15.265625 30.40625 " fill-opacity="1" fill-rule="nonzero"/></g><path fill="#5e17eb" d="M 20.21875 27.5 C 20.21875 34.355469 25.777344 39.910156 32.632812 39.910156 C 39.488281 39.910156 45.042969 34.355469 45.042969 27.5 C 45.042969 20.644531 39.488281 15.089844 32.632812 15.089844 C 25.777344 15.089844 20.21875 20.644531 20.21875 27.5 " fill-opacity="1" fill-rule="nonzero"/></g></g></g><g transform="matrix(1, 0, 0, 1, 105, 6)"><g clip-path="url(#006881e279)"><g fill="#68ddf1" fill-opacity="1"><g transform="translate(0.162513, 17.444777)"><g><path d="M 1.125 -7.984375 C 1.125 -9.535156 1.457031 -10.925781 2.125 -12.15625 C 2.789062 -13.382812 3.734375 -14.359375 4.953125 -15.078125 C 6.171875 -15.804688 7.625 -16.171875 9.3125 -16.171875 C 10.800781 -16.171875 12.101562 -15.910156 13.21875 -15.390625 C 14.34375 -14.878906 15.242188 -14.144531 15.921875 -13.1875 C 16.609375 -12.226562 17.03125 -11.097656 17.1875 -9.796875 L 13.5625 -9.796875 C 13.382812 -10.847656 12.910156 -11.644531 12.140625 -12.1875 C 11.367188 -12.726562 10.441406 -13 9.359375 -13 C 7.972656 -13 6.859375 -12.570312 6.015625 -11.71875 C 5.171875 -10.875 4.75 -9.628906 4.75 -7.984375 C 4.75 -6.335938 5.171875 -5.082031 6.015625 -4.21875 C 6.859375 -3.363281 7.972656 -2.9375 9.359375 -2.9375 C 10.441406 -2.9375 11.367188 -3.210938 12.140625 -3.765625 C 12.910156 -4.316406 13.382812 -5.117188 13.5625 -6.171875 L 17.1875 -6.171875 C 17.03125 -4.859375 16.609375 -3.722656 15.921875 -2.765625 C 15.242188 -1.804688 14.34375 -1.066406 13.21875 -0.546875 C 12.101562 -0.0351562 10.800781 0.21875 9.3125 0.21875 C 7.625 0.21875 6.171875 -0.140625 4.953125 -0.859375 C 3.734375 -1.578125 2.789062 -2.554688 2.125 -3.796875 C 1.457031 -5.035156 1.125 -6.429688 1.125 -7.984375 Z M 1.125 -7.984375 "/></g></g></g><g fill="#68ddf1" fill-opacity="1"><g transform="translate(16.75684, 17.444777)"><g><path d="M 12.734375 0 L 3.296875 0.21875 C 2.679688 0.238281 2.203125 0.0820312 1.859375 -0.25 C 1.523438 -0.582031 1.359375 -1.054688 1.359375 -1.671875 L 1.359375 -15.9375 L 4.96875 -15.9375 L 4.96875 -2.9375 L 12.734375 -3.171875 Z M 12.734375 0 "/></g></g></g><g fill="#68ddf1" fill-opacity="1"><g transform="translate(28.219051, 17.444777)"><g><path d="M 12.734375 0 L 1.359375 0 L 1.359375 -15.9375 L 12.734375 -15.9375 L 12.734375 -12.78125 L 4.96875 -12.78125 L 4.96875 -9.5625 L 11.59375 -9.5625 L 11.59375 -6.40625 L 4.96875 -6.40625 L 4.96875 -3.171875 L 12.734375 -3.171875 Z M 12.734375 0 "/></g></g></g><g fill="#68ddf1" fill-opacity="1"><g transform="translate(40.133433, 17.444777)"><g><path d="M 17.109375 0 L 13.453125 0 L 12.140625 -3.984375 L 5.421875 -3.984375 L 4.109375 0 L 0.453125 0 L 5.828125 -15.9375 L 11.71875 -15.9375 Z M 8.3125 -12.78125 L 6.46875 -7.140625 L 11.078125 -7.140625 L 9.21875 -12.78125 Z M 8.3125 -12.78125 "/></g></g></g><g fill="#68ddf1" fill-opacity="1"><g transform="translate(55.981684, 17.444777)"><g><path d="M 13.515625 -3.171875 L 13.515625 -15.9375 L 17.140625 -15.9375 L 17.140625 0 L 10.015625 0 L 5.984375 -12.78125 L 4.96875 -12.78125 L 4.96875 0 L 1.359375 0 L 1.359375 -15.9375 L 8.484375 -15.9375 L 12.5 -3.171875 Z M 13.515625 -3.171875 "/></g></g></g></g></g><g transform="matrix(1, 0, 0, 1, 103, 6)"><g clip-path="url(#38fc3b2374)"><g fill="#1800ad" fill-opacity="1"><g transform="translate(0.862376, 17.444777)"><g><path d="M 1.125 -7.984375 C 1.125 -9.535156 1.457031 -10.925781 2.125 -12.15625 C 2.789062 -13.382812 3.734375 -14.359375 4.953125 -15.078125 C 6.171875 -15.804688 7.625 -16.171875 9.3125 -16.171875 C 10.800781 -16.171875 12.101562 -15.910156 13.21875 -15.390625 C 14.34375 -14.878906 15.242188 -14.144531 15.921875 -13.1875 C 16.609375 -12.226562 17.03125 -11.097656 17.1875 -9.796875 L 13.5625 -9.796875 C 13.382812 -10.847656 12.910156 -11.644531 12.140625 -12.1875 C 11.367188 -12.726562 10.441406 -13 9.359375 -13 C 7.972656 -13 6.859375 -12.570312 6.015625 -11.71875 C 5.171875 -10.875 4.75 -9.628906 4.75 -7.984375 C 4.75 -6.335938 5.171875 -5.082031 6.015625 -4.21875 C 6.859375 -3.363281 7.972656 -2.9375 9.359375 -2.9375 C 10.441406 -2.9375 11.367188 -3.210938 12.140625 -3.765625 C 12.910156 -4.316406 13.382812 -5.117188 13.5625 -6.171875 L 17.1875 -6.171875 C 17.03125 -4.859375 16.609375 -3.722656 15.921875 -2.765625 C 15.242188 -1.804688 14.34375 -1.066406 13.21875 -0.546875 C 12.101562 -0.0351562 10.800781 0.21875 9.3125 0.21875 C 7.625 0.21875 6.171875 -0.140625 4.953125 -0.859375 C 3.734375 -1.578125 2.789062 -2.554688 2.125 -3.796875 C 1.457031 -5.035156 1.125 -6.429688 1.125 -7.984375 Z M 1.125 -7.984375 "/></g></g></g><g fill="#1800ad" fill-opacity="1"><g transform="translate(17.456704, 17.444777)"><g><path d="M 12.734375 0 L 3.296875 0.21875 C 2.679688 0.238281 2.203125 0.0820312 1.859375 -0.25 C 1.523438 -0.582031 1.359375 -1.054688 1.359375 -1.671875 L 1.359375 -15.9375 L 4.96875 -15.9375 L 4.96875 -2.9375 L 12.734375 -3.171875 Z M 12.734375 0 "/></g></g></g><g fill="#1800ad" fill-opacity="1"><g transform="translate(28.918914, 17.444777)"><g><path d="M 12.734375 0 L 1.359375 0 L 1.359375 -15.9375 L 12.734375 -15.9375 L 12.734375 -12.78125 L 4.96875 -12.78125 L 4.96875 -9.5625 L 11.59375 -9.5625 L 11.59375 -6.40625 L 4.96875 -6.40625 L 4.96875 -3.171875 L 12.734375 -3.171875 Z M 12.734375 0 "/></g></g></g><g fill="#1800ad" fill-opacity="1"><g transform="translate(40.833296, 17.444777)"><g><path d="M 17.109375 0 L 13.453125 0 L 12.140625 -3.984375 L 5.421875 -3.984375 L 4.109375 0 L 0.453125 0 L 5.828125 -15.9375 L 11.71875 -15.9375 Z M 8.3125 -12.78125 L 6.46875 -7.140625 L 11.078125 -7.140625 L 9.21875 -12.78125 Z M 8.3125 -12.78125 "/></g></g></g><g fill="#1800ad" fill-opacity="1"><g transform="translate(56.681548, 17.444777)"><g><path d="M 13.515625 -3.171875 L 13.515625 -15.9375 L 17.140625 -15.9375 L 17.140625 0 L 10.015625 0 L 5.984375 -12.78125 L 4.96875 -12.78125 L 4.96875 0 L 1.359375 0 L 1.359375 -15.9375 L 8.484375 -15.9375 L 12.5 -3.171875 Z M 13.515625 -3.171875 "/></g></g></g></g></g><g transform="matrix(1, 0, 0, 1, 115, 30)"><g clip-path="url(#14ecfb91e9)"><g fill="#1800ad" fill-opacity="1"><g transform="translate(1.148635, 17.408985)"><g><path d="M 2.390625 0 L 0.21875 -11.421875 L 3.6875 -11.421875 L 5.15625 -3.171875 L 6.0625 -3.171875 L 7.5 -11.421875 L 13.921875 -11.421875 L 15.375 -3.171875 L 16.28125 -3.171875 L 17.765625 -11.421875 L 21.203125 -11.421875 L 19.03125 0 L 12.609375 0 L 11.171875 -8.25 L 10.265625 -8.25 L 8.8125 0 Z M 2.390625 0 "/></g></g></g><g fill="#1800ad" fill-opacity="1"><g transform="translate(21.383, 17.408985)"><g><path d="M 0.90625 -5.71875 C 0.90625 -7.039062 1.191406 -8.140625 1.765625 -9.015625 C 2.335938 -9.890625 3.113281 -10.546875 4.09375 -10.984375 C 5.070312 -11.421875 6.15625 -11.640625 7.34375 -11.640625 C 8.539062 -11.640625 9.625 -11.421875 10.59375 -10.984375 C 11.5625 -10.546875 12.332031 -9.890625 12.90625 -9.015625 C 13.476562 -8.140625 13.765625 -7.039062 13.765625 -5.71875 C 13.765625 -4.394531 13.476562 -3.289062 12.90625 -2.40625 C 12.332031 -1.519531 11.5625 -0.859375 10.59375 -0.421875 C 9.625 0.00390625 8.539062 0.21875 7.34375 0.21875 C 6.15625 0.21875 5.070312 0.00390625 4.09375 -0.421875 C 3.113281 -0.859375 2.335938 -1.519531 1.765625 -2.40625 C 1.191406 -3.289062 0.90625 -4.394531 0.90625 -5.71875 Z M 4.515625 -5.71875 C 4.515625 -4.75 4.769531 -4.039062 5.28125 -3.59375 C 5.800781 -3.15625 6.488281 -2.9375 7.34375 -2.9375 C 8.1875 -2.9375 8.863281 -3.15625 9.375 -3.59375 C 9.894531 -4.039062 10.15625 -4.75 10.15625 -5.71875 C 10.15625 -6.664062 9.894531 -7.363281 9.375 -7.8125 C 8.863281 -8.257812 8.1875 -8.484375 7.34375 -8.484375 C 6.488281 -8.484375 5.800781 -8.257812 5.28125 -7.8125 C 4.769531 -7.363281 4.515625 -6.664062 4.515625 -5.71875 Z M 4.515625 -5.71875 "/></g></g></g><g fill="#1800ad" fill-opacity="1"><g transform="translate(34.857446, 17.408985)"><g><path d="M 4.96875 0 L 1.359375 0 L 1.359375 -9.703125 C 1.359375 -10.316406 1.523438 -10.789062 1.859375 -11.125 C 2.203125 -11.457031 2.679688 -11.613281 3.296875 -11.59375 L 10.78125 -11.421875 L 10.78125 -8.25 L 4.96875 -8.390625 Z M 4.96875 0 "/></g></g></g><g clip-path="url(#7f4924bac3)"><g fill="#1800ad" fill-opacity="1"><g transform="translate(44.669322, 17.408985)"><g><path d="M 14.453125 0 L 10.328125 0 L 7.484375 -4.40625 L 4.96875 -3.234375 L 4.96875 0 L 1.359375 0 L 1.359375 -16.625 L 4.96875 -16.625 L 4.96875 -6.96875 L 10.203125 -9.359375 L 10.15625 -11.421875 L 13.765625 -11.421875 L 13.765625 -8.9375 C 13.765625 -7.875 13.289062 -7.117188 12.34375 -6.671875 L 10.578125 -5.859375 Z M 14.453125 0 "/></g></g></g></g></g></g><g transform="matrix(1, 0, 0, 1, 114, 29)"><g clip-path="url(#4f9aa1e44f)"><g fill="#bc05bf" fill-opacity="1"><g transform="translate(1.043169, 17.142711)"><g><path d="M 2.296875 0 L 0.21875 -10.953125 L 3.53125 -10.953125 L 4.953125 -3.03125 L 5.8125 -3.03125 L 7.203125 -10.953125 L 13.375 -10.953125 L 14.765625 -3.03125 L 15.625 -3.03125 L 17.0625 -10.953125 L 20.359375 -10.953125 L 18.28125 0 L 12.109375 0 L 10.71875 -7.921875 L 9.859375 -7.921875 L 8.46875 0 Z M 2.296875 0 "/></g></g></g><g fill="#bc05bf" fill-opacity="1"><g transform="translate(20.46134, 17.142711)"><g><path d="M 0.875 -5.484375 C 0.875 -6.765625 1.144531 -7.820312 1.6875 -8.65625 C 2.238281 -9.5 2.984375 -10.128906 3.921875 -10.546875 C 4.867188 -10.960938 5.910156 -11.171875 7.046875 -11.171875 C 8.191406 -11.171875 9.226562 -10.960938 10.15625 -10.546875 C 11.09375 -10.128906 11.835938 -9.5 12.390625 -8.65625 C 12.941406 -7.820312 13.21875 -6.765625 13.21875 -5.484375 C 13.21875 -4.210938 12.941406 -3.15625 12.390625 -2.3125 C 11.835938 -1.46875 11.09375 -0.832031 10.15625 -0.40625 C 9.226562 0.0078125 8.191406 0.21875 7.046875 0.21875 C 5.910156 0.21875 4.867188 0.0078125 3.921875 -0.40625 C 2.984375 -0.832031 2.238281 -1.46875 1.6875 -2.3125 C 1.144531 -3.15625 0.875 -4.210938 0.875 -5.484375 Z M 4.34375 -5.484375 C 4.34375 -4.566406 4.585938 -3.894531 5.078125 -3.46875 C 5.566406 -3.039062 6.222656 -2.828125 7.046875 -2.828125 C 7.859375 -2.828125 8.507812 -3.039062 9 -3.46875 C 9.5 -3.894531 9.75 -4.566406 9.75 -5.484375 C 9.75 -6.398438 9.5 -7.070312 9 -7.5 C 8.507812 -7.925781 7.859375 -8.140625 7.046875 -8.140625 C 6.222656 -8.140625 5.566406 -7.925781 5.078125 -7.5 C 4.585938 -7.070312 4.34375 -6.398438 4.34375 -5.484375 Z M 4.34375 -5.484375 "/></g></g></g><g fill="#bc05bf" fill-opacity="1"><g transform="translate(33.392134, 17.142711)"><g><path d="M 4.78125 0 L 1.296875 0 L 1.296875 -9.3125 C 1.296875 -9.90625 1.457031 -10.359375 1.78125 -10.671875 C 2.113281 -10.992188 2.578125 -11.148438 3.171875 -11.140625 L 10.359375 -10.953125 L 10.359375 -7.921875 L 4.78125 -8.046875 Z M 4.78125 0 "/></g></g></g><g fill="#bc05bf" fill-opacity="1"><g transform="translate(42.808034, 17.142711)"><g><path d="M 13.875 0 L 9.921875 0 L 7.1875 -4.234375 L 4.78125 -3.109375 L 4.78125 0 L 1.296875 0 L 1.296875 -15.953125 L 4.78125 -15.953125 L 4.78125 -6.6875 L 9.78125 -8.984375 L 9.75 -10.953125 L 13.21875 -10.953125 L 13.21875 -8.578125 C 13.21875 -7.554688 12.757812 -6.832031 11.84375 -6.40625 L 10.15625 -5.625 Z M 13.875 0 "/></g></g></g></g></g></svg>