<svg xmlns="http://www.w3.org/2000/svg" xmlns:xlink="http://www.w3.org/1999/xlink" width="288" zoomAndPan="magnify" viewBox="0 0 216 60" height="80" preserveAspectRatio="xMidYMid meet" version="1.0"><defs><g/><clipPath id="e60022c83e"><path d="M 0.398438 47 L 1 47 L 1 48 L 0.398438 48 Z M 0.398438 47 " clip-rule="nonzero"/></clipPath><clipPath id="927cf56941"><rect x="0" width="104" y="0" height="55"/></clipPath><clipPath id="4ec013ef85"><path d="M 0.398438 47 L 1 47 L 1 48 L 0.398438 48 Z M 0.398438 47 " clip-rule="nonzero"/></clipPath><clipPath id="f292d5f1be"><rect x="0" width="104" y="0" height="55"/></clipPath><clipPath id="f29ce7b9b6"><rect x="0" width="104" y="0" height="55"/></clipPath><clipPath id="c77b460aaa"><path d="M 48.578125 3.34375 L 86.078125 3.34375 L 86.078125 54.34375 L 48.578125 54.34375 Z M 48.578125 3.34375 " clip-rule="nonzero"/></clipPath><clipPath id="08f1978b25"><path d="M 85.421875 3.351562 L 58.546875 3.351562 C 58.546875 3.351562 58.546875 3.351562 58.535156 3.351562 C 58.398438 3.351562 58.273438 3.394531 58.160156 3.476562 C 58.160156 3.476562 58.148438 3.476562 58.148438 3.488281 C 58.136719 3.5 58.113281 3.511719 58.101562 3.523438 C 58.082031 3.535156 58.070312 3.558594 58.046875 3.578125 L 48.746094 14.007812 C 48.726562 14.03125 48.703125 14.066406 48.691406 14.085938 C 48.679688 14.109375 48.667969 14.132812 48.65625 14.144531 C 48.65625 14.15625 48.644531 14.15625 48.644531 14.167969 C 48.632812 14.191406 48.625 14.214844 48.613281 14.25 C 48.589844 14.316406 48.578125 14.386719 48.578125 14.445312 L 48.578125 53.671875 C 48.578125 54.039062 48.871094 54.339844 49.234375 54.339844 L 85.410156 54.339844 C 85.773438 54.339844 86.066406 54.039062 86.066406 53.683594 L 86.066406 4.015625 C 86.078125 3.648438 85.78125 3.351562 85.421875 3.351562 Z M 57.898438 5.730469 L 57.898438 13.777344 L 50.722656 13.777344 L 55.597656 8.304688 Z M 84.773438 53.015625 L 49.90625 53.015625 L 49.90625 15.097656 L 58.546875 15.097656 C 58.90625 15.097656 59.203125 14.800781 59.191406 14.445312 L 59.191406 4.671875 L 84.773438 4.671875 Z M 53.53125 30.035156 L 81.144531 30.035156 C 81.507812 30.035156 81.804688 30.332031 81.804688 30.699219 C 81.804688 31.070312 81.507812 31.367188 81.144531 31.367188 L 53.53125 31.367188 C 53.171875 31.367188 52.875 31.070312 52.875 30.699219 C 52.875 30.332031 53.171875 30.035156 53.53125 30.035156 Z M 81.804688 35.183594 C 81.804688 35.550781 81.507812 35.851562 81.144531 35.851562 L 53.53125 35.851562 C 53.171875 35.851562 52.875 35.550781 52.875 35.183594 C 52.875 34.816406 53.171875 34.519531 53.53125 34.519531 L 81.144531 34.519531 C 81.507812 34.519531 81.804688 34.816406 81.804688 35.183594 Z M 81.804688 39.667969 C 81.804688 40.035156 81.507812 40.335938 81.144531 40.335938 L 53.53125 40.335938 C 53.171875 40.335938 52.875 40.035156 52.875 39.667969 C 52.875 39.300781 53.171875 39 53.53125 39 L 81.144531 39 C 81.507812 39 81.804688 39.300781 81.804688 39.667969 Z M 81.804688 44.140625 C 81.804688 44.507812 81.507812 44.808594 81.144531 44.808594 L 53.53125 44.808594 C 53.171875 44.808594 52.875 44.507812 52.875 44.140625 C 52.875 43.773438 53.171875 43.472656 53.53125 43.472656 L 81.144531 43.472656 C 81.507812 43.472656 81.804688 43.773438 81.804688 44.140625 Z M 81.804688 48.625 C 81.804688 48.992188 81.507812 49.289062 81.144531 49.289062 L 53.53125 49.289062 C 53.171875 49.289062 52.875 48.992188 52.875 48.625 C 52.875 48.257812 53.171875 47.957031 53.53125 47.957031 L 81.144531 47.957031 C 81.507812 47.957031 81.804688 48.257812 81.804688 48.625 Z M 60.042969 27.585938 L 74.636719 27.585938 C 75 27.585938 75.28125 27.296875 75.28125 26.917969 L 75.28125 22.378906 C 75.28125 21.25 74.558594 20.273438 73.492188 19.941406 L 69.851562 18.765625 L 69.851562 17.515625 C 70.734375 16.777344 71.289062 15.664062 71.300781 14.421875 L 71.289062 13.753906 C 71.289062 13.71875 71.289062 13.683594 71.28125 13.664062 C 71.484375 11.949219 71.3125 10.984375 70.734375 10.535156 C 70.65625 10.476562 70.578125 10.433594 70.496094 10.398438 C 70.246094 9.648438 69.839844 9.109375 69.273438 8.777344 C 68.015625 8.050781 66.390625 8.558594 65.214844 8.9375 C 64.871094 9.039062 64.40625 9.203125 64.273438 9.191406 C 64.011719 9.15625 63.75 9.246094 63.558594 9.441406 C 63.386719 9.617188 62.867188 10.144531 63.386719 13.59375 C 63.386719 13.617188 63.398438 13.628906 63.398438 13.652344 L 63.398438 14.421875 C 63.398438 15.664062 63.953125 16.765625 64.828125 17.503906 L 64.828125 18.765625 L 61.175781 19.953125 C 60.097656 20.273438 59.382812 21.25 59.382812 22.386719 L 59.382812 26.917969 C 59.382812 27.285156 59.679688 27.585938 60.042969 27.585938 Z M 64.5 10.488281 C 64.804688 10.441406 65.167969 10.328125 65.609375 10.191406 C 66.5625 9.878906 67.867188 9.464844 68.625 9.914062 C 68.988281 10.121094 69.226562 10.523438 69.363281 11.132812 C 69.410156 11.328125 69.535156 11.488281 69.703125 11.582031 C 69.792969 11.628906 69.886719 11.652344 69.976562 11.652344 C 70.007812 11.742188 70.042969 11.914062 70.066406 12.203125 C 69.304688 11.660156 68.488281 11.582031 67.59375 11.972656 C 67.550781 11.996094 67.539062 11.996094 67.527344 11.984375 C 67.378906 11.914062 67.175781 11.570312 67.085938 11.304688 C 67.015625 11.097656 66.855469 10.9375 66.652344 10.878906 C 66.4375 10.8125 66.222656 10.855469 66.050781 10.996094 L 64.542969 12.238281 C 64.476562 11.488281 64.453125 10.835938 64.5 10.488281 Z M 64.703125 13.800781 L 66.246094 12.546875 C 66.425781 12.800781 66.664062 13.054688 66.980469 13.203125 C 67.34375 13.375 67.730469 13.375 68.105469 13.214844 C 68.582031 13.019531 69.160156 12.890625 69.976562 13.996094 L 69.988281 14.421875 C 69.988281 15.296875 69.566406 16.078125 68.933594 16.558594 C 68.898438 16.570312 68.863281 16.59375 68.832031 16.617188 C 67.945312 17.238281 66.742188 17.238281 65.847656 16.617188 C 65.824219 16.59375 65.792969 16.582031 65.769531 16.570312 C 65.121094 16.078125 64.703125 15.296875 64.703125 14.421875 Z M 67.34375 18.421875 C 67.765625 18.421875 68.171875 18.351562 68.558594 18.226562 L 68.558594 18.996094 L 67.332031 20.640625 L 66.132812 19.019531 L 66.144531 19.019531 L 66.144531 18.226562 C 66.515625 18.351562 66.925781 18.421875 67.34375 18.421875 Z M 60.6875 22.378906 C 60.6875 21.835938 61.039062 21.367188 61.550781 21.203125 L 61.5625 21.203125 L 65.222656 20.019531 L 66.8125 22.160156 C 66.9375 22.320312 67.128906 22.421875 67.332031 22.421875 C 67.332031 22.421875 67.332031 22.421875 67.34375 22.421875 C 67.550781 22.421875 67.742188 22.320312 67.855469 22.160156 L 69.441406 20.019531 L 73.105469 21.203125 L 73.117188 21.203125 C 73.625 21.355469 73.976562 21.835938 73.976562 22.378906 L 73.976562 26.261719 L 72.707031 26.261719 L 72.707031 23.8125 C 72.707031 23.445312 72.414062 23.148438 72.050781 23.148438 C 71.6875 23.148438 71.394531 23.445312 71.394531 23.8125 L 71.394531 26.261719 L 63.285156 26.261719 L 63.285156 23.8125 C 63.285156 23.445312 62.992188 23.148438 62.628906 23.148438 C 62.265625 23.148438 61.96875 23.445312 61.96875 23.8125 L 61.96875 26.261719 L 60.6875 26.261719 Z M 60.6875 22.378906 " clip-rule="nonzero"/></clipPath><linearGradient x1="52.624998" gradientTransform="matrix(0.113396, 0, 0, 0.114968, 39.415424, 0.475626)" y1="53.174995" x2="439.725006" gradientUnits="userSpaceOnUse" y2="440.274986" id="6bb8afa32d"><stop stop-opacity="1" stop-color="rgb(0%, 85.879517%, 87.059021%)" offset="0"/><stop stop-opacity="1" stop-color="rgb(0%, 85.879517%, 87.059021%)" offset="0.0625"/><stop stop-opacity="1" stop-color="rgb(0%, 85.879517%, 87.059021%)" offset="0.09375"/><stop stop-opacity="1" stop-color="rgb(0%, 85.879517%, 87.059021%)" offset="0.109375"/><stop stop-opacity="1" stop-color="rgb(0.376892%, 85.551453%, 87.107849%)" offset="0.113281"/><stop stop-opacity="1" stop-color="rgb(0.753784%, 85.223389%, 87.158203%)" offset="0.117188"/><stop stop-opacity="1" stop-color="rgb(1.190186%, 84.843445%, 87.214661%)" offset="0.121094"/><stop stop-opacity="1" stop-color="rgb(1.626587%, 84.465027%, 87.272644%)" offset="0.125"/><stop stop-opacity="1" stop-color="rgb(2.061462%, 84.086609%, 87.329102%)" offset="0.128906"/><stop stop-opacity="1" stop-color="rgb(2.497864%, 83.708191%, 87.387085%)" offset="0.132812"/><stop stop-opacity="1" stop-color="rgb(2.934265%, 83.328247%, 87.443542%)" offset="0.136719"/><stop stop-opacity="1" stop-color="rgb(3.370667%, 82.949829%, 87.5%)" offset="0.140625"/><stop stop-opacity="1" stop-color="rgb(3.805542%, 82.569885%, 87.556458%)" offset="0.144531"/><stop stop-opacity="1" stop-color="rgb(4.241943%, 82.191467%, 87.614441%)" offset="0.148438"/><stop stop-opacity="1" stop-color="rgb(4.678345%, 81.811523%, 87.670898%)" offset="0.152344"/><stop stop-opacity="1" stop-color="rgb(5.114746%, 81.433105%, 87.728882%)" offset="0.15625"/><stop stop-opacity="1" stop-color="rgb(5.549622%, 81.054688%, 87.785339%)" offset="0.160156"/><stop stop-opacity="1" stop-color="rgb(5.986023%, 80.67627%, 87.843323%)" offset="0.164063"/><stop stop-opacity="1" stop-color="rgb(6.422424%, 80.296326%, 87.89978%)" offset="0.167969"/><stop stop-opacity="1" stop-color="rgb(6.858826%, 79.917908%, 87.957764%)" offset="0.171875"/><stop stop-opacity="1" stop-color="rgb(7.295227%, 79.537964%, 88.014221%)" offset="0.175781"/><stop stop-opacity="1" stop-color="rgb(7.731628%, 79.159546%, 88.072205%)" offset="0.179688"/><stop stop-opacity="1" stop-color="rgb(8.166504%, 78.779602%, 88.128662%)" offset="0.183594"/><stop stop-opacity="1" stop-color="rgb(8.602905%, 78.401184%, 88.18512%)" offset="0.1875"/><stop stop-opacity="1" stop-color="rgb(9.039307%, 78.022766%, 88.241577%)" offset="0.191406"/><stop stop-opacity="1" stop-color="rgb(9.475708%, 77.644348%, 88.299561%)" offset="0.195313"/><stop stop-opacity="1" stop-color="rgb(9.910583%, 77.264404%, 88.356018%)" offset="0.199219"/><stop stop-opacity="1" stop-color="rgb(10.346985%, 76.885986%, 88.414001%)" offset="0.203125"/><stop stop-opacity="1" stop-color="rgb(10.783386%, 76.506042%, 88.470459%)" offset="0.207031"/><stop stop-opacity="1" stop-color="rgb(11.219788%, 76.127625%, 88.528442%)" offset="0.210938"/><stop stop-opacity="1" stop-color="rgb(11.654663%, 75.749207%, 88.5849%)" offset="0.214844"/><stop stop-opacity="1" stop-color="rgb(12.091064%, 75.370789%, 88.642883%)" offset="0.21875"/><stop stop-opacity="1" stop-color="rgb(12.527466%, 74.990845%, 88.699341%)" offset="0.222656"/><stop stop-opacity="1" stop-color="rgb(12.963867%, 74.612427%, 88.757324%)" offset="0.226562"/><stop stop-opacity="1" stop-color="rgb(13.400269%, 74.232483%, 88.813782%)" offset="0.230469"/><stop stop-opacity="1" stop-color="rgb(13.83667%, 73.854065%, 88.871765%)" offset="0.234375"/><stop stop-opacity="1" stop-color="rgb(14.271545%, 73.474121%, 88.928223%)" offset="0.238281"/><stop stop-opacity="1" stop-color="rgb(14.707947%, 73.095703%, 88.98468%)" offset="0.242188"/><stop stop-opacity="1" stop-color="rgb(15.144348%, 72.717285%, 89.041138%)" offset="0.246094"/><stop stop-opacity="1" stop-color="rgb(15.58075%, 72.338867%, 89.099121%)" offset="0.25"/><stop stop-opacity="1" stop-color="rgb(16.015625%, 71.958923%, 89.155579%)" offset="0.253906"/><stop stop-opacity="1" stop-color="rgb(16.452026%, 71.580505%, 89.213562%)" offset="0.257812"/><stop stop-opacity="1" stop-color="rgb(16.888428%, 71.200562%, 89.27002%)" offset="0.261719"/><stop stop-opacity="1" stop-color="rgb(17.324829%, 70.822144%, 89.328003%)" offset="0.265625"/><stop stop-opacity="1" stop-color="rgb(17.76123%, 70.4422%, 89.38446%)" offset="0.269531"/><stop stop-opacity="1" stop-color="rgb(18.197632%, 70.063782%, 89.442444%)" offset="0.273438"/><stop stop-opacity="1" stop-color="rgb(18.632507%, 69.685364%, 89.498901%)" offset="0.277344"/><stop stop-opacity="1" stop-color="rgb(19.068909%, 69.306946%, 89.556885%)" offset="0.28125"/><stop stop-opacity="1" stop-color="rgb(19.50531%, 68.927002%, 89.613342%)" offset="0.285156"/><stop stop-opacity="1" stop-color="rgb(19.941711%, 68.548584%, 89.6698%)" offset="0.289062"/><stop stop-opacity="1" stop-color="rgb(20.376587%, 68.16864%, 89.726257%)" offset="0.292969"/><stop stop-opacity="1" stop-color="rgb(20.812988%, 67.790222%, 89.784241%)" offset="0.296875"/><stop stop-opacity="1" stop-color="rgb(21.24939%, 67.410278%, 89.840698%)" offset="0.300781"/><stop stop-opacity="1" stop-color="rgb(21.685791%, 67.03186%, 89.898682%)" offset="0.304688"/><stop stop-opacity="1" stop-color="rgb(22.120667%, 66.653442%, 89.955139%)" offset="0.308594"/><stop stop-opacity="1" stop-color="rgb(22.557068%, 66.275024%, 90.013123%)" offset="0.3125"/><stop stop-opacity="1" stop-color="rgb(22.993469%, 65.895081%, 90.06958%)" offset="0.316406"/><stop stop-opacity="1" stop-color="rgb(23.429871%, 65.516663%, 90.127563%)" offset="0.320312"/><stop stop-opacity="1" stop-color="rgb(23.866272%, 65.136719%, 90.184021%)" offset="0.324219"/><stop stop-opacity="1" stop-color="rgb(24.302673%, 64.758301%, 90.242004%)" offset="0.328125"/><stop stop-opacity="1" stop-color="rgb(24.737549%, 64.379883%, 90.298462%)" offset="0.332031"/><stop stop-opacity="1" stop-color="rgb(25.17395%, 64.001465%, 90.356445%)" offset="0.335938"/><stop stop-opacity="1" stop-color="rgb(25.610352%, 63.621521%, 90.412903%)" offset="0.339844"/><stop stop-opacity="1" stop-color="rgb(26.046753%, 63.243103%, 90.46936%)" offset="0.34375"/><stop stop-opacity="1" stop-color="rgb(26.481628%, 62.863159%, 90.525818%)" offset="0.347656"/><stop stop-opacity="1" stop-color="rgb(26.91803%, 62.484741%, 90.583801%)" offset="0.351563"/><stop stop-opacity="1" stop-color="rgb(27.354431%, 62.104797%, 90.640259%)" offset="0.355469"/><stop stop-opacity="1" stop-color="rgb(27.790833%, 61.726379%, 90.698242%)" offset="0.359375"/><stop stop-opacity="1" stop-color="rgb(28.225708%, 61.347961%, 90.7547%)" offset="0.363281"/><stop stop-opacity="1" stop-color="rgb(28.662109%, 60.969543%, 90.812683%)" offset="0.367188"/><stop stop-opacity="1" stop-color="rgb(29.098511%, 60.5896%, 90.869141%)" offset="0.371094"/><stop stop-opacity="1" stop-color="rgb(29.534912%, 60.211182%, 90.927124%)" offset="0.375"/><stop stop-opacity="1" stop-color="rgb(29.971313%, 59.831238%, 90.983582%)" offset="0.378906"/><stop stop-opacity="1" stop-color="rgb(30.407715%, 59.45282%, 91.041565%)" offset="0.382812"/><stop stop-opacity="1" stop-color="rgb(30.84259%, 59.072876%, 91.098022%)" offset="0.386719"/><stop stop-opacity="1" stop-color="rgb(31.278992%, 58.694458%, 91.15448%)" offset="0.390625"/><stop stop-opacity="1" stop-color="rgb(31.715393%, 58.31604%, 91.210938%)" offset="0.394531"/><stop stop-opacity="1" stop-color="rgb(32.151794%, 57.937622%, 91.268921%)" offset="0.398438"/><stop stop-opacity="1" stop-color="rgb(32.58667%, 57.557678%, 91.325378%)" offset="0.402344"/><stop stop-opacity="1" stop-color="rgb(33.023071%, 57.17926%, 91.383362%)" offset="0.40625"/><stop stop-opacity="1" stop-color="rgb(33.459473%, 56.799316%, 91.439819%)" offset="0.410156"/><stop stop-opacity="1" stop-color="rgb(33.895874%, 56.420898%, 91.497803%)" offset="0.414062"/><stop stop-opacity="1" stop-color="rgb(34.332275%, 56.04248%, 91.55426%)" offset="0.417969"/><stop stop-opacity="1" stop-color="rgb(34.768677%, 55.664062%, 91.612244%)" offset="0.421875"/><stop stop-opacity="1" stop-color="rgb(35.203552%, 55.284119%, 91.668701%)" offset="0.425781"/><stop stop-opacity="1" stop-color="rgb(35.639954%, 54.905701%, 91.726685%)" offset="0.429688"/><stop stop-opacity="1" stop-color="rgb(36.076355%, 54.525757%, 91.783142%)" offset="0.433594"/><stop stop-opacity="1" stop-color="rgb(36.512756%, 54.147339%, 91.841125%)" offset="0.4375"/><stop stop-opacity="1" stop-color="rgb(36.947632%, 53.767395%, 91.897583%)" offset="0.441406"/><stop stop-opacity="1" stop-color="rgb(37.384033%, 53.388977%, 91.954041%)" offset="0.445313"/><stop stop-opacity="1" stop-color="rgb(37.820435%, 53.010559%, 92.010498%)" offset="0.449219"/><stop stop-opacity="1" stop-color="rgb(38.256836%, 52.632141%, 92.068481%)" offset="0.453125"/><stop stop-opacity="1" stop-color="rgb(38.691711%, 52.252197%, 92.124939%)" offset="0.457031"/><stop stop-opacity="1" stop-color="rgb(39.128113%, 51.873779%, 92.182922%)" offset="0.460938"/><stop stop-opacity="1" stop-color="rgb(39.564514%, 51.493835%, 92.23938%)" offset="0.464844"/><stop stop-opacity="1" stop-color="rgb(40.000916%, 51.115417%, 92.297363%)" offset="0.46875"/><stop stop-opacity="1" stop-color="rgb(40.437317%, 50.735474%, 92.353821%)" offset="0.472656"/><stop stop-opacity="1" stop-color="rgb(40.873718%, 50.357056%, 92.411804%)" offset="0.476563"/><stop stop-opacity="1" stop-color="rgb(41.308594%, 49.978638%, 92.468262%)" offset="0.480469"/><stop stop-opacity="1" stop-color="rgb(41.744995%, 49.60022%, 92.526245%)" offset="0.484375"/><stop stop-opacity="1" stop-color="rgb(42.181396%, 49.220276%, 92.582703%)" offset="0.488281"/><stop stop-opacity="1" stop-color="rgb(42.617798%, 48.841858%, 92.63916%)" offset="0.492188"/><stop stop-opacity="1" stop-color="rgb(43.052673%, 48.461914%, 92.695618%)" offset="0.496094"/><stop stop-opacity="1" stop-color="rgb(43.489075%, 48.083496%, 92.753601%)" offset="0.5"/><stop stop-opacity="1" stop-color="rgb(43.925476%, 47.703552%, 92.810059%)" offset="0.503906"/><stop stop-opacity="1" stop-color="rgb(44.361877%, 47.325134%, 92.868042%)" offset="0.507813"/><stop stop-opacity="1" stop-color="rgb(44.796753%, 46.946716%, 92.9245%)" offset="0.511719"/><stop stop-opacity="1" stop-color="rgb(45.233154%, 46.568298%, 92.982483%)" offset="0.515625"/><stop stop-opacity="1" stop-color="rgb(45.669556%, 46.188354%, 93.03894%)" offset="0.519531"/><stop stop-opacity="1" stop-color="rgb(46.105957%, 45.809937%, 93.096924%)" offset="0.523438"/><stop stop-opacity="1" stop-color="rgb(46.542358%, 45.429993%, 93.153381%)" offset="0.527344"/><stop stop-opacity="1" stop-color="rgb(46.97876%, 45.051575%, 93.211365%)" offset="0.53125"/><stop stop-opacity="1" stop-color="rgb(47.413635%, 44.673157%, 93.267822%)" offset="0.535156"/><stop stop-opacity="1" stop-color="rgb(47.850037%, 44.294739%, 93.325806%)" offset="0.539063"/><stop stop-opacity="1" stop-color="rgb(48.286438%, 43.914795%, 93.382263%)" offset="0.542969"/><stop stop-opacity="1" stop-color="rgb(48.722839%, 43.536377%, 93.438721%)" offset="0.546875"/><stop stop-opacity="1" stop-color="rgb(49.157715%, 43.156433%, 93.495178%)" offset="0.550781"/><stop stop-opacity="1" stop-color="rgb(49.594116%, 42.778015%, 93.553162%)" offset="0.554688"/><stop stop-opacity="1" stop-color="rgb(50.030518%, 42.398071%, 93.609619%)" offset="0.558594"/><stop stop-opacity="1" stop-color="rgb(50.466919%, 42.019653%, 93.667603%)" offset="0.5625"/><stop stop-opacity="1" stop-color="rgb(50.90332%, 41.641235%, 93.72406%)" offset="0.566406"/><stop stop-opacity="1" stop-color="rgb(51.339722%, 41.262817%, 93.782043%)" offset="0.570313"/><stop stop-opacity="1" stop-color="rgb(51.774597%, 40.882874%, 93.838501%)" offset="0.574219"/><stop stop-opacity="1" stop-color="rgb(52.210999%, 40.504456%, 93.896484%)" offset="0.578125"/><stop stop-opacity="1" stop-color="rgb(52.6474%, 40.124512%, 93.952942%)" offset="0.582031"/><stop stop-opacity="1" stop-color="rgb(53.083801%, 39.746094%, 94.010925%)" offset="0.585938"/><stop stop-opacity="1" stop-color="rgb(53.518677%, 39.36615%, 94.067383%)" offset="0.589844"/><stop stop-opacity="1" stop-color="rgb(53.955078%, 38.987732%, 94.12384%)" offset="0.59375"/><stop stop-opacity="1" stop-color="rgb(54.391479%, 38.609314%, 94.180298%)" offset="0.597656"/><stop stop-opacity="1" stop-color="rgb(54.827881%, 38.230896%, 94.238281%)" offset="0.601563"/><stop stop-opacity="1" stop-color="rgb(55.262756%, 37.850952%, 94.294739%)" offset="0.605469"/><stop stop-opacity="1" stop-color="rgb(55.699158%, 37.472534%, 94.352722%)" offset="0.609375"/><stop stop-opacity="1" stop-color="rgb(56.135559%, 37.09259%, 94.40918%)" offset="0.613281"/><stop stop-opacity="1" stop-color="rgb(56.57196%, 36.714172%, 94.467163%)" offset="0.617188"/><stop stop-opacity="1" stop-color="rgb(57.008362%, 36.334229%, 94.523621%)" offset="0.621094"/><stop stop-opacity="1" stop-color="rgb(57.444763%, 35.955811%, 94.581604%)" offset="0.625"/><stop stop-opacity="1" stop-color="rgb(57.879639%, 35.577393%, 94.638062%)" offset="0.628906"/><stop stop-opacity="1" stop-color="rgb(58.31604%, 35.198975%, 94.696045%)" offset="0.632813"/><stop stop-opacity="1" stop-color="rgb(58.752441%, 34.819031%, 94.752502%)" offset="0.636719"/><stop stop-opacity="1" stop-color="rgb(59.188843%, 34.440613%, 94.810486%)" offset="0.640625"/><stop stop-opacity="1" stop-color="rgb(59.623718%, 34.060669%, 94.866943%)" offset="0.644531"/><stop stop-opacity="1" stop-color="rgb(60.06012%, 33.682251%, 94.923401%)" offset="0.648438"/><stop stop-opacity="1" stop-color="rgb(60.496521%, 33.303833%, 94.979858%)" offset="0.652344"/><stop stop-opacity="1" stop-color="rgb(60.932922%, 32.925415%, 95.037842%)" offset="0.65625"/><stop stop-opacity="1" stop-color="rgb(61.367798%, 32.545471%, 95.094299%)" offset="0.660156"/><stop stop-opacity="1" stop-color="rgb(61.804199%, 32.167053%, 95.152283%)" offset="0.664063"/><stop stop-opacity="1" stop-color="rgb(62.240601%, 31.787109%, 95.20874%)" offset="0.667969"/><stop stop-opacity="1" stop-color="rgb(62.677002%, 31.408691%, 95.266724%)" offset="0.671875"/><stop stop-opacity="1" stop-color="rgb(63.113403%, 31.028748%, 95.323181%)" offset="0.675781"/><stop stop-opacity="1" stop-color="rgb(63.549805%, 30.65033%, 95.381165%)" offset="0.679688"/><stop stop-opacity="1" stop-color="rgb(63.98468%, 30.271912%, 95.437622%)" offset="0.683594"/><stop stop-opacity="1" stop-color="rgb(64.421082%, 29.893494%, 95.495605%)" offset="0.6875"/><stop stop-opacity="1" stop-color="rgb(64.857483%, 29.51355%, 95.552063%)" offset="0.691406"/><stop stop-opacity="1" stop-color="rgb(65.293884%, 29.135132%, 95.608521%)" offset="0.695313"/><stop stop-opacity="1" stop-color="rgb(65.72876%, 28.755188%, 95.664978%)" offset="0.699219"/><stop stop-opacity="1" stop-color="rgb(66.165161%, 28.37677%, 95.722961%)" offset="0.703125"/><stop stop-opacity="1" stop-color="rgb(66.601562%, 27.996826%, 95.779419%)" offset="0.707031"/><stop stop-opacity="1" stop-color="rgb(67.037964%, 27.618408%, 95.837402%)" offset="0.710938"/><stop stop-opacity="1" stop-color="rgb(67.474365%, 27.23999%, 95.89386%)" offset="0.714844"/><stop stop-opacity="1" stop-color="rgb(67.910767%, 26.861572%, 95.951843%)" offset="0.71875"/><stop stop-opacity="1" stop-color="rgb(68.345642%, 26.481628%, 96.008301%)" offset="0.722656"/><stop stop-opacity="1" stop-color="rgb(68.782043%, 26.10321%, 96.066284%)" offset="0.726563"/><stop stop-opacity="1" stop-color="rgb(69.218445%, 25.723267%, 96.122742%)" offset="0.730469"/><stop stop-opacity="1" stop-color="rgb(69.654846%, 25.344849%, 96.180725%)" offset="0.734375"/><stop stop-opacity="1" stop-color="rgb(70.089722%, 24.964905%, 96.237183%)" offset="0.738281"/><stop stop-opacity="1" stop-color="rgb(70.526123%, 24.586487%, 96.295166%)" offset="0.742188"/><stop stop-opacity="1" stop-color="rgb(70.962524%, 24.208069%, 96.351624%)" offset="0.746094"/><stop stop-opacity="1" stop-color="rgb(71.398926%, 23.829651%, 96.408081%)" offset="0.75"/><stop stop-opacity="1" stop-color="rgb(71.833801%, 23.449707%, 96.464539%)" offset="0.753906"/><stop stop-opacity="1" stop-color="rgb(72.270203%, 23.071289%, 96.522522%)" offset="0.757812"/><stop stop-opacity="1" stop-color="rgb(72.706604%, 22.691345%, 96.578979%)" offset="0.761719"/><stop stop-opacity="1" stop-color="rgb(73.143005%, 22.312927%, 96.636963%)" offset="0.765625"/><stop stop-opacity="1" stop-color="rgb(73.579407%, 21.934509%, 96.69342%)" offset="0.769531"/><stop stop-opacity="1" stop-color="rgb(74.015808%, 21.556091%, 96.751404%)" offset="0.773438"/><stop stop-opacity="1" stop-color="rgb(74.450684%, 21.176147%, 96.807861%)" offset="0.777344"/><stop stop-opacity="1" stop-color="rgb(74.887085%, 20.797729%, 96.865845%)" offset="0.78125"/><stop stop-opacity="1" stop-color="rgb(75.323486%, 20.417786%, 96.922302%)" offset="0.785156"/><stop stop-opacity="1" stop-color="rgb(75.759888%, 20.039368%, 96.980286%)" offset="0.789062"/><stop stop-opacity="1" stop-color="rgb(76.194763%, 19.659424%, 97.036743%)" offset="0.792969"/><stop stop-opacity="1" stop-color="rgb(76.631165%, 19.281006%, 97.093201%)" offset="0.796875"/><stop stop-opacity="1" stop-color="rgb(77.067566%, 18.902588%, 97.149658%)" offset="0.800781"/><stop stop-opacity="1" stop-color="rgb(77.503967%, 18.52417%, 97.207642%)" offset="0.804688"/><stop stop-opacity="1" stop-color="rgb(77.938843%, 18.144226%, 97.264099%)" offset="0.808594"/><stop stop-opacity="1" stop-color="rgb(78.375244%, 17.765808%, 97.322083%)" offset="0.8125"/><stop stop-opacity="1" stop-color="rgb(78.811646%, 17.385864%, 97.37854%)" offset="0.816406"/><stop stop-opacity="1" stop-color="rgb(79.248047%, 17.007446%, 97.436523%)" offset="0.820312"/><stop stop-opacity="1" stop-color="rgb(79.684448%, 16.627502%, 97.492981%)" offset="0.824219"/><stop stop-opacity="1" stop-color="rgb(80.12085%, 16.249084%, 97.550964%)" offset="0.828125"/><stop stop-opacity="1" stop-color="rgb(80.555725%, 15.870667%, 97.607422%)" offset="0.832031"/><stop stop-opacity="1" stop-color="rgb(80.992126%, 15.492249%, 97.665405%)" offset="0.835938"/><stop stop-opacity="1" stop-color="rgb(81.428528%, 15.112305%, 97.721863%)" offset="0.839844"/><stop stop-opacity="1" stop-color="rgb(81.864929%, 14.733887%, 97.779846%)" offset="0.84375"/><stop stop-opacity="1" stop-color="rgb(82.299805%, 14.353943%, 97.836304%)" offset="0.847656"/><stop stop-opacity="1" stop-color="rgb(82.736206%, 13.975525%, 97.892761%)" offset="0.851562"/><stop stop-opacity="1" stop-color="rgb(83.172607%, 13.595581%, 97.949219%)" offset="0.855469"/><stop stop-opacity="1" stop-color="rgb(83.609009%, 13.217163%, 98.007202%)" offset="0.859375"/><stop stop-opacity="1" stop-color="rgb(84.04541%, 12.838745%, 98.06366%)" offset="0.863281"/><stop stop-opacity="1" stop-color="rgb(84.481812%, 12.460327%, 98.121643%)" offset="0.867188"/><stop stop-opacity="1" stop-color="rgb(84.916687%, 12.080383%, 98.178101%)" offset="0.871094"/><stop stop-opacity="1" stop-color="rgb(85.353088%, 11.701965%, 98.236084%)" offset="0.875"/><stop stop-opacity="1" stop-color="rgb(85.78949%, 11.322021%, 98.292542%)" offset="0.878906"/><stop stop-opacity="1" stop-color="rgb(86.225891%, 10.943604%, 98.350525%)" offset="0.882812"/><stop stop-opacity="1" stop-color="rgb(86.660767%, 10.565186%, 98.406982%)" offset="0.886719"/><stop stop-opacity="1" stop-color="rgb(87.097168%, 10.186768%, 98.464966%)" offset="0.890625"/><stop stop-opacity="1" stop-color="rgb(87.533569%, 9.806824%, 98.521423%)" offset="0.894531"/><stop stop-opacity="1" stop-color="rgb(87.969971%, 9.428406%, 98.577881%)" offset="0.898438"/><stop stop-opacity="1" stop-color="rgb(88.404846%, 9.048462%, 98.634338%)" offset="0.902344"/><stop stop-opacity="1" stop-color="rgb(88.841248%, 8.670044%, 98.692322%)" offset="0.90625"/><stop stop-opacity="1" stop-color="rgb(89.277649%, 8.2901%, 98.748779%)" offset="0.910156"/><stop stop-opacity="1" stop-color="rgb(89.71405%, 7.911682%, 98.806763%)" offset="0.914063"/><stop stop-opacity="1" stop-color="rgb(90.150452%, 7.533264%, 98.86322%)" offset="0.917969"/><stop stop-opacity="1" stop-color="rgb(90.586853%, 7.154846%, 98.921204%)" offset="0.921875"/><stop stop-opacity="1" stop-color="rgb(91.021729%, 6.774902%, 98.977661%)" offset="0.925781"/><stop stop-opacity="1" stop-color="rgb(91.45813%, 6.396484%, 99.035645%)" offset="0.929688"/><stop stop-opacity="1" stop-color="rgb(91.894531%, 6.016541%, 99.092102%)" offset="0.933594"/><stop stop-opacity="1" stop-color="rgb(92.330933%, 5.638123%, 99.150085%)" offset="0.9375"/><stop stop-opacity="1" stop-color="rgb(92.765808%, 5.258179%, 99.206543%)" offset="0.941406"/><stop stop-opacity="1" stop-color="rgb(93.202209%, 4.879761%, 99.264526%)" offset="0.945313"/><stop stop-opacity="1" stop-color="rgb(93.638611%, 4.501343%, 99.320984%)" offset="0.949219"/><stop stop-opacity="1" stop-color="rgb(94.075012%, 4.122925%, 99.377441%)" offset="0.953125"/><stop stop-opacity="1" stop-color="rgb(94.509888%, 3.742981%, 99.433899%)" offset="0.957031"/><stop stop-opacity="1" stop-color="rgb(94.946289%, 3.364563%, 99.491882%)" offset="0.960938"/><stop stop-opacity="1" stop-color="rgb(95.38269%, 2.984619%, 99.54834%)" offset="0.964844"/><stop stop-opacity="1" stop-color="rgb(95.819092%, 2.606201%, 99.606323%)" offset="0.96875"/><stop stop-opacity="1" stop-color="rgb(96.255493%, 2.226257%, 99.662781%)" offset="0.972656"/><stop stop-opacity="1" stop-color="rgb(96.691895%, 1.847839%, 99.720764%)" offset="0.976563"/><stop stop-opacity="1" stop-color="rgb(97.12677%, 1.469421%, 99.777222%)" offset="0.980469"/><stop stop-opacity="1" stop-color="rgb(97.563171%, 1.091003%, 99.835205%)" offset="0.984375"/><stop stop-opacity="1" stop-color="rgb(97.999573%, 0.71106%, 99.891663%)" offset="0.988281"/><stop stop-opacity="1" stop-color="rgb(98.435974%, 0.332642%, 99.949646%)" offset="0.992188"/><stop stop-opacity="1" stop-color="rgb(98.626709%, 0.166321%, 99.97406%)" offset="1"/></linearGradient></defs><g transform="matrix(1, 0, 0, 1, 86, 1)"><g clip-path="url(#927cf56941)"><g fill="#9c6cfe" fill-opacity="1"><g transform="translate(38.455762, 20.484712)"><g><path d="M 8.765625 -9.421875 C 8.640625 -10.304688 8.394531 -11.007812 8.03125 -11.53125 C 7.675781 -12.0625 7.210938 -12.328125 6.640625 -12.328125 C 5.835938 -12.328125 5.195312 -11.945312 4.71875 -11.1875 C 4.238281 -10.425781 4 -9.253906 4 -7.671875 C 4 -5.753906 4.367188 -4.351562 5.109375 -3.46875 C 5.847656 -2.582031 6.804688 -2.140625 7.984375 -2.140625 C 8.554688 -2.140625 9.0625 -2.242188 9.5 -2.453125 C 9.9375 -2.671875 10.242188 -2.925781 10.421875 -3.21875 C 10.585938 -3.09375 10.722656 -2.910156 10.828125 -2.671875 C 10.929688 -2.429688 10.984375 -2.210938 10.984375 -2.015625 C 10.984375 -1.691406 10.8125 -1.347656 10.46875 -0.984375 C 10.132812 -0.628906 9.648438 -0.328125 9.015625 -0.078125 C 8.378906 0.160156 7.648438 0.28125 6.828125 0.28125 C 5.660156 0.28125 4.597656 0.0078125 3.640625 -0.53125 C 2.679688 -1.070312 1.914062 -1.890625 1.34375 -2.984375 C 0.78125 -4.085938 0.5 -5.421875 0.5 -6.984375 C 0.5 -8.503906 0.753906 -9.796875 1.265625 -10.859375 C 1.785156 -11.921875 2.507812 -12.71875 3.4375 -13.25 C 4.375 -13.789062 5.460938 -14.0625 6.703125 -14.0625 C 6.992188 -14.0625 7.320312 -14.019531 7.6875 -13.9375 C 8.0625 -13.851562 8.390625 -13.75 8.671875 -13.625 C 8.867188 -13.71875 9.15625 -13.804688 9.53125 -13.890625 C 9.914062 -13.984375 10.210938 -14.039062 10.421875 -14.0625 C 10.804688 -13.125 11 -11.578125 11 -9.421875 Z M 8.765625 -9.421875 "/></g></g></g><g fill="#9c6cfe" fill-opacity="1"><g transform="translate(51.241516, 20.484712)"><g><path d="M 12.96875 -13.84375 C 13.175781 -13.507812 13.28125 -13.09375 13.28125 -12.59375 C 12.820312 -12.59375 12.457031 -12.519531 12.1875 -12.375 C 11.925781 -12.238281 11.738281 -12 11.625 -11.65625 L 8.25 -1.765625 C 8.007812 -1.078125 7.734375 -0.585938 7.421875 -0.296875 C 7.109375 -0.00390625 6.664062 0.140625 6.09375 0.140625 L 5.46875 0.140625 L 0.859375 -11.65625 C 0.722656 -12 0.53125 -12.238281 0.28125 -12.375 C 0.03125 -12.519531 -0.328125 -12.59375 -0.796875 -12.59375 C -0.796875 -13.0625 -0.6875 -13.476562 -0.46875 -13.84375 L 5.390625 -13.84375 C 5.628906 -13.414062 5.75 -13 5.75 -12.59375 C 5.375 -12.59375 5.082031 -12.507812 4.875 -12.34375 C 4.675781 -12.1875 4.578125 -11.972656 4.578125 -11.703125 C 4.578125 -11.617188 4.617188 -11.457031 4.703125 -11.21875 L 6.359375 -5.84375 L 6.953125 -3.671875 L 7.546875 -5.8125 L 9.140625 -11.28125 C 9.191406 -11.488281 9.21875 -11.628906 9.21875 -11.703125 C 9.21875 -11.972656 9.117188 -12.1875 8.921875 -12.34375 C 8.722656 -12.507812 8.429688 -12.59375 8.046875 -12.59375 C 8.046875 -12.851562 8.066406 -13.078125 8.109375 -13.265625 C 8.160156 -13.460938 8.25 -13.65625 8.375 -13.84375 Z M 12.96875 -13.84375 "/></g></g></g><g clip-path="url(#e60022c83e)"><g fill="#9c6cfe" fill-opacity="1"><g transform="translate(0.486763, 47.796337)"><g/></g></g></g><g fill="#9c6cfe" fill-opacity="1"><g transform="translate(5.742454, 47.796337)"><g><path d="M 8.765625 -9.421875 C 8.640625 -10.304688 8.394531 -11.007812 8.03125 -11.53125 C 7.675781 -12.0625 7.210938 -12.328125 6.640625 -12.328125 C 5.835938 -12.328125 5.195312 -11.945312 4.71875 -11.1875 C 4.238281 -10.425781 4 -9.253906 4 -7.671875 C 4 -5.753906 4.367188 -4.351562 5.109375 -3.46875 C 5.847656 -2.582031 6.804688 -2.140625 7.984375 -2.140625 C 8.554688 -2.140625 9.0625 -2.242188 9.5 -2.453125 C 9.9375 -2.671875 10.242188 -2.925781 10.421875 -3.21875 C 10.585938 -3.09375 10.722656 -2.910156 10.828125 -2.671875 C 10.929688 -2.429688 10.984375 -2.210938 10.984375 -2.015625 C 10.984375 -1.691406 10.8125 -1.347656 10.46875 -0.984375 C 10.132812 -0.628906 9.648438 -0.328125 9.015625 -0.078125 C 8.378906 0.160156 7.648438 0.28125 6.828125 0.28125 C 5.660156 0.28125 4.597656 0.0078125 3.640625 -0.53125 C 2.679688 -1.070312 1.914062 -1.890625 1.34375 -2.984375 C 0.78125 -4.085938 0.5 -5.421875 0.5 -6.984375 C 0.5 -8.503906 0.753906 -9.796875 1.265625 -10.859375 C 1.785156 -11.921875 2.507812 -12.71875 3.4375 -13.25 C 4.375 -13.789062 5.460938 -14.0625 6.703125 -14.0625 C 6.992188 -14.0625 7.320312 -14.019531 7.6875 -13.9375 C 8.0625 -13.851562 8.390625 -13.75 8.671875 -13.625 C 8.867188 -13.71875 9.15625 -13.804688 9.53125 -13.890625 C 9.914062 -13.984375 10.210938 -14.039062 10.421875 -14.0625 C 10.804688 -13.125 11 -11.578125 11 -9.421875 Z M 8.765625 -9.421875 "/></g></g></g><g fill="#9c6cfe" fill-opacity="1"><g transform="translate(18.528208, 47.796337)"><g><path d="M 11.59375 -3.046875 C 11.738281 -2.546875 11.925781 -2.171875 12.15625 -1.921875 C 12.394531 -1.679688 12.695312 -1.535156 13.0625 -1.484375 L 13.0625 -0.5 C 12.757812 -0.0703125 12.1875 0.140625 11.34375 0.140625 C 10.550781 0.140625 9.925781 0.0078125 9.46875 -0.25 C 9.007812 -0.519531 8.671875 -0.867188 8.453125 -1.296875 C 8.234375 -1.722656 8.035156 -2.289062 7.859375 -3 C 7.648438 -3.769531 7.429688 -4.410156 7.203125 -4.921875 C 6.984375 -5.441406 6.695312 -5.765625 6.34375 -5.890625 L 5.03125 -5.890625 L 5.03125 -2.265625 C 5.03125 -1.921875 5.15625 -1.664062 5.40625 -1.5 C 5.664062 -1.332031 6 -1.25 6.40625 -1.25 C 6.40625 -0.769531 6.257812 -0.351562 5.96875 0 L 0.984375 0 C 0.679688 -0.375 0.53125 -0.789062 0.53125 -1.25 C 0.976562 -1.25 1.304688 -1.328125 1.515625 -1.484375 C 1.722656 -1.640625 1.828125 -1.898438 1.828125 -2.265625 L 1.828125 -11.578125 C 1.828125 -11.929688 1.71875 -12.1875 1.5 -12.34375 C 1.289062 -12.507812 0.960938 -12.59375 0.515625 -12.59375 C 0.515625 -13.125 0.644531 -13.539062 0.90625 -13.84375 C 1.78125 -13.84375 2.757812 -13.867188 3.84375 -13.921875 C 4.800781 -13.972656 5.550781 -14 6.09375 -14 C 9.875 -14 11.765625 -12.722656 11.765625 -10.171875 C 11.765625 -8.222656 10.734375 -7.039062 8.671875 -6.625 C 9.265625 -6.445312 9.832031 -6.03125 10.375 -5.375 C 10.914062 -4.726562 11.320312 -3.953125 11.59375 -3.046875 Z M 5.90625 -7.25 C 6.695312 -7.25 7.316406 -7.5 7.765625 -8 C 8.222656 -8.5 8.453125 -9.15625 8.453125 -9.96875 C 8.453125 -10.820312 8.253906 -11.453125 7.859375 -11.859375 C 7.472656 -12.273438 6.859375 -12.484375 6.015625 -12.484375 C 5.554688 -12.484375 5.226562 -12.457031 5.03125 -12.40625 L 5.03125 -7.296875 C 5.269531 -7.265625 5.5625 -7.25 5.90625 -7.25 Z M 5.90625 -7.25 "/></g></g></g><g fill="#9c6cfe" fill-opacity="1"><g transform="translate(32.959117, 47.796337)"><g><path d="M 11.875 -4.1875 C 11.875 -3.75 11.769531 -2.96875 11.5625 -1.84375 C 11.351562 -0.726562 11.160156 -0.0078125 10.984375 0.3125 C 10.773438 0.257812 10.5 0.15625 10.15625 0 L 0.96875 0 C 0.664062 -0.394531 0.515625 -0.8125 0.515625 -1.25 C 0.960938 -1.25 1.289062 -1.328125 1.5 -1.484375 C 1.71875 -1.640625 1.828125 -1.90625 1.828125 -2.28125 L 1.828125 -11.578125 C 1.828125 -11.929688 1.722656 -12.1875 1.515625 -12.34375 C 1.304688 -12.507812 0.976562 -12.59375 0.53125 -12.59375 C 0.53125 -13.03125 0.679688 -13.445312 0.984375 -13.84375 L 8.6875 -13.84375 C 8.90625 -13.945312 9.160156 -14.023438 9.453125 -14.078125 C 9.753906 -14.140625 10.035156 -14.171875 10.296875 -14.171875 C 10.492188 -13.796875 10.707031 -13.269531 10.9375 -12.59375 C 11.164062 -11.914062 11.28125 -11.425781 11.28125 -11.125 C 11.125 -10.976562 10.851562 -10.820312 10.46875 -10.65625 C 10.082031 -10.5 9.753906 -10.394531 9.484375 -10.34375 C 9.304688 -10.832031 9.03125 -11.253906 8.65625 -11.609375 C 8.289062 -11.972656 7.863281 -12.15625 7.375 -12.15625 L 5.140625 -12.15625 L 5.140625 -7.96875 L 6.5625 -7.96875 C 7.425781 -7.96875 7.859375 -8.453125 7.859375 -9.421875 C 8.453125 -9.421875 8.984375 -9.28125 9.453125 -9 L 9.453125 -5.3125 C 9.242188 -5.175781 9 -5.070312 8.71875 -5 C 8.445312 -4.925781 8.164062 -4.890625 7.875 -4.890625 C 7.875 -5.398438 7.753906 -5.78125 7.515625 -6.03125 C 7.273438 -6.28125 6.960938 -6.40625 6.578125 -6.40625 L 5.140625 -6.40625 L 5.140625 -1.75 L 7.53125 -1.75 C 8.09375 -1.75 8.578125 -1.984375 8.984375 -2.453125 C 9.390625 -2.921875 9.644531 -3.5 9.75 -4.1875 Z M 11.875 -4.1875 "/></g></g></g><g fill="#9c6cfe" fill-opacity="1"><g transform="translate(46.63682, 47.796337)"><g><path d="M 11.9375 -2.625 C 12.070312 -2.195312 12.296875 -1.863281 12.609375 -1.625 C 12.929688 -1.382812 13.269531 -1.265625 13.625 -1.265625 C 13.625 -1.023438 13.582031 -0.789062 13.5 -0.5625 C 13.425781 -0.34375 13.316406 -0.15625 13.171875 0 L 7.796875 0 C 7.648438 -0.15625 7.535156 -0.34375 7.453125 -0.5625 C 7.378906 -0.789062 7.34375 -1.023438 7.34375 -1.265625 C 8.09375 -1.265625 8.46875 -1.582031 8.46875 -2.21875 C 8.46875 -2.488281 8.421875 -2.800781 8.328125 -3.15625 L 8.203125 -3.5625 L 3.765625 -3.5625 L 3.640625 -3.15625 C 3.523438 -2.738281 3.46875 -2.445312 3.46875 -2.28125 C 3.46875 -1.601562 3.890625 -1.265625 4.734375 -1.265625 C 4.734375 -1.023438 4.691406 -0.789062 4.609375 -0.5625 C 4.535156 -0.34375 4.425781 -0.15625 4.28125 0 L -0.140625 0 C -0.285156 -0.15625 -0.394531 -0.34375 -0.46875 -0.5625 C -0.550781 -0.789062 -0.59375 -1.023438 -0.59375 -1.265625 C -0.226562 -1.265625 0.101562 -1.375 0.40625 -1.59375 C 0.71875 -1.8125 0.945312 -2.132812 1.09375 -2.5625 L 4.34375 -12.15625 C 3.8125 -12.320312 3.144531 -12.40625 2.34375 -12.40625 C 2.34375 -12.976562 2.5 -13.457031 2.8125 -13.84375 L 8.25 -13.84375 Z M 7.765625 -5.109375 L 6.359375 -10.03125 C 6.242188 -10.425781 6.09375 -10.765625 5.90625 -11.046875 L 4.203125 -5.109375 Z M 7.765625 -5.109375 "/></g></g></g><g fill="#9c6cfe" fill-opacity="1"><g transform="translate(60.254676, 47.796337)"><g><path d="M 11.8125 -14.078125 C 12.03125 -13.617188 12.195312 -12.78125 12.3125 -11.5625 C 12.425781 -10.34375 12.484375 -9.34375 12.484375 -8.5625 C 12.316406 -8.5 12.050781 -8.445312 11.6875 -8.40625 C 11.320312 -8.363281 10.992188 -8.34375 10.703125 -8.34375 C 10.628906 -9.40625 10.5 -10.21875 10.3125 -10.78125 C 10.132812 -11.351562 9.894531 -11.742188 9.59375 -11.953125 C 9.289062 -12.171875 8.894531 -12.28125 8.40625 -12.28125 L 8.0625 -12.28125 L 8.0625 -2.34375 C 8.0625 -1.96875 8.234375 -1.691406 8.578125 -1.515625 C 8.921875 -1.347656 9.453125 -1.265625 10.171875 -1.265625 C 10.171875 -1.023438 10.128906 -0.789062 10.046875 -0.5625 C 9.972656 -0.34375 9.863281 -0.15625 9.71875 0 L 2.96875 0 C 2.84375 -0.15625 2.738281 -0.34375 2.65625 -0.5625 C 2.570312 -0.789062 2.53125 -1.023438 2.53125 -1.265625 C 4.03125 -1.265625 4.78125 -1.625 4.78125 -2.34375 L 4.78125 -12.28125 L 4.34375 -12.28125 C 2.957031 -12.28125 2.15625 -10.96875 1.9375 -8.34375 C 1.019531 -8.382812 0.425781 -8.457031 0.15625 -8.5625 C 0.15625 -9.34375 0.210938 -10.34375 0.328125 -11.5625 C 0.453125 -12.78125 0.617188 -13.617188 0.828125 -14.078125 C 1.441406 -14.078125 1.984375 -14 2.453125 -13.84375 L 10.1875 -13.84375 C 10.6875 -14 11.226562 -14.078125 11.8125 -14.078125 Z M 11.8125 -14.078125 "/></g></g></g><g fill="#9c6cfe" fill-opacity="1"><g transform="translate(73.991666, 47.796337)"><g><path d="M 6.625 0.25 C 5.351562 0.25 4.257812 -0.0390625 3.34375 -0.625 C 2.425781 -1.207031 1.722656 -2.039062 1.234375 -3.125 C 0.742188 -4.21875 0.5 -5.476562 0.5 -6.90625 C 0.5 -8.394531 0.75 -9.675781 1.25 -10.75 C 1.75 -11.832031 2.457031 -12.65625 3.375 -13.21875 C 4.300781 -13.789062 5.378906 -14.078125 6.609375 -14.078125 C 7.867188 -14.078125 8.960938 -13.78125 9.890625 -13.1875 C 10.816406 -12.59375 11.523438 -11.753906 12.015625 -10.671875 C 12.515625 -9.597656 12.765625 -8.34375 12.765625 -6.90625 C 12.765625 -5.414062 12.507812 -4.132812 12 -3.0625 C 11.5 -1.988281 10.785156 -1.164062 9.859375 -0.59375 C 8.929688 -0.03125 7.851562 0.25 6.625 0.25 Z M 6.625 -1.1875 C 7.351562 -1.1875 7.941406 -1.601562 8.390625 -2.4375 C 8.847656 -3.269531 9.078125 -4.785156 9.078125 -6.984375 C 9.078125 -9.066406 8.863281 -10.523438 8.4375 -11.359375 C 8.019531 -12.191406 7.425781 -12.609375 6.65625 -12.609375 C 5.9375 -12.609375 5.347656 -12.191406 4.890625 -11.359375 C 4.429688 -10.523438 4.203125 -9.019531 4.203125 -6.84375 C 4.203125 -4.75 4.414062 -3.28125 4.84375 -2.4375 C 5.28125 -1.601562 5.875 -1.1875 6.625 -1.1875 Z M 6.625 -1.1875 "/></g></g></g><g fill="#9c6cfe" fill-opacity="1"><g transform="translate(88.739706, 47.796337)"><g><path d="M 11.59375 -3.046875 C 11.738281 -2.546875 11.925781 -2.171875 12.15625 -1.921875 C 12.394531 -1.679688 12.695312 -1.535156 13.0625 -1.484375 L 13.0625 -0.5 C 12.757812 -0.0703125 12.1875 0.140625 11.34375 0.140625 C 10.550781 0.140625 9.925781 0.0078125 9.46875 -0.25 C 9.007812 -0.519531 8.671875 -0.867188 8.453125 -1.296875 C 8.234375 -1.722656 8.035156 -2.289062 7.859375 -3 C 7.648438 -3.769531 7.429688 -4.410156 7.203125 -4.921875 C 6.984375 -5.441406 6.695312 -5.765625 6.34375 -5.890625 L 5.03125 -5.890625 L 5.03125 -2.265625 C 5.03125 -1.921875 5.15625 -1.664062 5.40625 -1.5 C 5.664062 -1.332031 6 -1.25 6.40625 -1.25 C 6.40625 -0.769531 6.257812 -0.351562 5.96875 0 L 0.984375 0 C 0.679688 -0.375 0.53125 -0.789062 0.53125 -1.25 C 0.976562 -1.25 1.304688 -1.328125 1.515625 -1.484375 C 1.722656 -1.640625 1.828125 -1.898438 1.828125 -2.265625 L 1.828125 -11.578125 C 1.828125 -11.929688 1.71875 -12.1875 1.5 -12.34375 C 1.289062 -12.507812 0.960938 -12.59375 0.515625 -12.59375 C 0.515625 -13.125 0.644531 -13.539062 0.90625 -13.84375 C 1.78125 -13.84375 2.757812 -13.867188 3.84375 -13.921875 C 4.800781 -13.972656 5.550781 -14 6.09375 -14 C 9.875 -14 11.765625 -12.722656 11.765625 -10.171875 C 11.765625 -8.222656 10.734375 -7.039062 8.671875 -6.625 C 9.265625 -6.445312 9.832031 -6.03125 10.375 -5.375 C 10.914062 -4.726562 11.320312 -3.953125 11.59375 -3.046875 Z M 5.90625 -7.25 C 6.695312 -7.25 7.316406 -7.5 7.765625 -8 C 8.222656 -8.5 8.453125 -9.15625 8.453125 -9.96875 C 8.453125 -10.820312 8.253906 -11.453125 7.859375 -11.859375 C 7.472656 -12.273438 6.859375 -12.484375 6.015625 -12.484375 C 5.554688 -12.484375 5.226562 -12.457031 5.03125 -12.40625 L 5.03125 -7.296875 C 5.269531 -7.265625 5.5625 -7.25 5.90625 -7.25 Z M 5.90625 -7.25 "/></g></g></g></g></g><g transform="matrix(1, 0, 0, 1, 86, 1)"><g clip-path="url(#f292d5f1be)"><g fill="#06d2dd" fill-opacity="1"><g transform="translate(38.455762, 20.484712)"><g><path d="M 8.765625 -9.421875 C 8.640625 -10.304688 8.394531 -11.007812 8.03125 -11.53125 C 7.675781 -12.0625 7.210938 -12.328125 6.640625 -12.328125 C 5.835938 -12.328125 5.195312 -11.945312 4.71875 -11.1875 C 4.238281 -10.425781 4 -9.253906 4 -7.671875 C 4 -5.753906 4.367188 -4.351562 5.109375 -3.46875 C 5.847656 -2.582031 6.804688 -2.140625 7.984375 -2.140625 C 8.554688 -2.140625 9.0625 -2.242188 9.5 -2.453125 C 9.9375 -2.671875 10.242188 -2.925781 10.421875 -3.21875 C 10.585938 -3.09375 10.722656 -2.910156 10.828125 -2.671875 C 10.929688 -2.429688 10.984375 -2.210938 10.984375 -2.015625 C 10.984375 -1.691406 10.8125 -1.347656 10.46875 -0.984375 C 10.132812 -0.628906 9.648438 -0.328125 9.015625 -0.078125 C 8.378906 0.160156 7.648438 0.28125 6.828125 0.28125 C 5.660156 0.28125 4.597656 0.0078125 3.640625 -0.53125 C 2.679688 -1.070312 1.914062 -1.890625 1.34375 -2.984375 C 0.78125 -4.085938 0.5 -5.421875 0.5 -6.984375 C 0.5 -8.503906 0.753906 -9.796875 1.265625 -10.859375 C 1.785156 -11.921875 2.507812 -12.71875 3.4375 -13.25 C 4.375 -13.789062 5.460938 -14.0625 6.703125 -14.0625 C 6.992188 -14.0625 7.320312 -14.019531 7.6875 -13.9375 C 8.0625 -13.851562 8.390625 -13.75 8.671875 -13.625 C 8.867188 -13.71875 9.15625 -13.804688 9.53125 -13.890625 C 9.914062 -13.984375 10.210938 -14.039062 10.421875 -14.0625 C 10.804688 -13.125 11 -11.578125 11 -9.421875 Z M 8.765625 -9.421875 "/></g></g></g><g fill="#06d2dd" fill-opacity="1"><g transform="translate(51.241516, 20.484712)"><g><path d="M 12.96875 -13.84375 C 13.175781 -13.507812 13.28125 -13.09375 13.28125 -12.59375 C 12.820312 -12.59375 12.457031 -12.519531 12.1875 -12.375 C 11.925781 -12.238281 11.738281 -12 11.625 -11.65625 L 8.25 -1.765625 C 8.007812 -1.078125 7.734375 -0.585938 7.421875 -0.296875 C 7.109375 -0.00390625 6.664062 0.140625 6.09375 0.140625 L 5.46875 0.140625 L 0.859375 -11.65625 C 0.722656 -12 0.53125 -12.238281 0.28125 -12.375 C 0.03125 -12.519531 -0.328125 -12.59375 -0.796875 -12.59375 C -0.796875 -13.0625 -0.6875 -13.476562 -0.46875 -13.84375 L 5.390625 -13.84375 C 5.628906 -13.414062 5.75 -13 5.75 -12.59375 C 5.375 -12.59375 5.082031 -12.507812 4.875 -12.34375 C 4.675781 -12.1875 4.578125 -11.972656 4.578125 -11.703125 C 4.578125 -11.617188 4.617188 -11.457031 4.703125 -11.21875 L 6.359375 -5.84375 L 6.953125 -3.671875 L 7.546875 -5.8125 L 9.140625 -11.28125 C 9.191406 -11.488281 9.21875 -11.628906 9.21875 -11.703125 C 9.21875 -11.972656 9.117188 -12.1875 8.921875 -12.34375 C 8.722656 -12.507812 8.429688 -12.59375 8.046875 -12.59375 C 8.046875 -12.851562 8.066406 -13.078125 8.109375 -13.265625 C 8.160156 -13.460938 8.25 -13.65625 8.375 -13.84375 Z M 12.96875 -13.84375 "/></g></g></g><g clip-path="url(#4ec013ef85)"><g fill="#06d2dd" fill-opacity="1"><g transform="translate(0.486763, 47.796337)"><g/></g></g></g><g fill="#06d2dd" fill-opacity="1"><g transform="translate(5.742454, 47.796337)"><g><path d="M 8.765625 -9.421875 C 8.640625 -10.304688 8.394531 -11.007812 8.03125 -11.53125 C 7.675781 -12.0625 7.210938 -12.328125 6.640625 -12.328125 C 5.835938 -12.328125 5.195312 -11.945312 4.71875 -11.1875 C 4.238281 -10.425781 4 -9.253906 4 -7.671875 C 4 -5.753906 4.367188 -4.351562 5.109375 -3.46875 C 5.847656 -2.582031 6.804688 -2.140625 7.984375 -2.140625 C 8.554688 -2.140625 9.0625 -2.242188 9.5 -2.453125 C 9.9375 -2.671875 10.242188 -2.925781 10.421875 -3.21875 C 10.585938 -3.09375 10.722656 -2.910156 10.828125 -2.671875 C 10.929688 -2.429688 10.984375 -2.210938 10.984375 -2.015625 C 10.984375 -1.691406 10.8125 -1.347656 10.46875 -0.984375 C 10.132812 -0.628906 9.648438 -0.328125 9.015625 -0.078125 C 8.378906 0.160156 7.648438 0.28125 6.828125 0.28125 C 5.660156 0.28125 4.597656 0.0078125 3.640625 -0.53125 C 2.679688 -1.070312 1.914062 -1.890625 1.34375 -2.984375 C 0.78125 -4.085938 0.5 -5.421875 0.5 -6.984375 C 0.5 -8.503906 0.753906 -9.796875 1.265625 -10.859375 C 1.785156 -11.921875 2.507812 -12.71875 3.4375 -13.25 C 4.375 -13.789062 5.460938 -14.0625 6.703125 -14.0625 C 6.992188 -14.0625 7.320312 -14.019531 7.6875 -13.9375 C 8.0625 -13.851562 8.390625 -13.75 8.671875 -13.625 C 8.867188 -13.71875 9.15625 -13.804688 9.53125 -13.890625 C 9.914062 -13.984375 10.210938 -14.039062 10.421875 -14.0625 C 10.804688 -13.125 11 -11.578125 11 -9.421875 Z M 8.765625 -9.421875 "/></g></g></g><g fill="#06d2dd" fill-opacity="1"><g transform="translate(18.528208, 47.796337)"><g><path d="M 11.59375 -3.046875 C 11.738281 -2.546875 11.925781 -2.171875 12.15625 -1.921875 C 12.394531 -1.679688 12.695312 -1.535156 13.0625 -1.484375 L 13.0625 -0.5 C 12.757812 -0.0703125 12.1875 0.140625 11.34375 0.140625 C 10.550781 0.140625 9.925781 0.0078125 9.46875 -0.25 C 9.007812 -0.519531 8.671875 -0.867188 8.453125 -1.296875 C 8.234375 -1.722656 8.035156 -2.289062 7.859375 -3 C 7.648438 -3.769531 7.429688 -4.410156 7.203125 -4.921875 C 6.984375 -5.441406 6.695312 -5.765625 6.34375 -5.890625 L 5.03125 -5.890625 L 5.03125 -2.265625 C 5.03125 -1.921875 5.15625 -1.664062 5.40625 -1.5 C 5.664062 -1.332031 6 -1.25 6.40625 -1.25 C 6.40625 -0.769531 6.257812 -0.351562 5.96875 0 L 0.984375 0 C 0.679688 -0.375 0.53125 -0.789062 0.53125 -1.25 C 0.976562 -1.25 1.304688 -1.328125 1.515625 -1.484375 C 1.722656 -1.640625 1.828125 -1.898438 1.828125 -2.265625 L 1.828125 -11.578125 C 1.828125 -11.929688 1.71875 -12.1875 1.5 -12.34375 C 1.289062 -12.507812 0.960938 -12.59375 0.515625 -12.59375 C 0.515625 -13.125 0.644531 -13.539062 0.90625 -13.84375 C 1.78125 -13.84375 2.757812 -13.867188 3.84375 -13.921875 C 4.800781 -13.972656 5.550781 -14 6.09375 -14 C 9.875 -14 11.765625 -12.722656 11.765625 -10.171875 C 11.765625 -8.222656 10.734375 -7.039062 8.671875 -6.625 C 9.265625 -6.445312 9.832031 -6.03125 10.375 -5.375 C 10.914062 -4.726562 11.320312 -3.953125 11.59375 -3.046875 Z M 5.90625 -7.25 C 6.695312 -7.25 7.316406 -7.5 7.765625 -8 C 8.222656 -8.5 8.453125 -9.15625 8.453125 -9.96875 C 8.453125 -10.820312 8.253906 -11.453125 7.859375 -11.859375 C 7.472656 -12.273438 6.859375 -12.484375 6.015625 -12.484375 C 5.554688 -12.484375 5.226562 -12.457031 5.03125 -12.40625 L 5.03125 -7.296875 C 5.269531 -7.265625 5.5625 -7.25 5.90625 -7.25 Z M 5.90625 -7.25 "/></g></g></g><g fill="#06d2dd" fill-opacity="1"><g transform="translate(32.959117, 47.796337)"><g><path d="M 11.875 -4.1875 C 11.875 -3.75 11.769531 -2.96875 11.5625 -1.84375 C 11.351562 -0.726562 11.160156 -0.0078125 10.984375 0.3125 C 10.773438 0.257812 10.5 0.15625 10.15625 0 L 0.96875 0 C 0.664062 -0.394531 0.515625 -0.8125 0.515625 -1.25 C 0.960938 -1.25 1.289062 -1.328125 1.5 -1.484375 C 1.71875 -1.640625 1.828125 -1.90625 1.828125 -2.28125 L 1.828125 -11.578125 C 1.828125 -11.929688 1.722656 -12.1875 1.515625 -12.34375 C 1.304688 -12.507812 0.976562 -12.59375 0.53125 -12.59375 C 0.53125 -13.03125 0.679688 -13.445312 0.984375 -13.84375 L 8.6875 -13.84375 C 8.90625 -13.945312 9.160156 -14.023438 9.453125 -14.078125 C 9.753906 -14.140625 10.035156 -14.171875 10.296875 -14.171875 C 10.492188 -13.796875 10.707031 -13.269531 10.9375 -12.59375 C 11.164062 -11.914062 11.28125 -11.425781 11.28125 -11.125 C 11.125 -10.976562 10.851562 -10.820312 10.46875 -10.65625 C 10.082031 -10.5 9.753906 -10.394531 9.484375 -10.34375 C 9.304688 -10.832031 9.03125 -11.253906 8.65625 -11.609375 C 8.289062 -11.972656 7.863281 -12.15625 7.375 -12.15625 L 5.140625 -12.15625 L 5.140625 -7.96875 L 6.5625 -7.96875 C 7.425781 -7.96875 7.859375 -8.453125 7.859375 -9.421875 C 8.453125 -9.421875 8.984375 -9.28125 9.453125 -9 L 9.453125 -5.3125 C 9.242188 -5.175781 9 -5.070312 8.71875 -5 C 8.445312 -4.925781 8.164062 -4.890625 7.875 -4.890625 C 7.875 -5.398438 7.753906 -5.78125 7.515625 -6.03125 C 7.273438 -6.28125 6.960938 -6.40625 6.578125 -6.40625 L 5.140625 -6.40625 L 5.140625 -1.75 L 7.53125 -1.75 C 8.09375 -1.75 8.578125 -1.984375 8.984375 -2.453125 C 9.390625 -2.921875 9.644531 -3.5 9.75 -4.1875 Z M 11.875 -4.1875 "/></g></g></g><g fill="#06d2dd" fill-opacity="1"><g transform="translate(46.63682, 47.796337)"><g><path d="M 11.9375 -2.625 C 12.070312 -2.195312 12.296875 -1.863281 12.609375 -1.625 C 12.929688 -1.382812 13.269531 -1.265625 13.625 -1.265625 C 13.625 -1.023438 13.582031 -0.789062 13.5 -0.5625 C 13.425781 -0.34375 13.316406 -0.15625 13.171875 0 L 7.796875 0 C 7.648438 -0.15625 7.535156 -0.34375 7.453125 -0.5625 C 7.378906 -0.789062 7.34375 -1.023438 7.34375 -1.265625 C 8.09375 -1.265625 8.46875 -1.582031 8.46875 -2.21875 C 8.46875 -2.488281 8.421875 -2.800781 8.328125 -3.15625 L 8.203125 -3.5625 L 3.765625 -3.5625 L 3.640625 -3.15625 C 3.523438 -2.738281 3.46875 -2.445312 3.46875 -2.28125 C 3.46875 -1.601562 3.890625 -1.265625 4.734375 -1.265625 C 4.734375 -1.023438 4.691406 -0.789062 4.609375 -0.5625 C 4.535156 -0.34375 4.425781 -0.15625 4.28125 0 L -0.140625 0 C -0.285156 -0.15625 -0.394531 -0.34375 -0.46875 -0.5625 C -0.550781 -0.789062 -0.59375 -1.023438 -0.59375 -1.265625 C -0.226562 -1.265625 0.101562 -1.375 0.40625 -1.59375 C 0.71875 -1.8125 0.945312 -2.132812 1.09375 -2.5625 L 4.34375 -12.15625 C 3.8125 -12.320312 3.144531 -12.40625 2.34375 -12.40625 C 2.34375 -12.976562 2.5 -13.457031 2.8125 -13.84375 L 8.25 -13.84375 Z M 7.765625 -5.109375 L 6.359375 -10.03125 C 6.242188 -10.425781 6.09375 -10.765625 5.90625 -11.046875 L 4.203125 -5.109375 Z M 7.765625 -5.109375 "/></g></g></g><g fill="#06d2dd" fill-opacity="1"><g transform="translate(60.254676, 47.796337)"><g><path d="M 11.8125 -14.078125 C 12.03125 -13.617188 12.195312 -12.78125 12.3125 -11.5625 C 12.425781 -10.34375 12.484375 -9.34375 12.484375 -8.5625 C 12.316406 -8.5 12.050781 -8.445312 11.6875 -8.40625 C 11.320312 -8.363281 10.992188 -8.34375 10.703125 -8.34375 C 10.628906 -9.40625 10.5 -10.21875 10.3125 -10.78125 C 10.132812 -11.351562 9.894531 -11.742188 9.59375 -11.953125 C 9.289062 -12.171875 8.894531 -12.28125 8.40625 -12.28125 L 8.0625 -12.28125 L 8.0625 -2.34375 C 8.0625 -1.96875 8.234375 -1.691406 8.578125 -1.515625 C 8.921875 -1.347656 9.453125 -1.265625 10.171875 -1.265625 C 10.171875 -1.023438 10.128906 -0.789062 10.046875 -0.5625 C 9.972656 -0.34375 9.863281 -0.15625 9.71875 0 L 2.96875 0 C 2.84375 -0.15625 2.738281 -0.34375 2.65625 -0.5625 C 2.570312 -0.789062 2.53125 -1.023438 2.53125 -1.265625 C 4.03125 -1.265625 4.78125 -1.625 4.78125 -2.34375 L 4.78125 -12.28125 L 4.34375 -12.28125 C 2.957031 -12.28125 2.15625 -10.96875 1.9375 -8.34375 C 1.019531 -8.382812 0.425781 -8.457031 0.15625 -8.5625 C 0.15625 -9.34375 0.210938 -10.34375 0.328125 -11.5625 C 0.453125 -12.78125 0.617188 -13.617188 0.828125 -14.078125 C 1.441406 -14.078125 1.984375 -14 2.453125 -13.84375 L 10.1875 -13.84375 C 10.6875 -14 11.226562 -14.078125 11.8125 -14.078125 Z M 11.8125 -14.078125 "/></g></g></g><g fill="#06d2dd" fill-opacity="1"><g transform="translate(73.991666, 47.796337)"><g><path d="M 6.625 0.25 C 5.351562 0.25 4.257812 -0.0390625 3.34375 -0.625 C 2.425781 -1.207031 1.722656 -2.039062 1.234375 -3.125 C 0.742188 -4.21875 0.5 -5.476562 0.5 -6.90625 C 0.5 -8.394531 0.75 -9.675781 1.25 -10.75 C 1.75 -11.832031 2.457031 -12.65625 3.375 -13.21875 C 4.300781 -13.789062 5.378906 -14.078125 6.609375 -14.078125 C 7.867188 -14.078125 8.960938 -13.78125 9.890625 -13.1875 C 10.816406 -12.59375 11.523438 -11.753906 12.015625 -10.671875 C 12.515625 -9.597656 12.765625 -8.34375 12.765625 -6.90625 C 12.765625 -5.414062 12.507812 -4.132812 12 -3.0625 C 11.5 -1.988281 10.785156 -1.164062 9.859375 -0.59375 C 8.929688 -0.03125 7.851562 0.25 6.625 0.25 Z M 6.625 -1.1875 C 7.351562 -1.1875 7.941406 -1.601562 8.390625 -2.4375 C 8.847656 -3.269531 9.078125 -4.785156 9.078125 -6.984375 C 9.078125 -9.066406 8.863281 -10.523438 8.4375 -11.359375 C 8.019531 -12.191406 7.425781 -12.609375 6.65625 -12.609375 C 5.9375 -12.609375 5.347656 -12.191406 4.890625 -11.359375 C 4.429688 -10.523438 4.203125 -9.019531 4.203125 -6.84375 C 4.203125 -4.75 4.414062 -3.28125 4.84375 -2.4375 C 5.28125 -1.601562 5.875 -1.1875 6.625 -1.1875 Z M 6.625 -1.1875 "/></g></g></g><g fill="#06d2dd" fill-opacity="1"><g transform="translate(88.739706, 47.796337)"><g><path d="M 11.59375 -3.046875 C 11.738281 -2.546875 11.925781 -2.171875 12.15625 -1.921875 C 12.394531 -1.679688 12.695312 -1.535156 13.0625 -1.484375 L 13.0625 -0.5 C 12.757812 -0.0703125 12.1875 0.140625 11.34375 0.140625 C 10.550781 0.140625 9.925781 0.0078125 9.46875 -0.25 C 9.007812 -0.519531 8.671875 -0.867188 8.453125 -1.296875 C 8.234375 -1.722656 8.035156 -2.289062 7.859375 -3 C 7.648438 -3.769531 7.429688 -4.410156 7.203125 -4.921875 C 6.984375 -5.441406 6.695312 -5.765625 6.34375 -5.890625 L 5.03125 -5.890625 L 5.03125 -2.265625 C 5.03125 -1.921875 5.15625 -1.664062 5.40625 -1.5 C 5.664062 -1.332031 6 -1.25 6.40625 -1.25 C 6.40625 -0.769531 6.257812 -0.351562 5.96875 0 L 0.984375 0 C 0.679688 -0.375 0.53125 -0.789062 0.53125 -1.25 C 0.976562 -1.25 1.304688 -1.328125 1.515625 -1.484375 C 1.722656 -1.640625 1.828125 -1.898438 1.828125 -2.265625 L 1.828125 -11.578125 C 1.828125 -11.929688 1.71875 -12.1875 1.5 -12.34375 C 1.289062 -12.507812 0.960938 -12.59375 0.515625 -12.59375 C 0.515625 -13.125 0.644531 -13.539062 0.90625 -13.84375 C 1.78125 -13.84375 2.757812 -13.867188 3.84375 -13.921875 C 4.800781 -13.972656 5.550781 -14 6.09375 -14 C 9.875 -14 11.765625 -12.722656 11.765625 -10.171875 C 11.765625 -8.222656 10.734375 -7.039062 8.671875 -6.625 C 9.265625 -6.445312 9.832031 -6.03125 10.375 -5.375 C 10.914062 -4.726562 11.320312 -3.953125 11.59375 -3.046875 Z M 5.90625 -7.25 C 6.695312 -7.25 7.316406 -7.5 7.765625 -8 C 8.222656 -8.5 8.453125 -9.15625 8.453125 -9.96875 C 8.453125 -10.820312 8.253906 -11.453125 7.859375 -11.859375 C 7.472656 -12.273438 6.859375 -12.484375 6.015625 -12.484375 C 5.554688 -12.484375 5.226562 -12.457031 5.03125 -12.40625 L 5.03125 -7.296875 C 5.269531 -7.265625 5.5625 -7.25 5.90625 -7.25 Z M 5.90625 -7.25 "/></g></g></g></g></g><g transform="matrix(1, 0, 0, 1, 84, 1)"><g clip-path="url(#f29ce7b9b6)"><g fill="#bc05bf" fill-opacity="1"><g transform="translate(39.015762, 20.484712)"><g><path d="M 8.765625 -9.421875 C 8.640625 -10.304688 8.394531 -11.007812 8.03125 -11.53125 C 7.675781 -12.0625 7.210938 -12.328125 6.640625 -12.328125 C 5.835938 -12.328125 5.195312 -11.945312 4.71875 -11.1875 C 4.238281 -10.425781 4 -9.253906 4 -7.671875 C 4 -5.753906 4.367188 -4.351562 5.109375 -3.46875 C 5.847656 -2.582031 6.804688 -2.140625 7.984375 -2.140625 C 8.554688 -2.140625 9.0625 -2.242188 9.5 -2.453125 C 9.9375 -2.671875 10.242188 -2.925781 10.421875 -3.21875 C 10.585938 -3.09375 10.722656 -2.910156 10.828125 -2.671875 C 10.929688 -2.429688 10.984375 -2.210938 10.984375 -2.015625 C 10.984375 -1.691406 10.8125 -1.347656 10.46875 -0.984375 C 10.132812 -0.628906 9.648438 -0.328125 9.015625 -0.078125 C 8.378906 0.160156 7.648438 0.28125 6.828125 0.28125 C 5.660156 0.28125 4.597656 0.0078125 3.640625 -0.53125 C 2.679688 -1.070312 1.914062 -1.890625 1.34375 -2.984375 C 0.78125 -4.085938 0.5 -5.421875 0.5 -6.984375 C 0.5 -8.503906 0.753906 -9.796875 1.265625 -10.859375 C 1.785156 -11.921875 2.507812 -12.71875 3.4375 -13.25 C 4.375 -13.789062 5.460938 -14.0625 6.703125 -14.0625 C 6.992188 -14.0625 7.320312 -14.019531 7.6875 -13.9375 C 8.0625 -13.851562 8.390625 -13.75 8.671875 -13.625 C 8.867188 -13.71875 9.15625 -13.804688 9.53125 -13.890625 C 9.914062 -13.984375 10.210938 -14.039062 10.421875 -14.0625 C 10.804688 -13.125 11 -11.578125 11 -9.421875 Z M 8.765625 -9.421875 "/></g></g></g><g fill="#bc05bf" fill-opacity="1"><g transform="translate(51.801516, 20.484712)"><g><path d="M 12.96875 -13.84375 C 13.175781 -13.507812 13.28125 -13.09375 13.28125 -12.59375 C 12.820312 -12.59375 12.457031 -12.519531 12.1875 -12.375 C 11.925781 -12.238281 11.738281 -12 11.625 -11.65625 L 8.25 -1.765625 C 8.007812 -1.078125 7.734375 -0.585938 7.421875 -0.296875 C 7.109375 -0.00390625 6.664062 0.140625 6.09375 0.140625 L 5.46875 0.140625 L 0.859375 -11.65625 C 0.722656 -12 0.53125 -12.238281 0.28125 -12.375 C 0.03125 -12.519531 -0.328125 -12.59375 -0.796875 -12.59375 C -0.796875 -13.0625 -0.6875 -13.476562 -0.46875 -13.84375 L 5.390625 -13.84375 C 5.628906 -13.414062 5.75 -13 5.75 -12.59375 C 5.375 -12.59375 5.082031 -12.507812 4.875 -12.34375 C 4.675781 -12.1875 4.578125 -11.972656 4.578125 -11.703125 C 4.578125 -11.617188 4.617188 -11.457031 4.703125 -11.21875 L 6.359375 -5.84375 L 6.953125 -3.671875 L 7.546875 -5.8125 L 9.140625 -11.28125 C 9.191406 -11.488281 9.21875 -11.628906 9.21875 -11.703125 C 9.21875 -11.972656 9.117188 -12.1875 8.921875 -12.34375 C 8.722656 -12.507812 8.429688 -12.59375 8.046875 -12.59375 C 8.046875 -12.851562 8.066406 -13.078125 8.109375 -13.265625 C 8.160156 -13.460938 8.25 -13.65625 8.375 -13.84375 Z M 12.96875 -13.84375 "/></g></g></g><g fill="#bc05bf" fill-opacity="1"><g transform="translate(1.046763, 47.796337)"><g/></g></g><g fill="#bc05bf" fill-opacity="1"><g transform="translate(6.302454, 47.796337)"><g><path d="M 8.765625 -9.421875 C 8.640625 -10.304688 8.394531 -11.007812 8.03125 -11.53125 C 7.675781 -12.0625 7.210938 -12.328125 6.640625 -12.328125 C 5.835938 -12.328125 5.195312 -11.945312 4.71875 -11.1875 C 4.238281 -10.425781 4 -9.253906 4 -7.671875 C 4 -5.753906 4.367188 -4.351562 5.109375 -3.46875 C 5.847656 -2.582031 6.804688 -2.140625 7.984375 -2.140625 C 8.554688 -2.140625 9.0625 -2.242188 9.5 -2.453125 C 9.9375 -2.671875 10.242188 -2.925781 10.421875 -3.21875 C 10.585938 -3.09375 10.722656 -2.910156 10.828125 -2.671875 C 10.929688 -2.429688 10.984375 -2.210938 10.984375 -2.015625 C 10.984375 -1.691406 10.8125 -1.347656 10.46875 -0.984375 C 10.132812 -0.628906 9.648438 -0.328125 9.015625 -0.078125 C 8.378906 0.160156 7.648438 0.28125 6.828125 0.28125 C 5.660156 0.28125 4.597656 0.0078125 3.640625 -0.53125 C 2.679688 -1.070312 1.914062 -1.890625 1.34375 -2.984375 C 0.78125 -4.085938 0.5 -5.421875 0.5 -6.984375 C 0.5 -8.503906 0.753906 -9.796875 1.265625 -10.859375 C 1.785156 -11.921875 2.507812 -12.71875 3.4375 -13.25 C 4.375 -13.789062 5.460938 -14.0625 6.703125 -14.0625 C 6.992188 -14.0625 7.320312 -14.019531 7.6875 -13.9375 C 8.0625 -13.851562 8.390625 -13.75 8.671875 -13.625 C 8.867188 -13.71875 9.15625 -13.804688 9.53125 -13.890625 C 9.914062 -13.984375 10.210938 -14.039062 10.421875 -14.0625 C 10.804688 -13.125 11 -11.578125 11 -9.421875 Z M 8.765625 -9.421875 "/></g></g></g><g fill="#bc05bf" fill-opacity="1"><g transform="translate(19.088208, 47.796337)"><g><path d="M 11.59375 -3.046875 C 11.738281 -2.546875 11.925781 -2.171875 12.15625 -1.921875 C 12.394531 -1.679688 12.695312 -1.535156 13.0625 -1.484375 L 13.0625 -0.5 C 12.757812 -0.0703125 12.1875 0.140625 11.34375 0.140625 C 10.550781 0.140625 9.925781 0.0078125 9.46875 -0.25 C 9.007812 -0.519531 8.671875 -0.867188 8.453125 -1.296875 C 8.234375 -1.722656 8.035156 -2.289062 7.859375 -3 C 7.648438 -3.769531 7.429688 -4.410156 7.203125 -4.921875 C 6.984375 -5.441406 6.695312 -5.765625 6.34375 -5.890625 L 5.03125 -5.890625 L 5.03125 -2.265625 C 5.03125 -1.921875 5.15625 -1.664062 5.40625 -1.5 C 5.664062 -1.332031 6 -1.25 6.40625 -1.25 C 6.40625 -0.769531 6.257812 -0.351562 5.96875 0 L 0.984375 0 C 0.679688 -0.375 0.53125 -0.789062 0.53125 -1.25 C 0.976562 -1.25 1.304688 -1.328125 1.515625 -1.484375 C 1.722656 -1.640625 1.828125 -1.898438 1.828125 -2.265625 L 1.828125 -11.578125 C 1.828125 -11.929688 1.71875 -12.1875 1.5 -12.34375 C 1.289062 -12.507812 0.960938 -12.59375 0.515625 -12.59375 C 0.515625 -13.125 0.644531 -13.539062 0.90625 -13.84375 C 1.78125 -13.84375 2.757812 -13.867188 3.84375 -13.921875 C 4.800781 -13.972656 5.550781 -14 6.09375 -14 C 9.875 -14 11.765625 -12.722656 11.765625 -10.171875 C 11.765625 -8.222656 10.734375 -7.039062 8.671875 -6.625 C 9.265625 -6.445312 9.832031 -6.03125 10.375 -5.375 C 10.914062 -4.726562 11.320312 -3.953125 11.59375 -3.046875 Z M 5.90625 -7.25 C 6.695312 -7.25 7.316406 -7.5 7.765625 -8 C 8.222656 -8.5 8.453125 -9.15625 8.453125 -9.96875 C 8.453125 -10.820312 8.253906 -11.453125 7.859375 -11.859375 C 7.472656 -12.273438 6.859375 -12.484375 6.015625 -12.484375 C 5.554688 -12.484375 5.226562 -12.457031 5.03125 -12.40625 L 5.03125 -7.296875 C 5.269531 -7.265625 5.5625 -7.25 5.90625 -7.25 Z M 5.90625 -7.25 "/></g></g></g><g fill="#bc05bf" fill-opacity="1"><g transform="translate(33.519117, 47.796337)"><g><path d="M 11.875 -4.1875 C 11.875 -3.75 11.769531 -2.96875 11.5625 -1.84375 C 11.351562 -0.726562 11.160156 -0.0078125 10.984375 0.3125 C 10.773438 0.257812 10.5 0.15625 10.15625 0 L 0.96875 0 C 0.664062 -0.394531 0.515625 -0.8125 0.515625 -1.25 C 0.960938 -1.25 1.289062 -1.328125 1.5 -1.484375 C 1.71875 -1.640625 1.828125 -1.90625 1.828125 -2.28125 L 1.828125 -11.578125 C 1.828125 -11.929688 1.722656 -12.1875 1.515625 -12.34375 C 1.304688 -12.507812 0.976562 -12.59375 0.53125 -12.59375 C 0.53125 -13.03125 0.679688 -13.445312 0.984375 -13.84375 L 8.6875 -13.84375 C 8.90625 -13.945312 9.160156 -14.023438 9.453125 -14.078125 C 9.753906 -14.140625 10.035156 -14.171875 10.296875 -14.171875 C 10.492188 -13.796875 10.707031 -13.269531 10.9375 -12.59375 C 11.164062 -11.914062 11.28125 -11.425781 11.28125 -11.125 C 11.125 -10.976562 10.851562 -10.820312 10.46875 -10.65625 C 10.082031 -10.5 9.753906 -10.394531 9.484375 -10.34375 C 9.304688 -10.832031 9.03125 -11.253906 8.65625 -11.609375 C 8.289062 -11.972656 7.863281 -12.15625 7.375 -12.15625 L 5.140625 -12.15625 L 5.140625 -7.96875 L 6.5625 -7.96875 C 7.425781 -7.96875 7.859375 -8.453125 7.859375 -9.421875 C 8.453125 -9.421875 8.984375 -9.28125 9.453125 -9 L 9.453125 -5.3125 C 9.242188 -5.175781 9 -5.070312 8.71875 -5 C 8.445312 -4.925781 8.164062 -4.890625 7.875 -4.890625 C 7.875 -5.398438 7.753906 -5.78125 7.515625 -6.03125 C 7.273438 -6.28125 6.960938 -6.40625 6.578125 -6.40625 L 5.140625 -6.40625 L 5.140625 -1.75 L 7.53125 -1.75 C 8.09375 -1.75 8.578125 -1.984375 8.984375 -2.453125 C 9.390625 -2.921875 9.644531 -3.5 9.75 -4.1875 Z M 11.875 -4.1875 "/></g></g></g><g fill="#bc05bf" fill-opacity="1"><g transform="translate(47.19682, 47.796337)"><g><path d="M 11.9375 -2.625 C 12.070312 -2.195312 12.296875 -1.863281 12.609375 -1.625 C 12.929688 -1.382812 13.269531 -1.265625 13.625 -1.265625 C 13.625 -1.023438 13.582031 -0.789062 13.5 -0.5625 C 13.425781 -0.34375 13.316406 -0.15625 13.171875 0 L 7.796875 0 C 7.648438 -0.15625 7.535156 -0.34375 7.453125 -0.5625 C 7.378906 -0.789062 7.34375 -1.023438 7.34375 -1.265625 C 8.09375 -1.265625 8.46875 -1.582031 8.46875 -2.21875 C 8.46875 -2.488281 8.421875 -2.800781 8.328125 -3.15625 L 8.203125 -3.5625 L 3.765625 -3.5625 L 3.640625 -3.15625 C 3.523438 -2.738281 3.46875 -2.445312 3.46875 -2.28125 C 3.46875 -1.601562 3.890625 -1.265625 4.734375 -1.265625 C 4.734375 -1.023438 4.691406 -0.789062 4.609375 -0.5625 C 4.535156 -0.34375 4.425781 -0.15625 4.28125 0 L -0.140625 0 C -0.285156 -0.15625 -0.394531 -0.34375 -0.46875 -0.5625 C -0.550781 -0.789062 -0.59375 -1.023438 -0.59375 -1.265625 C -0.226562 -1.265625 0.101562 -1.375 0.40625 -1.59375 C 0.71875 -1.8125 0.945312 -2.132812 1.09375 -2.5625 L 4.34375 -12.15625 C 3.8125 -12.320312 3.144531 -12.40625 2.34375 -12.40625 C 2.34375 -12.976562 2.5 -13.457031 2.8125 -13.84375 L 8.25 -13.84375 Z M 7.765625 -5.109375 L 6.359375 -10.03125 C 6.242188 -10.425781 6.09375 -10.765625 5.90625 -11.046875 L 4.203125 -5.109375 Z M 7.765625 -5.109375 "/></g></g></g><g fill="#bc05bf" fill-opacity="1"><g transform="translate(60.814676, 47.796337)"><g><path d="M 11.8125 -14.078125 C 12.03125 -13.617188 12.195312 -12.78125 12.3125 -11.5625 C 12.425781 -10.34375 12.484375 -9.34375 12.484375 -8.5625 C 12.316406 -8.5 12.050781 -8.445312 11.6875 -8.40625 C 11.320312 -8.363281 10.992188 -8.34375 10.703125 -8.34375 C 10.628906 -9.40625 10.5 -10.21875 10.3125 -10.78125 C 10.132812 -11.351562 9.894531 -11.742188 9.59375 -11.953125 C 9.289062 -12.171875 8.894531 -12.28125 8.40625 -12.28125 L 8.0625 -12.28125 L 8.0625 -2.34375 C 8.0625 -1.96875 8.234375 -1.691406 8.578125 -1.515625 C 8.921875 -1.347656 9.453125 -1.265625 10.171875 -1.265625 C 10.171875 -1.023438 10.128906 -0.789062 10.046875 -0.5625 C 9.972656 -0.34375 9.863281 -0.15625 9.71875 0 L 2.96875 0 C 2.84375 -0.15625 2.738281 -0.34375 2.65625 -0.5625 C 2.570312 -0.789062 2.53125 -1.023438 2.53125 -1.265625 C 4.03125 -1.265625 4.78125 -1.625 4.78125 -2.34375 L 4.78125 -12.28125 L 4.34375 -12.28125 C 2.957031 -12.28125 2.15625 -10.96875 1.9375 -8.34375 C 1.019531 -8.382812 0.425781 -8.457031 0.15625 -8.5625 C 0.15625 -9.34375 0.210938 -10.34375 0.328125 -11.5625 C 0.453125 -12.78125 0.617188 -13.617188 0.828125 -14.078125 C 1.441406 -14.078125 1.984375 -14 2.453125 -13.84375 L 10.1875 -13.84375 C 10.6875 -14 11.226562 -14.078125 11.8125 -14.078125 Z M 11.8125 -14.078125 "/></g></g></g><g fill="#bc05bf" fill-opacity="1"><g transform="translate(74.551666, 47.796337)"><g><path d="M 6.625 0.25 C 5.351562 0.25 4.257812 -0.0390625 3.34375 -0.625 C 2.425781 -1.207031 1.722656 -2.039062 1.234375 -3.125 C 0.742188 -4.21875 0.5 -5.476562 0.5 -6.90625 C 0.5 -8.394531 0.75 -9.675781 1.25 -10.75 C 1.75 -11.832031 2.457031 -12.65625 3.375 -13.21875 C 4.300781 -13.789062 5.378906 -14.078125 6.609375 -14.078125 C 7.867188 -14.078125 8.960938 -13.78125 9.890625 -13.1875 C 10.816406 -12.59375 11.523438 -11.753906 12.015625 -10.671875 C 12.515625 -9.597656 12.765625 -8.34375 12.765625 -6.90625 C 12.765625 -5.414062 12.507812 -4.132812 12 -3.0625 C 11.5 -1.988281 10.785156 -1.164062 9.859375 -0.59375 C 8.929688 -0.03125 7.851562 0.25 6.625 0.25 Z M 6.625 -1.1875 C 7.351562 -1.1875 7.941406 -1.601562 8.390625 -2.4375 C 8.847656 -3.269531 9.078125 -4.785156 9.078125 -6.984375 C 9.078125 -9.066406 8.863281 -10.523438 8.4375 -11.359375 C 8.019531 -12.191406 7.425781 -12.609375 6.65625 -12.609375 C 5.9375 -12.609375 5.347656 -12.191406 4.890625 -11.359375 C 4.429688 -10.523438 4.203125 -9.019531 4.203125 -6.84375 C 4.203125 -4.75 4.414062 -3.28125 4.84375 -2.4375 C 5.28125 -1.601562 5.875 -1.1875 6.625 -1.1875 Z M 6.625 -1.1875 "/></g></g></g><g fill="#bc05bf" fill-opacity="1"><g transform="translate(89.299706, 47.796337)"><g><path d="M 11.59375 -3.046875 C 11.738281 -2.546875 11.925781 -2.171875 12.15625 -1.921875 C 12.394531 -1.679688 12.695312 -1.535156 13.0625 -1.484375 L 13.0625 -0.5 C 12.757812 -0.0703125 12.1875 0.140625 11.34375 0.140625 C 10.550781 0.140625 9.925781 0.0078125 9.46875 -0.25 C 9.007812 -0.519531 8.671875 -0.867188 8.453125 -1.296875 C 8.234375 -1.722656 8.035156 -2.289062 7.859375 -3 C 7.648438 -3.769531 7.429688 -4.410156 7.203125 -4.921875 C 6.984375 -5.441406 6.695312 -5.765625 6.34375 -5.890625 L 5.03125 -5.890625 L 5.03125 -2.265625 C 5.03125 -1.921875 5.15625 -1.664062 5.40625 -1.5 C 5.664062 -1.332031 6 -1.25 6.40625 -1.25 C 6.40625 -0.769531 6.257812 -0.351562 5.96875 0 L 0.984375 0 C 0.679688 -0.375 0.53125 -0.789062 0.53125 -1.25 C 0.976562 -1.25 1.304688 -1.328125 1.515625 -1.484375 C 1.722656 -1.640625 1.828125 -1.898438 1.828125 -2.265625 L 1.828125 -11.578125 C 1.828125 -11.929688 1.71875 -12.1875 1.5 -12.34375 C 1.289062 -12.507812 0.960938 -12.59375 0.515625 -12.59375 C 0.515625 -13.125 0.644531 -13.539062 0.90625 -13.84375 C 1.78125 -13.84375 2.757812 -13.867188 3.84375 -13.921875 C 4.800781 -13.972656 5.550781 -14 6.09375 -14 C 9.875 -14 11.765625 -12.722656 11.765625 -10.171875 C 11.765625 -8.222656 10.734375 -7.039062 8.671875 -6.625 C 9.265625 -6.445312 9.832031 -6.03125 10.375 -5.375 C 10.914062 -4.726562 11.320312 -3.953125 11.59375 -3.046875 Z M 5.90625 -7.25 C 6.695312 -7.25 7.316406 -7.5 7.765625 -8 C 8.222656 -8.5 8.453125 -9.15625 8.453125 -9.96875 C 8.453125 -10.820312 8.253906 -11.453125 7.859375 -11.859375 C 7.472656 -12.273438 6.859375 -12.484375 6.015625 -12.484375 C 5.554688 -12.484375 5.226562 -12.457031 5.03125 -12.40625 L 5.03125 -7.296875 C 5.269531 -7.265625 5.5625 -7.25 5.90625 -7.25 Z M 5.90625 -7.25 "/></g></g></g></g></g><g clip-path="url(#c77b460aaa)"><g clip-path="url(#08f1978b25)"><path fill="url(#6bb8afa32d)" d="M 48.578125 3.351562 L 48.578125 54.339844 L 86.078125 54.339844 L 86.078125 3.351562 Z M 48.578125 3.351562 " fill-rule="nonzero"/></g></g></svg>