<svg xmlns="http://www.w3.org/2000/svg" xmlns:xlink="http://www.w3.org/1999/xlink" width="288" zoomAndPan="magnify" viewBox="0 0 216 60" height="80" preserveAspectRatio="xMidYMid meet" version="1.0"><defs><g/><clipPath id="7c5125e3f5"><path d="M 6 6 L 56.25 6 L 56.25 56.25 L 6 56.25 Z M 6 6 " clip-rule="nonzero"/></clipPath></defs><g fill="#352cab" fill-opacity="1"><g transform="translate(63.571982, 24.154044)"><g><path d="M 6.234375 -11.1875 C 7.242188 -11.1875 8.117188 -11.019531 8.859375 -10.6875 C 9.609375 -10.351562 10.1875 -9.875 10.59375 -9.25 C 11 -8.625 11.203125 -7.890625 11.203125 -7.046875 C 11.203125 -6.203125 11 -5.472656 10.59375 -4.859375 C 10.1875 -4.242188 9.609375 -3.765625 8.859375 -3.421875 C 8.117188 -3.085938 7.242188 -2.921875 6.234375 -2.921875 L 4.28125 -2.921875 L 4.28125 0 L 1.125 0 L 1.125 -11.1875 Z M 6.046875 -5.421875 C 6.691406 -5.421875 7.179688 -5.5625 7.515625 -5.84375 C 7.847656 -6.125 8.015625 -6.523438 8.015625 -7.046875 C 8.015625 -7.566406 7.847656 -7.972656 7.515625 -8.265625 C 7.179688 -8.554688 6.691406 -8.703125 6.046875 -8.703125 L 4.28125 -8.703125 L 4.28125 -5.421875 Z M 6.046875 -5.421875 "/></g></g></g><g fill="#352cab" fill-opacity="1"><g transform="translate(75.503741, 24.154044)"><g><path d="M 1.125 -11.1875 L 6.40625 -11.1875 C 7.632812 -11.1875 8.722656 -10.957031 9.671875 -10.5 C 10.617188 -10.039062 11.351562 -9.390625 11.875 -8.546875 C 12.394531 -7.703125 12.65625 -6.71875 12.65625 -5.59375 C 12.65625 -4.46875 12.394531 -3.484375 11.875 -2.640625 C 11.351562 -1.796875 10.617188 -1.144531 9.671875 -0.6875 C 8.722656 -0.226562 7.632812 0 6.40625 0 L 1.125 0 Z M 6.28125 -2.53125 C 7.238281 -2.53125 8.007812 -2.800781 8.59375 -3.34375 C 9.175781 -3.882812 9.46875 -4.632812 9.46875 -5.59375 C 9.46875 -6.550781 9.175781 -7.300781 8.59375 -7.84375 C 8.007812 -8.382812 7.238281 -8.65625 6.28125 -8.65625 L 4.28125 -8.65625 L 4.28125 -2.53125 Z M 6.28125 -2.53125 "/></g></g></g><g fill="#352cab" fill-opacity="1"><g transform="translate(88.857072, 24.154044)"><g><path d="M 4.28125 -8.75 L 4.28125 -6.28125 L 9.21875 -6.28125 L 9.21875 -3.84375 L 4.28125 -3.84375 L 4.28125 0 L 1.125 0 L 1.125 -11.1875 L 9.890625 -11.1875 L 9.890625 -8.75 Z M 4.28125 -8.75 "/></g></g></g><g fill="#352cab" fill-opacity="1"><g transform="translate(99.271413, 24.154044)"><g/></g></g><g fill="#352cab" fill-opacity="1"><g transform="translate(104.079327, 24.154044)"><g><path d="M 10.109375 -2.453125 L 10.109375 0 L 1.125 0 L 1.125 -11.1875 L 9.890625 -11.1875 L 9.890625 -8.75 L 4.25 -8.75 L 4.25 -6.859375 L 9.21875 -6.859375 L 9.21875 -4.484375 L 4.25 -4.484375 L 4.25 -2.453125 Z M 10.109375 -2.453125 "/></g></g></g><g fill="#352cab" fill-opacity="1"><g transform="translate(114.972855, 24.154044)"><g><path d="M 1.125 -11.1875 L 6.40625 -11.1875 C 7.632812 -11.1875 8.722656 -10.957031 9.671875 -10.5 C 10.617188 -10.039062 11.351562 -9.390625 11.875 -8.546875 C 12.394531 -7.703125 12.65625 -6.71875 12.65625 -5.59375 C 12.65625 -4.46875 12.394531 -3.484375 11.875 -2.640625 C 11.351562 -1.796875 10.617188 -1.144531 9.671875 -0.6875 C 8.722656 -0.226562 7.632812 0 6.40625 0 L 1.125 0 Z M 6.28125 -2.53125 C 7.238281 -2.53125 8.007812 -2.800781 8.59375 -3.34375 C 9.175781 -3.882812 9.46875 -4.632812 9.46875 -5.59375 C 9.46875 -6.550781 9.175781 -7.300781 8.59375 -7.84375 C 8.007812 -8.382812 7.238281 -8.65625 6.28125 -8.65625 L 4.28125 -8.65625 L 4.28125 -2.53125 Z M 6.28125 -2.53125 "/></g></g></g><g fill="#352cab" fill-opacity="1"><g transform="translate(128.326187, 24.154044)"><g><path d="M 1.125 -11.1875 L 4.28125 -11.1875 L 4.28125 0 L 1.125 0 Z M 2.703125 -12.0625 C 2.234375 -12.0625 1.851562 -12.210938 1.5625 -12.515625 C 1.269531 -12.816406 1.125 -13.195312 1.125 -13.65625 C 1.125 -14.113281 1.269531 -14.488281 1.5625 -14.78125 C 1.863281 -15.070312 2.242188 -15.21875 2.703125 -15.21875 C 3.160156 -15.21875 3.535156 -15.070312 3.828125 -14.78125 C 4.128906 -14.488281 4.28125 -14.113281 4.28125 -13.65625 C 4.28125 -13.195312 4.128906 -12.816406 3.828125 -12.515625 C 3.535156 -12.210938 3.160156 -12.0625 2.703125 -12.0625 Z M 2.703125 -12.0625 "/></g></g></g><g fill="#352cab" fill-opacity="1"><g transform="translate(133.900798, 24.154044)"><g><path d="M 3.5 -8.671875 L 0.0625 -8.671875 L 0.0625 -11.1875 L 10.09375 -11.1875 L 10.09375 -8.671875 L 6.671875 -8.671875 L 6.671875 0 L 3.5 0 Z M 3.5 -8.671875 "/></g></g></g><g fill="#352cab" fill-opacity="1"><g transform="translate(144.20333, 24.154044)"><g><path d="M 6.765625 0.21875 C 5.578125 0.21875 4.507812 -0.03125 3.5625 -0.53125 C 2.625 -1.03125 1.882812 -1.722656 1.34375 -2.609375 C 0.8125 -3.492188 0.546875 -4.488281 0.546875 -5.59375 C 0.546875 -6.695312 0.8125 -7.691406 1.34375 -8.578125 C 1.882812 -9.460938 2.625 -10.15625 3.5625 -10.65625 C 4.507812 -11.15625 5.578125 -11.40625 6.765625 -11.40625 C 7.941406 -11.40625 9 -11.15625 9.9375 -10.65625 C 10.882812 -10.15625 11.628906 -9.460938 12.171875 -8.578125 C 12.710938 -7.691406 12.984375 -6.695312 12.984375 -5.59375 C 12.984375 -4.488281 12.710938 -3.492188 12.171875 -2.609375 C 11.628906 -1.722656 10.882812 -1.03125 9.9375 -0.53125 C 9 -0.03125 7.941406 0.21875 6.765625 0.21875 Z M 6.765625 -2.390625 C 7.328125 -2.390625 7.835938 -2.523438 8.296875 -2.796875 C 8.753906 -3.066406 9.113281 -3.441406 9.375 -3.921875 C 9.644531 -4.410156 9.78125 -4.96875 9.78125 -5.59375 C 9.78125 -6.21875 9.644531 -6.769531 9.375 -7.25 C 9.113281 -7.738281 8.753906 -8.117188 8.296875 -8.390625 C 7.835938 -8.660156 7.328125 -8.796875 6.765625 -8.796875 C 6.203125 -8.796875 5.691406 -8.660156 5.234375 -8.390625 C 4.773438 -8.117188 4.410156 -7.738281 4.140625 -7.25 C 3.867188 -6.769531 3.734375 -6.21875 3.734375 -5.59375 C 3.734375 -4.96875 3.867188 -4.410156 4.140625 -3.921875 C 4.410156 -3.441406 4.773438 -3.066406 5.234375 -2.796875 C 5.691406 -2.523438 6.203125 -2.390625 6.765625 -2.390625 Z M 6.765625 -2.390625 "/></g></g></g><g fill="#352cab" fill-opacity="1"><g transform="translate(157.876112, 24.154044)"><g><path d="M 6.015625 -2.96875 L 4.28125 -2.96875 L 4.28125 0 L 1.125 0 L 1.125 -11.1875 L 6.234375 -11.1875 C 7.242188 -11.1875 8.117188 -11.019531 8.859375 -10.6875 C 9.609375 -10.351562 10.1875 -9.875 10.59375 -9.25 C 11 -8.625 11.203125 -7.890625 11.203125 -7.046875 C 11.203125 -6.234375 11.007812 -5.523438 10.625 -4.921875 C 10.25 -4.328125 9.710938 -3.859375 9.015625 -3.515625 L 11.421875 0 L 8.046875 0 Z M 8.015625 -7.046875 C 8.015625 -7.566406 7.847656 -7.972656 7.515625 -8.265625 C 7.179688 -8.554688 6.691406 -8.703125 6.046875 -8.703125 L 4.28125 -8.703125 L 4.28125 -5.421875 L 6.046875 -5.421875 C 6.691406 -5.421875 7.179688 -5.5625 7.515625 -5.84375 C 7.847656 -6.125 8.015625 -6.523438 8.015625 -7.046875 Z M 8.015625 -7.046875 "/></g></g></g><g fill="#352cab" fill-opacity="1"><g transform="translate(63.571982, 39.904043)"><g><path d="M 6.703125 0.21875 C 5.523438 0.21875 4.46875 -0.0234375 3.53125 -0.515625 C 2.601562 -1.015625 1.875 -1.707031 1.34375 -2.59375 C 0.8125 -3.476562 0.546875 -4.476562 0.546875 -5.59375 C 0.546875 -6.707031 0.8125 -7.707031 1.34375 -8.59375 C 1.875 -9.476562 2.601562 -10.164062 3.53125 -10.65625 C 4.46875 -11.15625 5.523438 -11.40625 6.703125 -11.40625 C 7.722656 -11.40625 8.640625 -11.222656 9.453125 -10.859375 C 10.273438 -10.503906 10.960938 -9.984375 11.515625 -9.296875 L 9.5 -7.484375 C 8.769531 -8.359375 7.890625 -8.796875 6.859375 -8.796875 C 6.253906 -8.796875 5.710938 -8.660156 5.234375 -8.390625 C 4.765625 -8.117188 4.394531 -7.738281 4.125 -7.25 C 3.863281 -6.769531 3.734375 -6.21875 3.734375 -5.59375 C 3.734375 -4.96875 3.863281 -4.410156 4.125 -3.921875 C 4.394531 -3.441406 4.765625 -3.066406 5.234375 -2.796875 C 5.710938 -2.523438 6.253906 -2.390625 6.859375 -2.390625 C 7.890625 -2.390625 8.769531 -2.828125 9.5 -3.703125 L 11.515625 -1.890625 C 10.960938 -1.203125 10.273438 -0.675781 9.453125 -0.3125 C 8.640625 0.0390625 7.722656 0.21875 6.703125 0.21875 Z M 6.703125 0.21875 "/></g></g></g><g fill="#352cab" fill-opacity="1"><g transform="translate(75.519705, 39.904043)"><g><path d="M 6.765625 0.21875 C 5.578125 0.21875 4.507812 -0.03125 3.5625 -0.53125 C 2.625 -1.03125 1.882812 -1.722656 1.34375 -2.609375 C 0.8125 -3.492188 0.546875 -4.488281 0.546875 -5.59375 C 0.546875 -6.695312 0.8125 -7.691406 1.34375 -8.578125 C 1.882812 -9.460938 2.625 -10.15625 3.5625 -10.65625 C 4.507812 -11.15625 5.578125 -11.40625 6.765625 -11.40625 C 7.941406 -11.40625 9 -11.15625 9.9375 -10.65625 C 10.882812 -10.15625 11.628906 -9.460938 12.171875 -8.578125 C 12.710938 -7.691406 12.984375 -6.695312 12.984375 -5.59375 C 12.984375 -4.488281 12.710938 -3.492188 12.171875 -2.609375 C 11.628906 -1.722656 10.882812 -1.03125 9.9375 -0.53125 C 9 -0.03125 7.941406 0.21875 6.765625 0.21875 Z M 6.765625 -2.390625 C 7.328125 -2.390625 7.835938 -2.523438 8.296875 -2.796875 C 8.753906 -3.066406 9.113281 -3.441406 9.375 -3.921875 C 9.644531 -4.410156 9.78125 -4.96875 9.78125 -5.59375 C 9.78125 -6.21875 9.644531 -6.769531 9.375 -7.25 C 9.113281 -7.738281 8.753906 -8.117188 8.296875 -8.390625 C 7.835938 -8.660156 7.328125 -8.796875 6.765625 -8.796875 C 6.203125 -8.796875 5.691406 -8.660156 5.234375 -8.390625 C 4.773438 -8.117188 4.410156 -7.738281 4.140625 -7.25 C 3.867188 -6.769531 3.734375 -6.21875 3.734375 -5.59375 C 3.734375 -4.96875 3.867188 -4.410156 4.140625 -3.921875 C 4.410156 -3.441406 4.773438 -3.066406 5.234375 -2.796875 C 5.691406 -2.523438 6.203125 -2.390625 6.765625 -2.390625 Z M 6.765625 -2.390625 "/></g></g></g><g fill="#352cab" fill-opacity="1"><g transform="translate(89.192487, 39.904043)"><g><path d="M 11.765625 -11.1875 L 11.765625 0 L 9.15625 0 L 4.21875 -5.96875 L 4.21875 0 L 1.125 0 L 1.125 -11.1875 L 3.71875 -11.1875 L 8.65625 -5.234375 L 8.65625 -11.1875 Z M 11.765625 -11.1875 "/></g></g></g><g fill="#352cab" fill-opacity="1"><g transform="translate(102.226357, 39.904043)"><g><path d="M 12.46875 -11.1875 L 7.671875 0 L 4.5625 0 L -0.21875 -11.1875 L 3.203125 -11.1875 L 6.234375 -3.90625 L 9.328125 -11.1875 Z M 12.46875 -11.1875 "/></g></g></g><g fill="#352cab" fill-opacity="1"><g transform="translate(114.621327, 39.904043)"><g><path d="M 10.109375 -2.453125 L 10.109375 0 L 1.125 0 L 1.125 -11.1875 L 9.890625 -11.1875 L 9.890625 -8.75 L 4.25 -8.75 L 4.25 -6.859375 L 9.21875 -6.859375 L 9.21875 -4.484375 L 4.25 -4.484375 L 4.25 -2.453125 Z M 10.109375 -2.453125 "/></g></g></g><g fill="#352cab" fill-opacity="1"><g transform="translate(125.514854, 39.904043)"><g><path d="M 6.015625 -2.96875 L 4.28125 -2.96875 L 4.28125 0 L 1.125 0 L 1.125 -11.1875 L 6.234375 -11.1875 C 7.242188 -11.1875 8.117188 -11.019531 8.859375 -10.6875 C 9.609375 -10.351562 10.1875 -9.875 10.59375 -9.25 C 11 -8.625 11.203125 -7.890625 11.203125 -7.046875 C 11.203125 -6.234375 11.007812 -5.523438 10.625 -4.921875 C 10.25 -4.328125 9.710938 -3.859375 9.015625 -3.515625 L 11.421875 0 L 8.046875 0 Z M 8.015625 -7.046875 C 8.015625 -7.566406 7.847656 -7.972656 7.515625 -8.265625 C 7.179688 -8.554688 6.691406 -8.703125 6.046875 -8.703125 L 4.28125 -8.703125 L 4.28125 -5.421875 L 6.046875 -5.421875 C 6.691406 -5.421875 7.179688 -5.5625 7.515625 -5.84375 C 7.847656 -6.125 8.015625 -6.523438 8.015625 -7.046875 Z M 8.015625 -7.046875 "/></g></g></g><g fill="#352cab" fill-opacity="1"><g transform="translate(137.494529, 39.904043)"><g><path d="M 3.5 -8.671875 L 0.0625 -8.671875 L 0.0625 -11.1875 L 10.09375 -11.1875 L 10.09375 -8.671875 L 6.671875 -8.671875 L 6.671875 0 L 3.5 0 Z M 3.5 -8.671875 "/></g></g></g><g fill="#352cab" fill-opacity="1"><g transform="translate(147.797061, 39.904043)"><g><path d="M 10.109375 -2.453125 L 10.109375 0 L 1.125 0 L 1.125 -11.1875 L 9.890625 -11.1875 L 9.890625 -8.75 L 4.25 -8.75 L 4.25 -6.859375 L 9.21875 -6.859375 L 9.21875 -4.484375 L 4.25 -4.484375 L 4.25 -2.453125 Z M 10.109375 -2.453125 "/></g></g></g><g fill="#352cab" fill-opacity="1"><g transform="translate(158.690588, 39.904043)"><g><path d="M 6.015625 -2.96875 L 4.28125 -2.96875 L 4.28125 0 L 1.125 0 L 1.125 -11.1875 L 6.234375 -11.1875 C 7.242188 -11.1875 8.117188 -11.019531 8.859375 -10.6875 C 9.609375 -10.351562 10.1875 -9.875 10.59375 -9.25 C 11 -8.625 11.203125 -7.890625 11.203125 -7.046875 C 11.203125 -6.234375 11.007812 -5.523438 10.625 -4.921875 C 10.25 -4.328125 9.710938 -3.859375 9.015625 -3.515625 L 11.421875 0 L 8.046875 0 Z M 8.015625 -7.046875 C 8.015625 -7.566406 7.847656 -7.972656 7.515625 -8.265625 C 7.179688 -8.554688 6.691406 -8.703125 6.046875 -8.703125 L 4.28125 -8.703125 L 4.28125 -5.421875 L 6.046875 -5.421875 C 6.691406 -5.421875 7.179688 -5.5625 7.515625 -5.84375 C 7.847656 -6.125 8.015625 -6.523438 8.015625 -7.046875 Z M 8.015625 -7.046875 "/></g></g></g><g fill="#06d2dd" fill-opacity="1"><g transform="translate(65.280062, 24.152799)"><g><path d="M 6.234375 -11.203125 C 7.253906 -11.203125 8.132812 -11.03125 8.875 -10.6875 C 9.625 -10.351562 10.203125 -9.875 10.609375 -9.25 C 11.015625 -8.625 11.21875 -7.894531 11.21875 -7.0625 C 11.21875 -6.21875 11.015625 -5.484375 10.609375 -4.859375 C 10.203125 -4.242188 9.625 -3.765625 8.875 -3.421875 C 8.132812 -3.085938 7.253906 -2.921875 6.234375 -2.921875 L 4.28125 -2.921875 L 4.28125 0 L 1.125 0 L 1.125 -11.203125 Z M 6.046875 -5.421875 C 6.703125 -5.421875 7.191406 -5.5625 7.515625 -5.84375 C 7.847656 -6.125 8.015625 -6.53125 8.015625 -7.0625 C 8.015625 -7.582031 7.847656 -7.984375 7.515625 -8.265625 C 7.191406 -8.554688 6.703125 -8.703125 6.046875 -8.703125 L 4.28125 -8.703125 L 4.28125 -5.421875 Z M 6.046875 -5.421875 "/></g></g></g><g fill="#06d2dd" fill-opacity="1"><g transform="translate(77.197218, 24.152799)"><g><path d="M 1.125 -11.203125 L 6.421875 -11.203125 C 7.640625 -11.203125 8.722656 -10.972656 9.671875 -10.515625 C 10.628906 -10.054688 11.367188 -9.40625 11.890625 -8.5625 C 12.410156 -7.71875 12.671875 -6.726562 12.671875 -5.59375 C 12.671875 -4.46875 12.410156 -3.484375 11.890625 -2.640625 C 11.367188 -1.796875 10.628906 -1.144531 9.671875 -0.6875 C 8.722656 -0.226562 7.640625 0 6.421875 0 L 1.125 0 Z M 6.28125 -2.53125 C 7.25 -2.53125 8.019531 -2.800781 8.59375 -3.34375 C 9.175781 -3.882812 9.46875 -4.632812 9.46875 -5.59375 C 9.46875 -6.5625 9.175781 -7.316406 8.59375 -7.859375 C 8.019531 -8.398438 7.25 -8.671875 6.28125 -8.671875 L 4.28125 -8.671875 L 4.28125 -2.53125 Z M 6.28125 -2.53125 "/></g></g></g><g fill="#06d2dd" fill-opacity="1"><g transform="translate(90.53803, 24.152799)"><g><path d="M 4.28125 -8.75 L 4.28125 -6.28125 L 9.234375 -6.28125 L 9.234375 -3.84375 L 4.28125 -3.84375 L 4.28125 0 L 1.125 0 L 1.125 -11.203125 L 9.90625 -11.203125 L 9.90625 -8.75 Z M 4.28125 -8.75 "/></g></g></g><g fill="#352cab" fill-opacity="1"><g transform="translate(100.940217, 24.152799)"><g/></g></g><g fill="#8c30dd" fill-opacity="1"><g transform="translate(105.733185, 24.152799)"><g><path d="M 10.109375 -2.453125 L 10.109375 0 L 1.125 0 L 1.125 -11.203125 L 9.90625 -11.203125 L 9.90625 -8.75 L 4.25 -8.75 L 4.25 -6.859375 L 9.234375 -6.859375 L 9.234375 -4.5 L 4.25 -4.5 L 4.25 -2.453125 Z M 10.109375 -2.453125 "/></g></g></g><g fill="#8c30dd" fill-opacity="1"><g transform="translate(116.6106, 24.152799)"><g><path d="M 1.125 -11.203125 L 6.421875 -11.203125 C 7.640625 -11.203125 8.722656 -10.972656 9.671875 -10.515625 C 10.628906 -10.054688 11.367188 -9.40625 11.890625 -8.5625 C 12.410156 -7.71875 12.671875 -6.726562 12.671875 -5.59375 C 12.671875 -4.46875 12.410156 -3.484375 11.890625 -2.640625 C 11.367188 -1.796875 10.628906 -1.144531 9.671875 -0.6875 C 8.722656 -0.226562 7.640625 0 6.421875 0 L 1.125 0 Z M 6.28125 -2.53125 C 7.25 -2.53125 8.019531 -2.800781 8.59375 -3.34375 C 9.175781 -3.882812 9.46875 -4.632812 9.46875 -5.59375 C 9.46875 -6.5625 9.175781 -7.316406 8.59375 -7.859375 C 8.019531 -8.398438 7.25 -8.671875 6.28125 -8.671875 L 4.28125 -8.671875 L 4.28125 -2.53125 Z M 6.28125 -2.53125 "/></g></g></g><g fill="#8c30dd" fill-opacity="1"><g transform="translate(129.951412, 24.152799)"><g><path d="M 1.125 -11.203125 L 4.28125 -11.203125 L 4.28125 0 L 1.125 0 Z M 2.703125 -12.078125 C 2.234375 -12.078125 1.847656 -12.222656 1.546875 -12.515625 C 1.253906 -12.816406 1.109375 -13.195312 1.109375 -13.65625 C 1.109375 -14.125 1.257812 -14.503906 1.5625 -14.796875 C 1.863281 -15.085938 2.242188 -15.234375 2.703125 -15.234375 C 3.160156 -15.234375 3.535156 -15.085938 3.828125 -14.796875 C 4.128906 -14.503906 4.28125 -14.125 4.28125 -13.65625 C 4.28125 -13.195312 4.128906 -12.816406 3.828125 -12.515625 C 3.535156 -12.222656 3.160156 -12.078125 2.703125 -12.078125 Z M 2.703125 -12.078125 "/></g></g></g><g fill="#8c30dd" fill-opacity="1"><g transform="translate(135.502105, 24.152799)"><g><path d="M 3.5 -8.6875 L 0.0625 -8.6875 L 0.0625 -11.203125 L 10.09375 -11.203125 L 10.09375 -8.6875 L 6.671875 -8.6875 L 6.671875 0 L 3.5 0 Z M 3.5 -8.6875 "/></g></g></g><g fill="#8c30dd" fill-opacity="1"><g transform="translate(145.787654, 24.152799)"><g><path d="M 6.765625 0.21875 C 5.578125 0.21875 4.507812 -0.03125 3.5625 -0.53125 C 2.625 -1.03125 1.882812 -1.722656 1.34375 -2.609375 C 0.8125 -3.492188 0.546875 -4.488281 0.546875 -5.59375 C 0.546875 -6.707031 0.8125 -7.707031 1.34375 -8.59375 C 1.882812 -9.476562 2.625 -10.171875 3.5625 -10.671875 C 4.507812 -11.171875 5.578125 -11.421875 6.765625 -11.421875 C 7.953125 -11.421875 9.015625 -11.171875 9.953125 -10.671875 C 10.898438 -10.171875 11.640625 -9.476562 12.171875 -8.59375 C 12.710938 -7.707031 12.984375 -6.707031 12.984375 -5.59375 C 12.984375 -4.488281 12.710938 -3.492188 12.171875 -2.609375 C 11.640625 -1.722656 10.898438 -1.03125 9.953125 -0.53125 C 9.015625 -0.03125 7.953125 0.21875 6.765625 0.21875 Z M 6.765625 -2.40625 C 7.328125 -2.40625 7.835938 -2.535156 8.296875 -2.796875 C 8.753906 -3.066406 9.117188 -3.441406 9.390625 -3.921875 C 9.660156 -4.410156 9.796875 -4.96875 9.796875 -5.59375 C 9.796875 -6.226562 9.660156 -6.785156 9.390625 -7.265625 C 9.117188 -7.753906 8.753906 -8.128906 8.296875 -8.390625 C 7.835938 -8.660156 7.328125 -8.796875 6.765625 -8.796875 C 6.203125 -8.796875 5.691406 -8.660156 5.234375 -8.390625 C 4.773438 -8.128906 4.410156 -7.753906 4.140625 -7.265625 C 3.878906 -6.785156 3.75 -6.226562 3.75 -5.59375 C 3.75 -4.96875 3.878906 -4.410156 4.140625 -3.921875 C 4.410156 -3.441406 4.773438 -3.066406 5.234375 -2.796875 C 5.691406 -2.535156 6.203125 -2.40625 6.765625 -2.40625 Z M 6.765625 -2.40625 "/></g></g></g><g fill="#8c30dd" fill-opacity="1"><g transform="translate(159.448397, 24.152799)"><g><path d="M 6.015625 -2.96875 L 4.28125 -2.96875 L 4.28125 0 L 1.125 0 L 1.125 -11.203125 L 6.234375 -11.203125 C 7.253906 -11.203125 8.132812 -11.03125 8.875 -10.6875 C 9.625 -10.351562 10.203125 -9.875 10.609375 -9.25 C 11.015625 -8.625 11.21875 -7.894531 11.21875 -7.0625 C 11.21875 -6.25 11.023438 -5.539062 10.640625 -4.9375 C 10.265625 -4.332031 9.726562 -3.859375 9.03125 -3.515625 L 11.4375 0 L 8.046875 0 Z M 8.015625 -7.0625 C 8.015625 -7.582031 7.847656 -7.984375 7.515625 -8.265625 C 7.191406 -8.554688 6.703125 -8.703125 6.046875 -8.703125 L 4.28125 -8.703125 L 4.28125 -5.421875 L 6.046875 -5.421875 C 6.703125 -5.421875 7.191406 -5.5625 7.515625 -5.84375 C 7.847656 -6.125 8.015625 -6.53125 8.015625 -7.0625 Z M 8.015625 -7.0625 "/></g></g></g><g fill="#5e17eb" fill-opacity="1"><g transform="translate(65.280062, 39.902798)"><g><path d="M 6.703125 0.21875 C 5.523438 0.21875 4.46875 -0.0234375 3.53125 -0.515625 C 2.601562 -1.015625 1.875 -1.707031 1.34375 -2.59375 C 0.8125 -3.476562 0.546875 -4.476562 0.546875 -5.59375 C 0.546875 -6.71875 0.8125 -7.722656 1.34375 -8.609375 C 1.875 -9.492188 2.601562 -10.179688 3.53125 -10.671875 C 4.46875 -11.171875 5.523438 -11.421875 6.703125 -11.421875 C 7.722656 -11.421875 8.644531 -11.238281 9.46875 -10.875 C 10.289062 -10.519531 10.972656 -10 11.515625 -9.3125 L 9.5 -7.484375 C 8.78125 -8.359375 7.898438 -8.796875 6.859375 -8.796875 C 6.253906 -8.796875 5.710938 -8.660156 5.234375 -8.390625 C 4.765625 -8.128906 4.398438 -7.753906 4.140625 -7.265625 C 3.878906 -6.785156 3.75 -6.226562 3.75 -5.59375 C 3.75 -4.96875 3.878906 -4.410156 4.140625 -3.921875 C 4.398438 -3.441406 4.765625 -3.066406 5.234375 -2.796875 C 5.710938 -2.535156 6.253906 -2.40625 6.859375 -2.40625 C 7.898438 -2.40625 8.78125 -2.84375 9.5 -3.71875 L 11.515625 -1.890625 C 10.972656 -1.203125 10.289062 -0.675781 9.46875 -0.3125 C 8.644531 0.0390625 7.722656 0.21875 6.703125 0.21875 Z M 6.703125 0.21875 "/></g></g></g><g fill="#5e17eb" fill-opacity="1"><g transform="translate(77.213217, 39.902798)"><g><path d="M 6.765625 0.21875 C 5.578125 0.21875 4.507812 -0.03125 3.5625 -0.53125 C 2.625 -1.03125 1.882812 -1.722656 1.34375 -2.609375 C 0.8125 -3.492188 0.546875 -4.488281 0.546875 -5.59375 C 0.546875 -6.707031 0.8125 -7.707031 1.34375 -8.59375 C 1.882812 -9.476562 2.625 -10.171875 3.5625 -10.671875 C 4.507812 -11.171875 5.578125 -11.421875 6.765625 -11.421875 C 7.953125 -11.421875 9.015625 -11.171875 9.953125 -10.671875 C 10.898438 -10.171875 11.640625 -9.476562 12.171875 -8.59375 C 12.710938 -7.707031 12.984375 -6.707031 12.984375 -5.59375 C 12.984375 -4.488281 12.710938 -3.492188 12.171875 -2.609375 C 11.640625 -1.722656 10.898438 -1.03125 9.953125 -0.53125 C 9.015625 -0.03125 7.953125 0.21875 6.765625 0.21875 Z M 6.765625 -2.40625 C 7.328125 -2.40625 7.835938 -2.535156 8.296875 -2.796875 C 8.753906 -3.066406 9.117188 -3.441406 9.390625 -3.921875 C 9.660156 -4.410156 9.796875 -4.96875 9.796875 -5.59375 C 9.796875 -6.226562 9.660156 -6.785156 9.390625 -7.265625 C 9.117188 -7.753906 8.753906 -8.128906 8.296875 -8.390625 C 7.835938 -8.660156 7.328125 -8.796875 6.765625 -8.796875 C 6.203125 -8.796875 5.691406 -8.660156 5.234375 -8.390625 C 4.773438 -8.128906 4.410156 -7.753906 4.140625 -7.265625 C 3.878906 -6.785156 3.75 -6.226562 3.75 -5.59375 C 3.75 -4.96875 3.878906 -4.410156 4.140625 -3.921875 C 4.410156 -3.441406 4.773438 -3.066406 5.234375 -2.796875 C 5.691406 -2.535156 6.203125 -2.40625 6.765625 -2.40625 Z M 6.765625 -2.40625 "/></g></g></g><g fill="#5e17eb" fill-opacity="1"><g transform="translate(90.87396, 39.902798)"><g><path d="M 11.78125 -11.203125 L 11.78125 0 L 9.171875 0 L 4.21875 -5.96875 L 4.21875 0 L 1.125 0 L 1.125 -11.203125 L 3.734375 -11.203125 L 8.671875 -5.234375 L 8.671875 -11.203125 Z M 11.78125 -11.203125 "/></g></g></g><g fill="#5e17eb" fill-opacity="1"><g transform="translate(103.894853, 39.902798)"><g><path d="M 12.484375 -11.203125 L 7.6875 0 L 4.5625 0 L -0.21875 -11.203125 L 3.203125 -11.203125 L 6.234375 -3.90625 L 9.34375 -11.203125 Z M 12.484375 -11.203125 "/></g></g></g><g fill="#5e17eb" fill-opacity="1"><g transform="translate(116.275894, 39.902798)"><g><path d="M 10.109375 -2.453125 L 10.109375 0 L 1.125 0 L 1.125 -11.203125 L 9.90625 -11.203125 L 9.90625 -8.75 L 4.25 -8.75 L 4.25 -6.859375 L 9.234375 -6.859375 L 9.234375 -4.5 L 4.25 -4.5 L 4.25 -2.453125 Z M 10.109375 -2.453125 "/></g></g></g><g fill="#5e17eb" fill-opacity="1"><g transform="translate(127.153309, 39.902798)"><g><path d="M 6.015625 -2.96875 L 4.28125 -2.96875 L 4.28125 0 L 1.125 0 L 1.125 -11.203125 L 6.234375 -11.203125 C 7.253906 -11.203125 8.132812 -11.03125 8.875 -10.6875 C 9.625 -10.351562 10.203125 -9.875 10.609375 -9.25 C 11.015625 -8.625 11.21875 -7.894531 11.21875 -7.0625 C 11.21875 -6.25 11.023438 -5.539062 10.640625 -4.9375 C 10.265625 -4.332031 9.726562 -3.859375 9.03125 -3.515625 L 11.4375 0 L 8.046875 0 Z M 8.015625 -7.0625 C 8.015625 -7.582031 7.847656 -7.984375 7.515625 -8.265625 C 7.191406 -8.554688 6.703125 -8.703125 6.046875 -8.703125 L 4.28125 -8.703125 L 4.28125 -5.421875 L 6.046875 -5.421875 C 6.703125 -5.421875 7.191406 -5.5625 7.515625 -5.84375 C 7.847656 -6.125 8.015625 -6.53125 8.015625 -7.0625 Z M 8.015625 -7.0625 "/></g></g></g><g fill="#5e17eb" fill-opacity="1"><g transform="translate(139.118461, 39.902798)"><g><path d="M 3.5 -8.6875 L 0.0625 -8.6875 L 0.0625 -11.203125 L 10.09375 -11.203125 L 10.09375 -8.6875 L 6.671875 -8.6875 L 6.671875 0 L 3.5 0 Z M 3.5 -8.6875 "/></g></g></g><g fill="#5e17eb" fill-opacity="1"><g transform="translate(149.40401, 39.902798)"><g><path d="M 10.109375 -2.453125 L 10.109375 0 L 1.125 0 L 1.125 -11.203125 L 9.90625 -11.203125 L 9.90625 -8.75 L 4.25 -8.75 L 4.25 -6.859375 L 9.234375 -6.859375 L 9.234375 -4.5 L 4.25 -4.5 L 4.25 -2.453125 Z M 10.109375 -2.453125 "/></g></g></g><g fill="#5e17eb" fill-opacity="1"><g transform="translate(160.281424, 39.902798)"><g><path d="M 6.015625 -2.96875 L 4.28125 -2.96875 L 4.28125 0 L 1.125 0 L 1.125 -11.203125 L 6.234375 -11.203125 C 7.253906 -11.203125 8.132812 -11.03125 8.875 -10.6875 C 9.625 -10.351562 10.203125 -9.875 10.609375 -9.25 C 11.015625 -8.625 11.21875 -7.894531 11.21875 -7.0625 C 11.21875 -6.25 11.023438 -5.539062 10.640625 -4.9375 C 10.265625 -4.332031 9.726562 -3.859375 9.03125 -3.515625 L 11.4375 0 L 8.046875 0 Z M 8.015625 -7.0625 C 8.015625 -7.582031 7.847656 -7.984375 7.515625 -8.265625 C 7.191406 -8.554688 6.703125 -8.703125 6.046875 -8.703125 L 4.28125 -8.703125 L 4.28125 -5.421875 L 6.046875 -5.421875 C 6.703125 -5.421875 7.191406 -5.5625 7.515625 -5.84375 C 7.847656 -6.125 8.015625 -6.53125 8.015625 -7.0625 Z M 8.015625 -7.0625 "/></g></g></g><g clip-path="url(#7c5125e3f5)"><path fill="#502da7" d="M 31.125 6 C 44.945312 6 56.25 17.304688 56.25 31.125 C 56.25 44.945312 44.945312 56.25 31.125 56.25 C 17.304688 56.25 6 44.945312 6 31.125 C 6 17.304688 17.304688 6 31.125 6 " fill-opacity="1" fill-rule="evenodd"/></g><path fill="#fffffe" d="M 18.300781 28.050781 L 18.300781 15.445312 C 18.300781 14.515625 19.058594 13.757812 19.992188 13.757812 L 37.566406 13.757812 C 38.015625 13.757812 38.445312 13.9375 38.761719 14.253906 L 43.453125 18.945312 C 43.769531 19.261719 43.949219 19.691406 43.949219 20.140625 L 43.949219 28.050781 L 45.40625 28.050781 C 46.203125 28.050781 46.851562 28.699219 46.851562 29.5 L 46.851562 42.308594 C 46.851562 43.109375 46.203125 43.757812 45.40625 43.757812 L 43.949219 43.757812 L 43.949219 46.804688 C 43.949219 47.734375 43.191406 48.492188 42.257812 48.492188 L 19.992188 48.492188 C 19.058594 48.492188 18.300781 47.734375 18.300781 46.804688 L 18.300781 43.757812 L 16.84375 43.757812 C 16.046875 43.757812 15.398438 43.109375 15.398438 42.308594 L 15.398438 29.5 C 15.398438 28.699219 16.046875 28.050781 16.84375 28.050781 L 18.300781 28.050781 " fill-opacity="1" fill-rule="evenodd"/><path fill="#26154f" d="M 37.082031 16.171875 L 20.714844 16.171875 L 20.714844 29.5 C 20.714844 29.898438 20.390625 30.222656 19.992188 30.222656 C 19.589844 30.222656 19.265625 29.898438 19.265625 29.5 L 19.265625 15.445312 C 19.265625 15.046875 19.589844 14.722656 19.992188 14.722656 L 37.566406 14.722656 C 37.757812 14.722656 37.941406 14.800781 38.078125 14.9375 L 42.769531 19.628906 C 42.90625 19.765625 42.984375 19.949219 42.984375 20.140625 L 42.984375 29.5 C 42.984375 29.898438 42.660156 30.222656 42.257812 30.222656 C 41.859375 30.222656 41.535156 29.898438 41.535156 29.5 L 41.535156 20.621094 L 39.914062 20.621094 C 39.132812 20.621094 38.425781 20.304688 37.914062 19.792969 C 37.402344 19.28125 37.082031 18.574219 37.082031 17.792969 Z M 20.714844 46.078125 L 41.535156 46.078125 L 41.535156 42.308594 C 41.535156 41.910156 41.859375 41.585938 42.257812 41.585938 C 42.660156 41.585938 42.984375 41.910156 42.984375 42.308594 L 42.984375 46.804688 C 42.984375 47.203125 42.660156 47.527344 42.257812 47.527344 L 19.992188 47.527344 C 19.589844 47.527344 19.265625 47.203125 19.265625 46.804688 L 19.265625 42.308594 C 19.265625 41.910156 19.589844 41.585938 19.992188 41.585938 C 20.390625 41.585938 20.714844 41.910156 20.714844 42.308594 L 20.714844 46.078125 " fill-opacity="1" fill-rule="evenodd"/><path fill="#26154f" d="M 24.121094 23.035156 L 38.128906 23.035156 L 38.128906 24.238281 L 24.121094 24.238281 L 24.121094 23.035156 " fill-opacity="1" fill-rule="evenodd"/><path fill="#26154f" d="M 24.121094 25.894531 L 38.128906 25.894531 L 38.128906 27.101562 L 24.121094 27.101562 L 24.121094 25.894531 " fill-opacity="1" fill-rule="evenodd"/><path fill="#26154f" d="M 24.121094 20.171875 L 34.023438 20.171875 L 34.023438 21.378906 L 24.121094 21.378906 L 24.121094 20.171875 " fill-opacity="1" fill-rule="evenodd"/><path fill="#26154f" d="M 23.082031 38.964844 L 23.082031 32.84375 L 25.066406 32.84375 C 25.816406 32.84375 26.304688 32.875 26.535156 32.9375 C 26.886719 33.027344 27.179688 33.226562 27.417969 33.535156 C 27.652344 33.84375 27.773438 34.242188 27.773438 34.726562 C 27.773438 35.101562 27.703125 35.417969 27.566406 35.675781 C 27.429688 35.929688 27.257812 36.132812 27.046875 36.277344 C 26.835938 36.425781 26.621094 36.519531 26.40625 36.566406 C 26.109375 36.625 25.683594 36.65625 25.125 36.65625 L 24.316406 36.65625 L 24.316406 38.964844 Z M 28.78125 32.84375 L 31.042969 32.84375 C 31.550781 32.84375 31.9375 32.882812 32.207031 32.960938 C 32.566406 33.066406 32.875 33.253906 33.128906 33.523438 C 33.382812 33.792969 33.582031 34.125 33.714844 34.515625 C 33.847656 34.90625 33.914062 35.390625 33.914062 35.964844 C 33.914062 36.464844 33.851562 36.902344 33.726562 37.265625 C 33.574219 37.710938 33.355469 38.070312 33.070312 38.347656 C 32.855469 38.554688 32.566406 38.71875 32.203125 38.835938 C 31.929688 38.921875 31.566406 38.964844 31.105469 38.964844 L 28.78125 38.964844 Z M 34.96875 38.964844 L 34.96875 32.84375 L 39.167969 32.84375 L 39.167969 33.878906 L 36.207031 33.878906 L 36.207031 35.328125 L 38.761719 35.328125 L 38.761719 36.363281 L 36.207031 36.363281 L 36.207031 38.964844 Z M 20.714844 42.792969 L 45.40625 42.792969 C 45.671875 42.792969 45.886719 42.574219 45.886719 42.308594 L 45.886719 29.5 C 45.886719 29.234375 45.671875 29.015625 45.40625 29.015625 L 16.84375 29.015625 C 16.578125 29.015625 16.363281 29.234375 16.363281 29.5 L 16.363281 42.308594 C 16.363281 42.574219 16.578125 42.792969 16.84375 42.792969 L 20.714844 42.792969 " fill-opacity="1" fill-rule="evenodd"/><path fill="#26154f" d="M 24.316406 33.878906 L 24.316406 35.617188 L 24.992188 35.617188 C 25.480469 35.617188 25.808594 35.585938 25.972656 35.519531 C 26.136719 35.457031 26.261719 35.355469 26.359375 35.21875 C 26.449219 35.082031 26.496094 34.925781 26.496094 34.742188 C 26.496094 34.519531 26.433594 34.335938 26.300781 34.191406 C 26.171875 34.046875 26.003906 33.957031 25.804688 33.921875 C 25.65625 33.890625 25.359375 33.878906 24.914062 33.878906 L 24.316406 33.878906 " fill-opacity="1" fill-rule="evenodd"/><path fill="#26154f" d="M 30.019531 33.878906 L 30.019531 37.933594 L 30.941406 37.933594 C 31.285156 37.933594 31.535156 37.914062 31.6875 37.875 C 31.886719 37.824219 32.054688 37.742188 32.1875 37.621094 C 32.320312 37.5 32.425781 37.304688 32.511719 37.03125 C 32.59375 36.753906 32.636719 36.382812 32.636719 35.90625 C 32.636719 35.433594 32.59375 35.074219 32.511719 34.820312 C 32.425781 34.566406 32.308594 34.367188 32.160156 34.226562 C 32.007812 34.082031 31.820312 33.988281 31.585938 33.9375 C 31.414062 33.898438 31.078125 33.878906 30.574219 33.878906 L 30.019531 33.878906 " fill-opacity="1" fill-rule="evenodd"/></svg>