<svg xmlns="http://www.w3.org/2000/svg" xmlns:xlink="http://www.w3.org/1999/xlink" width="288" zoomAndPan="magnify" viewBox="0 0 216 60" height="80" preserveAspectRatio="xMidYMid meet" version="1.0"><defs><g/><clipPath id="f9914d82f6"><path d="M 9.640625 3.5 L 55.390625 3.5 L 55.390625 53 L 9.640625 53 Z M 9.640625 3.5 " clip-rule="nonzero"/></clipPath><clipPath id="2b2590165a"><path d="M 55.390625 18.660156 L 55.390625 41.632812 C 55.390625 47.898438 50.289062 52.996094 44.015625 52.996094 L 21.015625 52.996094 C 14.742188 52.996094 9.640625 47.898438 9.640625 41.632812 L 9.640625 23.746094 C 11.203125 24.269531 12.351562 25.640625 12.539062 27.339844 L 12.601562 27.875 L 12.601562 41.632812 C 12.601562 46.269531 16.375 50.039062 21.015625 50.039062 L 44.015625 50.039062 C 48.65625 50.039062 52.429688 46.269531 52.429688 41.632812 L 52.429688 18.660156 C 52.429688 14.023438 48.65625 10.253906 44.015625 10.253906 L 31.980469 10.253906 L 29.878906 10.019531 C 28.246094 9.835938 26.90625 8.769531 26.34375 7.296875 L 44.015625 7.296875 C 50.289062 7.296875 55.390625 12.394531 55.390625 18.660156 Z M 17.414062 4.4375 C 17.011719 8.03125 14.167969 10.871094 10.570312 11.273438 L 9.640625 11.375 L 10.570312 11.480469 C 14.167969 11.882812 17.011719 14.722656 17.414062 18.316406 L 17.515625 19.246094 L 17.621094 18.316406 C 18.023438 14.722656 20.867188 11.882812 24.464844 11.480469 L 25.394531 11.375 L 24.464844 11.273438 C 20.867188 10.871094 18.023438 8.03125 17.621094 4.4375 L 17.515625 3.507812 Z M 28.167969 11.375 C 27.949219 13.320312 26.410156 14.859375 24.464844 15.074219 C 26.410156 15.292969 27.949219 16.828125 28.167969 18.777344 C 28.386719 16.828125 29.921875 15.292969 31.871094 15.074219 C 29.921875 14.859375 28.386719 13.320312 28.167969 11.375 Z M 14.328125 19.246094 C 14.152344 20.808594 12.917969 22.042969 11.355469 22.214844 C 12.917969 22.390625 14.152344 23.625 14.328125 25.1875 C 14.503906 23.625 15.738281 22.390625 17.300781 22.214844 C 15.738281 22.042969 14.503906 20.808594 14.328125 19.246094 Z M 49.328125 41.472656 L 39.722656 24.851562 C 38.519531 22.769531 35.511719 22.769531 34.3125 24.851562 L 27.8125 36.09375 L 25.617188 32.292969 C 24.835938 30.9375 22.878906 30.9375 22.09375 32.292969 L 15.84375 43.105469 C 15.0625 44.460938 16.039062 46.152344 17.605469 46.152344 L 46.625 46.152344 C 49.027344 46.152344 50.53125 43.550781 49.328125 41.472656 Z M 45.90625 19.183594 C 44.230469 19.183594 42.871094 20.542969 42.871094 22.214844 C 42.871094 23.890625 44.230469 25.25 45.90625 25.25 C 47.582031 25.25 48.941406 23.890625 48.941406 22.214844 C 48.941406 20.542969 47.582031 19.183594 45.90625 19.183594 Z M 45.90625 19.183594 " clip-rule="nonzero"/></clipPath><linearGradient x1="-25.542585" gradientTransform="matrix(0.0667981, 0, 0, 0.0667244, 9.639276, 3.506716)" y1="25.125277" x2="682.070349" gradientUnits="userSpaceOnUse" y2="744.491346" id="112c33e094"><stop stop-opacity="1" stop-color="rgb(37.249756%, 98.039246%, 87.838745%)" offset="0"/><stop stop-opacity="1" stop-color="rgb(37.294006%, 97.947693%, 87.831116%)" offset="0.0625"/><stop stop-opacity="1" stop-color="rgb(37.504578%, 97.512817%, 87.797546%)" offset="0.0664063"/><stop stop-opacity="1" stop-color="rgb(37.670898%, 97.171021%, 87.771606%)" offset="0.0703125"/><stop stop-opacity="1" stop-color="rgb(37.837219%, 96.827698%, 87.744141%)" offset="0.0742188"/><stop stop-opacity="1" stop-color="rgb(38.00354%, 96.485901%, 87.718201%)" offset="0.078125"/><stop stop-opacity="1" stop-color="rgb(38.169861%, 96.142578%, 87.690735%)" offset="0.0820312"/><stop stop-opacity="1" stop-color="rgb(38.336182%, 95.799255%, 87.663269%)" offset="0.0859375"/><stop stop-opacity="1" stop-color="rgb(38.502502%, 95.455933%, 87.635803%)" offset="0.0898438"/><stop stop-opacity="1" stop-color="rgb(38.668823%, 95.114136%, 87.609863%)" offset="0.09375"/><stop stop-opacity="1" stop-color="rgb(38.835144%, 94.770813%, 87.582397%)" offset="0.0976563"/><stop stop-opacity="1" stop-color="rgb(39.001465%, 94.429016%, 87.556458%)" offset="0.101563"/><stop stop-opacity="1" stop-color="rgb(39.167786%, 94.085693%, 87.528992%)" offset="0.105469"/><stop stop-opacity="1" stop-color="rgb(39.334106%, 93.742371%, 87.503052%)" offset="0.109375"/><stop stop-opacity="1" stop-color="rgb(39.500427%, 93.399048%, 87.475586%)" offset="0.113281"/><stop stop-opacity="1" stop-color="rgb(39.666748%, 93.057251%, 87.44812%)" offset="0.117188"/><stop stop-opacity="1" stop-color="rgb(39.833069%, 92.713928%, 87.420654%)" offset="0.121094"/><stop stop-opacity="1" stop-color="rgb(40.000916%, 92.370605%, 87.394714%)" offset="0.125"/><stop stop-opacity="1" stop-color="rgb(40.167236%, 92.027283%, 87.367249%)" offset="0.128906"/><stop stop-opacity="1" stop-color="rgb(40.333557%, 91.685486%, 87.341309%)" offset="0.132813"/><stop stop-opacity="1" stop-color="rgb(40.499878%, 91.342163%, 87.313843%)" offset="0.136719"/><stop stop-opacity="1" stop-color="rgb(40.666199%, 91.000366%, 87.287903%)" offset="0.140625"/><stop stop-opacity="1" stop-color="rgb(40.83252%, 90.657043%, 87.260437%)" offset="0.144531"/><stop stop-opacity="1" stop-color="rgb(40.99884%, 90.313721%, 87.234497%)" offset="0.148438"/><stop stop-opacity="1" stop-color="rgb(41.165161%, 89.970398%, 87.207031%)" offset="0.152344"/><stop stop-opacity="1" stop-color="rgb(41.331482%, 89.628601%, 87.179565%)" offset="0.15625"/><stop stop-opacity="1" stop-color="rgb(41.497803%, 89.285278%, 87.1521%)" offset="0.160156"/><stop stop-opacity="1" stop-color="rgb(41.664124%, 88.943481%, 87.12616%)" offset="0.164062"/><stop stop-opacity="1" stop-color="rgb(41.830444%, 88.600159%, 87.098694%)" offset="0.167969"/><stop stop-opacity="1" stop-color="rgb(41.996765%, 88.256836%, 87.072754%)" offset="0.171875"/><stop stop-opacity="1" stop-color="rgb(42.163086%, 87.913513%, 87.045288%)" offset="0.175781"/><stop stop-opacity="1" stop-color="rgb(42.329407%, 87.571716%, 87.019348%)" offset="0.179688"/><stop stop-opacity="1" stop-color="rgb(42.495728%, 87.228394%, 86.991882%)" offset="0.183594"/><stop stop-opacity="1" stop-color="rgb(42.662048%, 86.886597%, 86.964417%)" offset="0.1875"/><stop stop-opacity="1" stop-color="rgb(42.828369%, 86.543274%, 86.936951%)" offset="0.191406"/><stop stop-opacity="1" stop-color="rgb(42.996216%, 86.199951%, 86.911011%)" offset="0.195313"/><stop stop-opacity="1" stop-color="rgb(43.162537%, 85.856628%, 86.883545%)" offset="0.199219"/><stop stop-opacity="1" stop-color="rgb(43.328857%, 85.514832%, 86.857605%)" offset="0.203125"/><stop stop-opacity="1" stop-color="rgb(43.495178%, 85.171509%, 86.830139%)" offset="0.207031"/><stop stop-opacity="1" stop-color="rgb(43.661499%, 84.828186%, 86.804199%)" offset="0.210938"/><stop stop-opacity="1" stop-color="rgb(43.82782%, 84.484863%, 86.776733%)" offset="0.214844"/><stop stop-opacity="1" stop-color="rgb(43.994141%, 84.143066%, 86.750793%)" offset="0.21875"/><stop stop-opacity="1" stop-color="rgb(44.160461%, 83.799744%, 86.723328%)" offset="0.222656"/><stop stop-opacity="1" stop-color="rgb(44.326782%, 83.457947%, 86.695862%)" offset="0.226562"/><stop stop-opacity="1" stop-color="rgb(44.493103%, 83.114624%, 86.668396%)" offset="0.230469"/><stop stop-opacity="1" stop-color="rgb(44.659424%, 82.771301%, 86.642456%)" offset="0.234375"/><stop stop-opacity="1" stop-color="rgb(44.825745%, 82.427979%, 86.61499%)" offset="0.238281"/><stop stop-opacity="1" stop-color="rgb(44.992065%, 82.086182%, 86.58905%)" offset="0.242188"/><stop stop-opacity="1" stop-color="rgb(45.158386%, 81.742859%, 86.561584%)" offset="0.246094"/><stop stop-opacity="1" stop-color="rgb(45.324707%, 81.401062%, 86.535645%)" offset="0.25"/><stop stop-opacity="1" stop-color="rgb(45.491028%, 81.057739%, 86.508179%)" offset="0.253906"/><stop stop-opacity="1" stop-color="rgb(45.658875%, 80.714417%, 86.480713%)" offset="0.257812"/><stop stop-opacity="1" stop-color="rgb(45.825195%, 80.371094%, 86.453247%)" offset="0.261719"/><stop stop-opacity="1" stop-color="rgb(45.991516%, 80.029297%, 86.427307%)" offset="0.265625"/><stop stop-opacity="1" stop-color="rgb(46.157837%, 79.685974%, 86.399841%)" offset="0.269531"/><stop stop-opacity="1" stop-color="rgb(46.324158%, 79.342651%, 86.373901%)" offset="0.273438"/><stop stop-opacity="1" stop-color="rgb(46.490479%, 78.999329%, 86.346436%)" offset="0.277344"/><stop stop-opacity="1" stop-color="rgb(46.656799%, 78.657532%, 86.320496%)" offset="0.28125"/><stop stop-opacity="1" stop-color="rgb(46.82312%, 78.314209%, 86.29303%)" offset="0.285156"/><stop stop-opacity="1" stop-color="rgb(46.989441%, 77.972412%, 86.26709%)" offset="0.289062"/><stop stop-opacity="1" stop-color="rgb(47.155762%, 77.629089%, 86.239624%)" offset="0.292969"/><stop stop-opacity="1" stop-color="rgb(47.322083%, 77.285767%, 86.212158%)" offset="0.296875"/><stop stop-opacity="1" stop-color="rgb(47.488403%, 76.942444%, 86.184692%)" offset="0.300781"/><stop stop-opacity="1" stop-color="rgb(47.654724%, 76.600647%, 86.158752%)" offset="0.304688"/><stop stop-opacity="1" stop-color="rgb(47.821045%, 76.257324%, 86.131287%)" offset="0.308594"/><stop stop-opacity="1" stop-color="rgb(47.987366%, 75.915527%, 86.105347%)" offset="0.3125"/><stop stop-opacity="1" stop-color="rgb(48.153687%, 75.572205%, 86.077881%)" offset="0.316406"/><stop stop-opacity="1" stop-color="rgb(48.320007%, 75.228882%, 86.051941%)" offset="0.320312"/><stop stop-opacity="1" stop-color="rgb(48.486328%, 74.885559%, 86.024475%)" offset="0.324219"/><stop stop-opacity="1" stop-color="rgb(48.654175%, 74.543762%, 85.997009%)" offset="0.328125"/><stop stop-opacity="1" stop-color="rgb(48.820496%, 74.200439%, 85.969543%)" offset="0.332031"/><stop stop-opacity="1" stop-color="rgb(48.986816%, 73.858643%, 85.943604%)" offset="0.335938"/><stop stop-opacity="1" stop-color="rgb(49.153137%, 73.51532%, 85.916138%)" offset="0.339844"/><stop stop-opacity="1" stop-color="rgb(49.319458%, 73.171997%, 85.890198%)" offset="0.34375"/><stop stop-opacity="1" stop-color="rgb(49.485779%, 72.828674%, 85.862732%)" offset="0.347656"/><stop stop-opacity="1" stop-color="rgb(49.6521%, 72.486877%, 85.836792%)" offset="0.351562"/><stop stop-opacity="1" stop-color="rgb(49.81842%, 72.143555%, 85.809326%)" offset="0.355469"/><stop stop-opacity="1" stop-color="rgb(49.984741%, 71.800232%, 85.783386%)" offset="0.359375"/><stop stop-opacity="1" stop-color="rgb(50.151062%, 71.456909%, 85.75592%)" offset="0.363281"/><stop stop-opacity="1" stop-color="rgb(50.317383%, 71.115112%, 85.728455%)" offset="0.367187"/><stop stop-opacity="1" stop-color="rgb(50.483704%, 70.77179%, 85.700989%)" offset="0.371094"/><stop stop-opacity="1" stop-color="rgb(50.650024%, 70.429993%, 85.675049%)" offset="0.375"/><stop stop-opacity="1" stop-color="rgb(50.816345%, 70.08667%, 85.647583%)" offset="0.378906"/><stop stop-opacity="1" stop-color="rgb(50.982666%, 69.743347%, 85.621643%)" offset="0.382812"/><stop stop-opacity="1" stop-color="rgb(51.148987%, 69.400024%, 85.594177%)" offset="0.386719"/><stop stop-opacity="1" stop-color="rgb(51.315308%, 69.058228%, 85.568237%)" offset="0.390625"/><stop stop-opacity="1" stop-color="rgb(51.481628%, 68.714905%, 85.540771%)" offset="0.394531"/><stop stop-opacity="1" stop-color="rgb(51.649475%, 68.373108%, 85.514832%)" offset="0.398438"/><stop stop-opacity="1" stop-color="rgb(51.815796%, 68.029785%, 85.487366%)" offset="0.402344"/><stop stop-opacity="1" stop-color="rgb(51.982117%, 67.686462%, 85.4599%)" offset="0.40625"/><stop stop-opacity="1" stop-color="rgb(52.148438%, 67.34314%, 85.432434%)" offset="0.410156"/><stop stop-opacity="1" stop-color="rgb(52.314758%, 67.001343%, 85.406494%)" offset="0.414062"/><stop stop-opacity="1" stop-color="rgb(52.481079%, 66.65802%, 85.379028%)" offset="0.417969"/><stop stop-opacity="1" stop-color="rgb(52.6474%, 66.314697%, 85.353088%)" offset="0.421875"/><stop stop-opacity="1" stop-color="rgb(52.813721%, 65.971375%, 85.325623%)" offset="0.425781"/><stop stop-opacity="1" stop-color="rgb(52.980042%, 65.629578%, 85.299683%)" offset="0.429688"/><stop stop-opacity="1" stop-color="rgb(53.146362%, 65.286255%, 85.272217%)" offset="0.433594"/><stop stop-opacity="1" stop-color="rgb(53.312683%, 64.944458%, 85.244751%)" offset="0.4375"/><stop stop-opacity="1" stop-color="rgb(53.479004%, 64.601135%, 85.217285%)" offset="0.441406"/><stop stop-opacity="1" stop-color="rgb(53.645325%, 64.257812%, 85.191345%)" offset="0.445313"/><stop stop-opacity="1" stop-color="rgb(53.811646%, 63.91449%, 85.163879%)" offset="0.449219"/><stop stop-opacity="1" stop-color="rgb(53.977966%, 63.572693%, 85.137939%)" offset="0.453125"/><stop stop-opacity="1" stop-color="rgb(54.144287%, 63.22937%, 85.110474%)" offset="0.457031"/><stop stop-opacity="1" stop-color="rgb(54.310608%, 62.887573%, 85.084534%)" offset="0.460938"/><stop stop-opacity="1" stop-color="rgb(54.476929%, 62.54425%, 85.057068%)" offset="0.464844"/><stop stop-opacity="1" stop-color="rgb(54.644775%, 62.200928%, 85.031128%)" offset="0.46875"/><stop stop-opacity="1" stop-color="rgb(54.811096%, 61.857605%, 85.003662%)" offset="0.472656"/><stop stop-opacity="1" stop-color="rgb(54.977417%, 61.515808%, 84.976196%)" offset="0.476563"/><stop stop-opacity="1" stop-color="rgb(55.143738%, 61.172485%, 84.94873%)" offset="0.480469"/><stop stop-opacity="1" stop-color="rgb(55.310059%, 60.830688%, 84.922791%)" offset="0.484375"/><stop stop-opacity="1" stop-color="rgb(55.476379%, 60.487366%, 84.895325%)" offset="0.488281"/><stop stop-opacity="1" stop-color="rgb(55.6427%, 60.144043%, 84.869385%)" offset="0.492188"/><stop stop-opacity="1" stop-color="rgb(55.809021%, 59.80072%, 84.841919%)" offset="0.496094"/><stop stop-opacity="1" stop-color="rgb(55.975342%, 59.458923%, 84.815979%)" offset="0.5"/><stop stop-opacity="1" stop-color="rgb(56.141663%, 59.115601%, 84.788513%)" offset="0.503906"/><stop stop-opacity="1" stop-color="rgb(56.307983%, 58.772278%, 84.761047%)" offset="0.507812"/><stop stop-opacity="1" stop-color="rgb(56.474304%, 58.428955%, 84.733582%)" offset="0.511719"/><stop stop-opacity="1" stop-color="rgb(56.640625%, 58.087158%, 84.707642%)" offset="0.515625"/><stop stop-opacity="1" stop-color="rgb(56.806946%, 57.743835%, 84.680176%)" offset="0.519531"/><stop stop-opacity="1" stop-color="rgb(56.973267%, 57.402039%, 84.654236%)" offset="0.523438"/><stop stop-opacity="1" stop-color="rgb(57.139587%, 57.058716%, 84.62677%)" offset="0.527344"/><stop stop-opacity="1" stop-color="rgb(57.305908%, 56.715393%, 84.60083%)" offset="0.53125"/><stop stop-opacity="1" stop-color="rgb(57.472229%, 56.37207%, 84.573364%)" offset="0.535156"/><stop stop-opacity="1" stop-color="rgb(57.640076%, 56.030273%, 84.547424%)" offset="0.539063"/><stop stop-opacity="1" stop-color="rgb(57.806396%, 55.686951%, 84.519958%)" offset="0.542969"/><stop stop-opacity="1" stop-color="rgb(57.972717%, 55.345154%, 84.492493%)" offset="0.546875"/><stop stop-opacity="1" stop-color="rgb(58.139038%, 55.001831%, 84.465027%)" offset="0.550781"/><stop stop-opacity="1" stop-color="rgb(58.305359%, 54.658508%, 84.439087%)" offset="0.554688"/><stop stop-opacity="1" stop-color="rgb(58.47168%, 54.315186%, 84.411621%)" offset="0.558594"/><stop stop-opacity="1" stop-color="rgb(58.638%, 53.973389%, 84.385681%)" offset="0.5625"/><stop stop-opacity="1" stop-color="rgb(58.804321%, 53.630066%, 84.358215%)" offset="0.566406"/><stop stop-opacity="1" stop-color="rgb(58.970642%, 53.286743%, 84.332275%)" offset="0.570312"/><stop stop-opacity="1" stop-color="rgb(59.136963%, 52.94342%, 84.30481%)" offset="0.574219"/><stop stop-opacity="1" stop-color="rgb(59.303284%, 52.601624%, 84.277344%)" offset="0.578125"/><stop stop-opacity="1" stop-color="rgb(59.469604%, 52.258301%, 84.249878%)" offset="0.582031"/><stop stop-opacity="1" stop-color="rgb(59.635925%, 51.916504%, 84.223938%)" offset="0.585938"/><stop stop-opacity="1" stop-color="rgb(59.802246%, 51.573181%, 84.196472%)" offset="0.589844"/><stop stop-opacity="1" stop-color="rgb(59.968567%, 51.229858%, 84.170532%)" offset="0.59375"/><stop stop-opacity="1" stop-color="rgb(60.134888%, 50.886536%, 84.143066%)" offset="0.597656"/><stop stop-opacity="1" stop-color="rgb(60.301208%, 50.544739%, 84.117126%)" offset="0.601562"/><stop stop-opacity="1" stop-color="rgb(60.467529%, 50.201416%, 84.089661%)" offset="0.605469"/><stop stop-opacity="1" stop-color="rgb(60.635376%, 49.859619%, 84.063721%)" offset="0.609375"/><stop stop-opacity="1" stop-color="rgb(60.801697%, 49.516296%, 84.036255%)" offset="0.613281"/><stop stop-opacity="1" stop-color="rgb(60.968018%, 49.172974%, 84.008789%)" offset="0.617188"/><stop stop-opacity="1" stop-color="rgb(61.134338%, 48.829651%, 83.981323%)" offset="0.621094"/><stop stop-opacity="1" stop-color="rgb(61.300659%, 48.487854%, 83.955383%)" offset="0.625"/><stop stop-opacity="1" stop-color="rgb(61.46698%, 48.144531%, 83.927917%)" offset="0.628906"/><stop stop-opacity="1" stop-color="rgb(61.633301%, 47.802734%, 83.901978%)" offset="0.632813"/><stop stop-opacity="1" stop-color="rgb(61.799622%, 47.459412%, 83.874512%)" offset="0.636719"/><stop stop-opacity="1" stop-color="rgb(61.965942%, 47.116089%, 83.848572%)" offset="0.640625"/><stop stop-opacity="1" stop-color="rgb(62.132263%, 46.772766%, 83.821106%)" offset="0.644531"/><stop stop-opacity="1" stop-color="rgb(62.298584%, 46.430969%, 83.795166%)" offset="0.648438"/><stop stop-opacity="1" stop-color="rgb(62.464905%, 46.087646%, 83.7677%)" offset="0.652344"/><stop stop-opacity="1" stop-color="rgb(62.631226%, 45.744324%, 83.740234%)" offset="0.65625"/><stop stop-opacity="1" stop-color="rgb(62.797546%, 45.401001%, 83.712769%)" offset="0.660156"/><stop stop-opacity="1" stop-color="rgb(62.963867%, 45.059204%, 83.686829%)" offset="0.664063"/><stop stop-opacity="1" stop-color="rgb(63.130188%, 44.715881%, 83.659363%)" offset="0.667969"/><stop stop-opacity="1" stop-color="rgb(63.296509%, 44.374084%, 83.633423%)" offset="0.671875"/><stop stop-opacity="1" stop-color="rgb(63.46283%, 44.030762%, 83.605957%)" offset="0.675781"/><stop stop-opacity="1" stop-color="rgb(63.630676%, 43.687439%, 83.580017%)" offset="0.679688"/><stop stop-opacity="1" stop-color="rgb(63.796997%, 43.344116%, 83.552551%)" offset="0.683594"/><stop stop-opacity="1" stop-color="rgb(63.963318%, 43.002319%, 83.525085%)" offset="0.6875"/><stop stop-opacity="1" stop-color="rgb(64.129639%, 42.658997%, 83.49762%)" offset="0.691406"/><stop stop-opacity="1" stop-color="rgb(64.295959%, 42.3172%, 83.47168%)" offset="0.695312"/><stop stop-opacity="1" stop-color="rgb(64.46228%, 41.973877%, 83.444214%)" offset="0.699219"/><stop stop-opacity="1" stop-color="rgb(64.628601%, 41.630554%, 83.418274%)" offset="0.703125"/><stop stop-opacity="1" stop-color="rgb(64.794922%, 41.287231%, 83.390808%)" offset="0.707031"/><stop stop-opacity="1" stop-color="rgb(64.961243%, 40.945435%, 83.364868%)" offset="0.710938"/><stop stop-opacity="1" stop-color="rgb(65.127563%, 40.602112%, 83.337402%)" offset="0.714844"/><stop stop-opacity="1" stop-color="rgb(65.293884%, 40.258789%, 83.311462%)" offset="0.71875"/><stop stop-opacity="1" stop-color="rgb(65.460205%, 39.915466%, 83.283997%)" offset="0.722656"/><stop stop-opacity="1" stop-color="rgb(65.626526%, 39.573669%, 83.256531%)" offset="0.726563"/><stop stop-opacity="1" stop-color="rgb(65.792847%, 39.230347%, 83.229065%)" offset="0.730469"/><stop stop-opacity="1" stop-color="rgb(65.959167%, 38.88855%, 83.203125%)" offset="0.734375"/><stop stop-opacity="1" stop-color="rgb(66.125488%, 38.545227%, 83.175659%)" offset="0.738281"/><stop stop-opacity="1" stop-color="rgb(66.291809%, 38.201904%, 83.149719%)" offset="0.742188"/><stop stop-opacity="1" stop-color="rgb(66.45813%, 37.858582%, 83.122253%)" offset="0.746094"/><stop stop-opacity="1" stop-color="rgb(66.625977%, 37.516785%, 83.096313%)" offset="0.75"/><stop stop-opacity="1" stop-color="rgb(66.792297%, 37.173462%, 83.068848%)" offset="0.753906"/><stop stop-opacity="1" stop-color="rgb(66.958618%, 36.831665%, 83.041382%)" offset="0.757813"/><stop stop-opacity="1" stop-color="rgb(67.124939%, 36.488342%, 83.013916%)" offset="0.761719"/><stop stop-opacity="1" stop-color="rgb(67.29126%, 36.14502%, 82.987976%)" offset="0.765625"/><stop stop-opacity="1" stop-color="rgb(67.457581%, 35.801697%, 82.96051%)" offset="0.769531"/><stop stop-opacity="1" stop-color="rgb(67.623901%, 35.4599%, 82.93457%)" offset="0.773438"/><stop stop-opacity="1" stop-color="rgb(67.790222%, 35.116577%, 82.907104%)" offset="0.777344"/><stop stop-opacity="1" stop-color="rgb(67.956543%, 34.77478%, 82.881165%)" offset="0.78125"/><stop stop-opacity="1" stop-color="rgb(68.122864%, 34.431458%, 82.853699%)" offset="0.785156"/><stop stop-opacity="1" stop-color="rgb(68.289185%, 34.088135%, 82.827759%)" offset="0.789062"/><stop stop-opacity="1" stop-color="rgb(68.455505%, 33.744812%, 82.800293%)" offset="0.792969"/><stop stop-opacity="1" stop-color="rgb(68.621826%, 33.403015%, 82.772827%)" offset="0.796875"/><stop stop-opacity="1" stop-color="rgb(68.788147%, 33.059692%, 82.745361%)" offset="0.800781"/><stop stop-opacity="1" stop-color="rgb(68.954468%, 32.71637%, 82.719421%)" offset="0.804688"/><stop stop-opacity="1" stop-color="rgb(69.120789%, 32.373047%, 82.691956%)" offset="0.808594"/><stop stop-opacity="1" stop-color="rgb(69.287109%, 32.03125%, 82.666016%)" offset="0.8125"/><stop stop-opacity="1" stop-color="rgb(69.45343%, 31.687927%, 82.63855%)" offset="0.816406"/><stop stop-opacity="1" stop-color="rgb(69.621277%, 31.34613%, 82.61261%)" offset="0.820313"/><stop stop-opacity="1" stop-color="rgb(69.787598%, 31.002808%, 82.585144%)" offset="0.824219"/><stop stop-opacity="1" stop-color="rgb(69.953918%, 30.659485%, 82.557678%)" offset="0.828125"/><stop stop-opacity="1" stop-color="rgb(70.120239%, 30.316162%, 82.530212%)" offset="0.832031"/><stop stop-opacity="1" stop-color="rgb(70.28656%, 29.974365%, 82.504272%)" offset="0.835938"/><stop stop-opacity="1" stop-color="rgb(70.452881%, 29.631042%, 82.476807%)" offset="0.839844"/><stop stop-opacity="1" stop-color="rgb(70.619202%, 29.289246%, 82.450867%)" offset="0.84375"/><stop stop-opacity="1" stop-color="rgb(70.785522%, 28.945923%, 82.423401%)" offset="0.847656"/><stop stop-opacity="1" stop-color="rgb(70.951843%, 28.6026%, 82.397461%)" offset="0.851563"/><stop stop-opacity="1" stop-color="rgb(71.118164%, 28.259277%, 82.369995%)" offset="0.855469"/><stop stop-opacity="1" stop-color="rgb(71.284485%, 27.91748%, 82.344055%)" offset="0.859375"/><stop stop-opacity="1" stop-color="rgb(71.450806%, 27.574158%, 82.316589%)" offset="0.863281"/><stop stop-opacity="1" stop-color="rgb(71.617126%, 27.232361%, 82.289124%)" offset="0.867188"/><stop stop-opacity="1" stop-color="rgb(71.783447%, 26.889038%, 82.261658%)" offset="0.871094"/><stop stop-opacity="1" stop-color="rgb(71.949768%, 26.545715%, 82.235718%)" offset="0.875"/><stop stop-opacity="1" stop-color="rgb(72.116089%, 26.202393%, 82.208252%)" offset="0.878906"/><stop stop-opacity="1" stop-color="rgb(72.28241%, 25.860596%, 82.182312%)" offset="0.882812"/><stop stop-opacity="1" stop-color="rgb(72.44873%, 25.517273%, 82.154846%)" offset="0.886719"/><stop stop-opacity="1" stop-color="rgb(72.616577%, 25.17395%, 82.128906%)" offset="0.890625"/><stop stop-opacity="1" stop-color="rgb(72.782898%, 24.830627%, 82.10144%)" offset="0.894531"/><stop stop-opacity="1" stop-color="rgb(72.949219%, 24.488831%, 82.073975%)" offset="0.898438"/><stop stop-opacity="1" stop-color="rgb(73.11554%, 24.145508%, 82.046509%)" offset="0.902344"/><stop stop-opacity="1" stop-color="rgb(73.28186%, 23.803711%, 82.020569%)" offset="0.90625"/><stop stop-opacity="1" stop-color="rgb(73.448181%, 23.460388%, 81.993103%)" offset="0.910156"/><stop stop-opacity="1" stop-color="rgb(73.614502%, 23.117065%, 81.967163%)" offset="0.914063"/><stop stop-opacity="1" stop-color="rgb(73.780823%, 22.773743%, 81.939697%)" offset="0.917969"/><stop stop-opacity="1" stop-color="rgb(73.947144%, 22.431946%, 81.913757%)" offset="0.921875"/><stop stop-opacity="1" stop-color="rgb(74.113464%, 22.088623%, 81.886292%)" offset="0.925781"/><stop stop-opacity="1" stop-color="rgb(74.279785%, 21.746826%, 81.860352%)" offset="0.929688"/><stop stop-opacity="1" stop-color="rgb(74.446106%, 21.403503%, 81.832886%)" offset="0.933594"/><stop stop-opacity="1" stop-color="rgb(74.612427%, 21.060181%, 81.80542%)" offset="0.9375"/><stop stop-opacity="1" stop-color="rgb(74.778748%, 20.716858%, 81.777954%)" offset="0.941406"/><stop stop-opacity="1" stop-color="rgb(74.945068%, 20.375061%, 81.752014%)" offset="0.945312"/><stop stop-opacity="1" stop-color="rgb(75.111389%, 20.031738%, 81.724548%)" offset="0.949219"/><stop stop-opacity="1" stop-color="rgb(75.27771%, 19.688416%, 81.698608%)" offset="0.953125"/><stop stop-opacity="1" stop-color="rgb(75.444031%, 19.345093%, 81.671143%)" offset="0.957031"/><stop stop-opacity="1" stop-color="rgb(75.611877%, 19.003296%, 81.645203%)" offset="0.960938"/><stop stop-opacity="1" stop-color="rgb(75.778198%, 18.659973%, 81.617737%)" offset="0.964844"/><stop stop-opacity="1" stop-color="rgb(75.944519%, 18.318176%, 81.591797%)" offset="0.96875"/><stop stop-opacity="1" stop-color="rgb(76.011658%, 18.177795%, 81.57959%)" offset="1"/></linearGradient><clipPath id="d8bfa7751e"><rect x="0" width="122" y="0" height="43"/></clipPath><clipPath id="a040d55cfc"><rect x="0" width="122" y="0" height="43"/></clipPath></defs><g clip-path="url(#f9914d82f6)"><g clip-path="url(#2b2590165a)"><path fill="url(#112c33e094)" d="M 9.640625 3.507812 L 9.640625 52.996094 L 55.390625 52.996094 L 55.390625 3.507812 Z M 9.640625 3.507812 " fill-rule="nonzero"/></g></g><g transform="matrix(1, 0, 0, 1, 63, 7)"><g clip-path="url(#d8bfa7751e)"><g fill="#352cab" fill-opacity="1"><g transform="translate(0.571982, 19.05238)"><g><path d="M 1.265625 -12.625 L 4.828125 -12.625 L 4.828125 0 L 1.265625 0 Z M 3.046875 -13.609375 C 2.515625 -13.609375 2.082031 -13.773438 1.75 -14.109375 C 1.425781 -14.453125 1.265625 -14.882812 1.265625 -15.40625 C 1.265625 -15.914062 1.429688 -16.335938 1.765625 -16.671875 C 2.097656 -17.003906 2.523438 -17.171875 3.046875 -17.171875 C 3.554688 -17.171875 3.976562 -17.003906 4.3125 -16.671875 C 4.65625 -16.335938 4.828125 -15.914062 4.828125 -15.40625 C 4.828125 -14.882812 4.65625 -14.453125 4.3125 -14.109375 C 3.976562 -13.773438 3.554688 -13.609375 3.046875 -13.609375 Z M 3.046875 -13.609375 "/></g></g></g><g fill="#352cab" fill-opacity="1"><g transform="translate(6.858071, 19.05238)"><g><path d="M 12.65625 0 L 12.625 -6.6875 L 9.375 -1.25 L 7.796875 -1.25 L 4.5625 -6.515625 L 4.5625 0 L 1.265625 0 L 1.265625 -12.625 L 4.203125 -12.625 L 8.640625 -5.34375 L 12.96875 -12.625 L 15.90625 -12.625 L 15.9375 0 Z M 12.65625 0 "/></g></g></g><g fill="#352cab" fill-opacity="1"><g transform="translate(24.22104, 19.05238)"><g><path d="M 9.71875 -2.453125 L 4.375 -2.453125 L 3.390625 0 L -0.25 0 L 5.3125 -12.625 L 8.828125 -12.625 L 14.421875 0 L 10.703125 0 Z M 8.671875 -5.078125 L 7.046875 -9.125 L 5.421875 -5.078125 Z M 8.671875 -5.078125 "/></g></g></g><g fill="#352cab" fill-opacity="1"><g transform="translate(38.558133, 19.05238)"><g><path d="M 9.71875 -6.578125 L 12.875 -6.578125 L 12.875 -1.359375 C 12.15625 -0.835938 11.328125 -0.4375 10.390625 -0.15625 C 9.453125 0.113281 8.515625 0.25 7.578125 0.25 C 6.253906 0.25 5.0625 -0.0234375 4 -0.578125 C 2.945312 -1.140625 2.117188 -1.921875 1.515625 -2.921875 C 0.910156 -3.921875 0.609375 -5.050781 0.609375 -6.3125 C 0.609375 -7.570312 0.910156 -8.703125 1.515625 -9.703125 C 2.117188 -10.703125 2.953125 -11.476562 4.015625 -12.03125 C 5.085938 -12.59375 6.296875 -12.875 7.640625 -12.875 C 8.816406 -12.875 9.875 -12.675781 10.8125 -12.28125 C 11.75 -11.882812 12.53125 -11.3125 13.15625 -10.5625 L 10.890625 -8.515625 C 10.035156 -9.453125 9.015625 -9.921875 7.828125 -9.921875 C 6.742188 -9.921875 5.867188 -9.59375 5.203125 -8.9375 C 4.546875 -8.28125 4.21875 -7.40625 4.21875 -6.3125 C 4.21875 -5.613281 4.367188 -4.988281 4.671875 -4.4375 C 4.972656 -3.894531 5.394531 -3.46875 5.9375 -3.15625 C 6.476562 -2.851562 7.097656 -2.703125 7.796875 -2.703125 C 8.472656 -2.703125 9.113281 -2.84375 9.71875 -3.125 Z M 9.71875 -6.578125 "/></g></g></g><g fill="#352cab" fill-opacity="1"><g transform="translate(52.607036, 19.05238)"><g><path d="M 11.390625 -2.765625 L 11.390625 0 L 1.265625 0 L 1.265625 -12.625 L 11.15625 -12.625 L 11.15625 -9.859375 L 4.796875 -9.859375 L 4.796875 -7.734375 L 10.40625 -7.734375 L 10.40625 -5.0625 L 4.796875 -5.0625 L 4.796875 -2.765625 Z M 11.390625 -2.765625 "/></g></g></g><g fill="#352cab" fill-opacity="1"><g transform="translate(64.890844, 19.05238)"><g/></g></g><g fill="#352cab" fill-opacity="1"><g transform="translate(70.312386, 19.05238)"><g><path d="M 1.265625 -12.625 L 7.234375 -12.625 C 8.609375 -12.625 9.832031 -12.363281 10.90625 -11.84375 C 11.976562 -11.332031 12.804688 -10.597656 13.390625 -9.640625 C 13.984375 -8.691406 14.28125 -7.582031 14.28125 -6.3125 C 14.28125 -5.039062 13.984375 -3.925781 13.390625 -2.96875 C 12.804688 -2.019531 11.976562 -1.285156 10.90625 -0.765625 C 9.832031 -0.253906 8.609375 0 7.234375 0 L 1.265625 0 Z M 7.09375 -2.84375 C 8.164062 -2.84375 9.03125 -3.148438 9.6875 -3.765625 C 10.34375 -4.378906 10.671875 -5.226562 10.671875 -6.3125 C 10.671875 -7.394531 10.34375 -8.238281 9.6875 -8.84375 C 9.03125 -9.457031 8.164062 -9.765625 7.09375 -9.765625 L 4.828125 -9.765625 L 4.828125 -2.84375 Z M 7.09375 -2.84375 "/></g></g></g><g fill="#352cab" fill-opacity="1"><g transform="translate(85.369922, 19.05238)"><g><path d="M 7.03125 -12.625 C 8.175781 -12.625 9.164062 -12.429688 10 -12.046875 C 10.84375 -11.671875 11.492188 -11.128906 11.953125 -10.421875 C 12.410156 -9.722656 12.640625 -8.898438 12.640625 -7.953125 C 12.640625 -7.003906 12.410156 -6.179688 11.953125 -5.484375 C 11.492188 -4.785156 10.84375 -4.242188 10 -3.859375 C 9.164062 -3.484375 8.175781 -3.296875 7.03125 -3.296875 L 4.828125 -3.296875 L 4.828125 0 L 1.265625 0 L 1.265625 -12.625 Z M 6.8125 -6.109375 C 7.550781 -6.109375 8.101562 -6.265625 8.46875 -6.578125 C 8.84375 -6.898438 9.03125 -7.359375 9.03125 -7.953125 C 9.03125 -8.535156 8.84375 -8.988281 8.46875 -9.3125 C 8.101562 -9.644531 7.550781 -9.8125 6.8125 -9.8125 L 4.828125 -9.8125 L 4.828125 -6.109375 Z M 6.8125 -6.109375 "/></g></g></g><g fill="#352cab" fill-opacity="1"><g transform="translate(98.824457, 19.05238)"><g><path d="M 1.265625 -12.625 L 4.828125 -12.625 L 4.828125 0 L 1.265625 0 Z M 3.046875 -13.609375 C 2.515625 -13.609375 2.082031 -13.773438 1.75 -14.109375 C 1.425781 -14.453125 1.265625 -14.882812 1.265625 -15.40625 C 1.265625 -15.914062 1.429688 -16.335938 1.765625 -16.671875 C 2.097656 -17.003906 2.523438 -17.171875 3.046875 -17.171875 C 3.554688 -17.171875 3.976562 -17.003906 4.3125 -16.671875 C 4.65625 -16.335938 4.828125 -15.914062 4.828125 -15.40625 C 4.828125 -14.882812 4.65625 -14.453125 4.3125 -14.109375 C 3.976562 -13.773438 3.554688 -13.609375 3.046875 -13.609375 Z M 3.046875 -13.609375 "/></g></g></g><g fill="#352cab" fill-opacity="1"><g transform="translate(105.122412, 19.05238)"><g/></g></g><g fill="#352cab" fill-opacity="1"><g transform="translate(0.571982, 37.474639)"><g><path d="M 7.5625 0.25 C 6.238281 0.25 5.050781 -0.0234375 4 -0.578125 C 2.945312 -1.140625 2.117188 -1.921875 1.515625 -2.921875 C 0.910156 -3.921875 0.609375 -5.050781 0.609375 -6.3125 C 0.609375 -7.570312 0.910156 -8.703125 1.515625 -9.703125 C 2.117188 -10.703125 2.945312 -11.476562 4 -12.03125 C 5.050781 -12.59375 6.238281 -12.875 7.5625 -12.875 C 8.707031 -12.875 9.742188 -12.664062 10.671875 -12.25 C 11.597656 -11.84375 12.367188 -11.257812 12.984375 -10.5 L 10.703125 -8.4375 C 9.890625 -9.425781 8.898438 -9.921875 7.734375 -9.921875 C 7.046875 -9.921875 6.4375 -9.769531 5.90625 -9.46875 C 5.375 -9.164062 4.957031 -8.738281 4.65625 -8.1875 C 4.363281 -7.644531 4.21875 -7.019531 4.21875 -6.3125 C 4.21875 -5.601562 4.363281 -4.972656 4.65625 -4.421875 C 4.957031 -3.878906 5.375 -3.457031 5.90625 -3.15625 C 6.4375 -2.851562 7.046875 -2.703125 7.734375 -2.703125 C 8.898438 -2.703125 9.890625 -3.195312 10.703125 -4.1875 L 12.984375 -2.125 C 12.367188 -1.351562 11.597656 -0.765625 10.671875 -0.359375 C 9.742188 0.046875 8.707031 0.25 7.5625 0.25 Z M 7.5625 0.25 "/></g></g></g><g fill="#352cab" fill-opacity="1"><g transform="translate(14.044528, 37.474639)"><g><path d="M 7.625 0.25 C 6.289062 0.25 5.09375 -0.03125 4.03125 -0.59375 C 2.96875 -1.15625 2.128906 -1.9375 1.515625 -2.9375 C 0.910156 -3.9375 0.609375 -5.0625 0.609375 -6.3125 C 0.609375 -7.5625 0.910156 -8.679688 1.515625 -9.671875 C 2.128906 -10.671875 2.96875 -11.453125 4.03125 -12.015625 C 5.09375 -12.585938 6.289062 -12.875 7.625 -12.875 C 8.957031 -12.875 10.15625 -12.585938 11.21875 -12.015625 C 12.28125 -11.453125 13.113281 -10.671875 13.71875 -9.671875 C 14.332031 -8.679688 14.640625 -7.5625 14.640625 -6.3125 C 14.640625 -5.0625 14.332031 -3.9375 13.71875 -2.9375 C 13.113281 -1.9375 12.28125 -1.15625 11.21875 -0.59375 C 10.15625 -0.03125 8.957031 0.25 7.625 0.25 Z M 7.625 -2.703125 C 8.257812 -2.703125 8.835938 -2.851562 9.359375 -3.15625 C 9.878906 -3.457031 10.285156 -3.878906 10.578125 -4.421875 C 10.878906 -4.972656 11.03125 -5.601562 11.03125 -6.3125 C 11.03125 -7.019531 10.878906 -7.644531 10.578125 -8.1875 C 10.285156 -8.738281 9.878906 -9.164062 9.359375 -9.46875 C 8.835938 -9.769531 8.257812 -9.921875 7.625 -9.921875 C 6.988281 -9.921875 6.410156 -9.769531 5.890625 -9.46875 C 5.378906 -9.164062 4.972656 -8.738281 4.671875 -8.1875 C 4.367188 -7.644531 4.21875 -7.019531 4.21875 -6.3125 C 4.21875 -5.601562 4.367188 -4.972656 4.671875 -4.421875 C 4.972656 -3.878906 5.378906 -3.457031 5.890625 -3.15625 C 6.410156 -2.851562 6.988281 -2.703125 7.625 -2.703125 Z M 7.625 -2.703125 "/></g></g></g><g fill="#352cab" fill-opacity="1"><g transform="translate(29.462275, 37.474639)"><g><path d="M 13.265625 -12.625 L 13.265625 0 L 10.328125 0 L 4.765625 -6.71875 L 4.765625 0 L 1.265625 0 L 1.265625 -12.625 L 4.203125 -12.625 L 9.765625 -5.890625 L 9.765625 -12.625 Z M 13.265625 -12.625 "/></g></g></g><g fill="#352cab" fill-opacity="1"><g transform="translate(44.159579, 37.474639)"><g><path d="M 14.0625 -12.625 L 8.65625 0 L 5.140625 0 L -0.25 -12.625 L 3.609375 -12.625 L 7.03125 -4.40625 L 10.53125 -12.625 Z M 14.0625 -12.625 "/></g></g></g><g fill="#352cab" fill-opacity="1"><g transform="translate(58.136441, 37.474639)"><g><path d="M 11.390625 -2.765625 L 11.390625 0 L 1.265625 0 L 1.265625 -12.625 L 11.15625 -12.625 L 11.15625 -9.859375 L 4.796875 -9.859375 L 4.796875 -7.734375 L 10.40625 -7.734375 L 10.40625 -5.0625 L 4.796875 -5.0625 L 4.796875 -2.765625 Z M 11.390625 -2.765625 "/></g></g></g><g fill="#352cab" fill-opacity="1"><g transform="translate(70.420249, 37.474639)"><g><path d="M 6.78125 -3.359375 L 4.828125 -3.359375 L 4.828125 0 L 1.265625 0 L 1.265625 -12.625 L 7.03125 -12.625 C 8.175781 -12.625 9.164062 -12.429688 10 -12.046875 C 10.84375 -11.671875 11.492188 -11.128906 11.953125 -10.421875 C 12.410156 -9.722656 12.640625 -8.898438 12.640625 -7.953125 C 12.640625 -7.035156 12.425781 -6.238281 12 -5.5625 C 11.570312 -4.882812 10.960938 -4.351562 10.171875 -3.96875 L 12.890625 0 L 9.0625 0 Z M 9.03125 -7.953125 C 9.03125 -8.535156 8.84375 -8.988281 8.46875 -9.3125 C 8.101562 -9.644531 7.550781 -9.8125 6.8125 -9.8125 L 4.828125 -9.8125 L 4.828125 -6.109375 L 6.8125 -6.109375 C 7.550781 -6.109375 8.101562 -6.265625 8.46875 -6.578125 C 8.84375 -6.898438 9.03125 -7.359375 9.03125 -7.953125 Z M 9.03125 -7.953125 "/></g></g></g><g fill="#352cab" fill-opacity="1"><g transform="translate(83.928815, 37.474639)"><g><path d="M 3.953125 -9.796875 L 0.078125 -9.796875 L 0.078125 -12.625 L 11.375 -12.625 L 11.375 -9.796875 L 7.515625 -9.796875 L 7.515625 0 L 3.953125 0 Z M 3.953125 -9.796875 "/></g></g></g><g fill="#352cab" fill-opacity="1"><g transform="translate(95.546213, 37.474639)"><g><path d="M 11.390625 -2.765625 L 11.390625 0 L 1.265625 0 L 1.265625 -12.625 L 11.15625 -12.625 L 11.15625 -9.859375 L 4.796875 -9.859375 L 4.796875 -7.734375 L 10.40625 -7.734375 L 10.40625 -5.0625 L 4.796875 -5.0625 L 4.796875 -2.765625 Z M 11.390625 -2.765625 "/></g></g></g><g fill="#352cab" fill-opacity="1"><g transform="translate(107.830021, 37.474639)"><g><path d="M 6.78125 -3.359375 L 4.828125 -3.359375 L 4.828125 0 L 1.265625 0 L 1.265625 -12.625 L 7.03125 -12.625 C 8.175781 -12.625 9.164062 -12.429688 10 -12.046875 C 10.84375 -11.671875 11.492188 -11.128906 11.953125 -10.421875 C 12.410156 -9.722656 12.640625 -8.898438 12.640625 -7.953125 C 12.640625 -7.035156 12.425781 -6.238281 12 -5.5625 C 11.570312 -4.882812 10.960938 -4.351562 10.171875 -3.96875 L 12.890625 0 L 9.0625 0 Z M 9.03125 -7.953125 C 9.03125 -8.535156 8.84375 -8.988281 8.46875 -9.3125 C 8.101562 -9.644531 7.550781 -9.8125 6.8125 -9.8125 L 4.828125 -9.8125 L 4.828125 -6.109375 L 6.8125 -6.109375 C 7.550781 -6.109375 8.101562 -6.265625 8.46875 -6.578125 C 8.84375 -6.898438 9.03125 -7.359375 9.03125 -7.953125 Z M 9.03125 -7.953125 "/></g></g></g></g></g><g transform="matrix(1, 0, 0, 1, 64, 7)"><g clip-path="url(#a040d55cfc)"><g fill="#06d2dd" fill-opacity="1"><g transform="translate(0.622964, 19.05238)"><g><path d="M 1.265625 -12.625 L 4.828125 -12.625 L 4.828125 0 L 1.265625 0 Z M 3.046875 -13.609375 C 2.515625 -13.609375 2.082031 -13.773438 1.75 -14.109375 C 1.425781 -14.453125 1.265625 -14.882812 1.265625 -15.40625 C 1.265625 -15.914062 1.429688 -16.335938 1.765625 -16.671875 C 2.097656 -17.003906 2.523438 -17.171875 3.046875 -17.171875 C 3.554688 -17.171875 3.976562 -17.003906 4.3125 -16.671875 C 4.65625 -16.335938 4.828125 -15.914062 4.828125 -15.40625 C 4.828125 -14.882812 4.65625 -14.453125 4.3125 -14.109375 C 3.976562 -13.773438 3.554688 -13.609375 3.046875 -13.609375 Z M 3.046875 -13.609375 "/></g></g></g><g fill="#06d2dd" fill-opacity="1"><g transform="translate(6.872991, 19.05238)"><g><path d="M 12.65625 0 L 12.625 -6.6875 L 9.375 -1.25 L 7.796875 -1.25 L 4.5625 -6.515625 L 4.5625 0 L 1.265625 0 L 1.265625 -12.625 L 4.203125 -12.625 L 8.640625 -5.34375 L 12.96875 -12.625 L 15.90625 -12.625 L 15.9375 0 Z M 12.65625 0 "/></g></g></g><g fill="#06d2dd" fill-opacity="1"><g transform="translate(24.199898, 19.05238)"><g><path d="M 9.71875 -2.453125 L 4.375 -2.453125 L 3.390625 0 L -0.25 0 L 5.3125 -12.625 L 8.828125 -12.625 L 14.421875 0 L 10.703125 0 Z M 8.671875 -5.078125 L 7.046875 -9.125 L 5.421875 -5.078125 Z M 8.671875 -5.078125 "/></g></g></g><g fill="#06d2dd" fill-opacity="1"><g transform="translate(38.50093, 19.05238)"><g><path d="M 9.71875 -6.578125 L 12.875 -6.578125 L 12.875 -1.359375 C 12.15625 -0.835938 11.328125 -0.4375 10.390625 -0.15625 C 9.453125 0.113281 8.515625 0.25 7.578125 0.25 C 6.253906 0.25 5.0625 -0.0234375 4 -0.578125 C 2.945312 -1.140625 2.117188 -1.921875 1.515625 -2.921875 C 0.910156 -3.921875 0.609375 -5.050781 0.609375 -6.3125 C 0.609375 -7.570312 0.910156 -8.703125 1.515625 -9.703125 C 2.117188 -10.703125 2.953125 -11.476562 4.015625 -12.03125 C 5.085938 -12.59375 6.296875 -12.875 7.640625 -12.875 C 8.816406 -12.875 9.875 -12.675781 10.8125 -12.28125 C 11.75 -11.882812 12.53125 -11.3125 13.15625 -10.5625 L 10.890625 -8.515625 C 10.035156 -9.453125 9.015625 -9.921875 7.828125 -9.921875 C 6.742188 -9.921875 5.867188 -9.59375 5.203125 -8.9375 C 4.546875 -8.28125 4.21875 -7.40625 4.21875 -6.3125 C 4.21875 -5.613281 4.367188 -4.988281 4.671875 -4.4375 C 4.972656 -3.894531 5.394531 -3.46875 5.9375 -3.15625 C 6.476562 -2.851562 7.097656 -2.703125 7.796875 -2.703125 C 8.472656 -2.703125 9.113281 -2.84375 9.71875 -3.125 Z M 9.71875 -6.578125 "/></g></g></g><g fill="#06d2dd" fill-opacity="1"><g transform="translate(52.513772, 19.05238)"><g><path d="M 11.390625 -2.765625 L 11.390625 0 L 1.265625 0 L 1.265625 -12.625 L 11.15625 -12.625 L 11.15625 -9.859375 L 4.796875 -9.859375 L 4.796875 -7.734375 L 10.40625 -7.734375 L 10.40625 -5.0625 L 4.796875 -5.0625 L 4.796875 -2.765625 Z M 11.390625 -2.765625 "/></g></g></g><g fill="#352cab" fill-opacity="1"><g transform="translate(64.7719, 19.05238)"><g/></g></g><g fill="#8c30dd" fill-opacity="1"><g transform="translate(70.158766, 19.05238)"><g><path d="M 1.265625 -12.625 L 7.234375 -12.625 C 8.609375 -12.625 9.832031 -12.363281 10.90625 -11.84375 C 11.976562 -11.332031 12.804688 -10.597656 13.390625 -9.640625 C 13.984375 -8.691406 14.28125 -7.582031 14.28125 -6.3125 C 14.28125 -5.039062 13.984375 -3.925781 13.390625 -2.96875 C 12.804688 -2.019531 11.976562 -1.285156 10.90625 -0.765625 C 9.832031 -0.253906 8.609375 0 7.234375 0 L 1.265625 0 Z M 7.09375 -2.84375 C 8.164062 -2.84375 9.03125 -3.148438 9.6875 -3.765625 C 10.34375 -4.378906 10.671875 -5.226562 10.671875 -6.3125 C 10.671875 -7.394531 10.34375 -8.238281 9.6875 -8.84375 C 9.03125 -9.457031 8.164062 -9.765625 7.09375 -9.765625 L 4.828125 -9.765625 L 4.828125 -2.84375 Z M 7.09375 -2.84375 "/></g></g></g><g fill="#8c30dd" fill-opacity="1"><g transform="translate(85.18024, 19.05238)"><g><path d="M 7.03125 -12.625 C 8.175781 -12.625 9.164062 -12.429688 10 -12.046875 C 10.84375 -11.671875 11.492188 -11.128906 11.953125 -10.421875 C 12.410156 -9.722656 12.640625 -8.898438 12.640625 -7.953125 C 12.640625 -7.003906 12.410156 -6.179688 11.953125 -5.484375 C 11.492188 -4.785156 10.84375 -4.242188 10 -3.859375 C 9.164062 -3.484375 8.175781 -3.296875 7.03125 -3.296875 L 4.828125 -3.296875 L 4.828125 0 L 1.265625 0 L 1.265625 -12.625 Z M 6.8125 -6.109375 C 7.550781 -6.109375 8.101562 -6.265625 8.46875 -6.578125 C 8.84375 -6.898438 9.03125 -7.359375 9.03125 -7.953125 C 9.03125 -8.535156 8.84375 -8.988281 8.46875 -9.3125 C 8.101562 -9.644531 7.550781 -9.8125 6.8125 -9.8125 L 4.828125 -9.8125 L 4.828125 -6.109375 Z M 6.8125 -6.109375 "/></g></g></g><g fill="#8c30dd" fill-opacity="1"><g transform="translate(98.598714, 19.05238)"><g><path d="M 1.265625 -12.625 L 4.828125 -12.625 L 4.828125 0 L 1.265625 0 Z M 3.046875 -13.609375 C 2.515625 -13.609375 2.082031 -13.773438 1.75 -14.109375 C 1.425781 -14.453125 1.265625 -14.882812 1.265625 -15.40625 C 1.265625 -15.914062 1.429688 -16.335938 1.765625 -16.671875 C 2.097656 -17.003906 2.523438 -17.171875 3.046875 -17.171875 C 3.554688 -17.171875 3.976562 -17.003906 4.3125 -16.671875 C 4.65625 -16.335938 4.828125 -15.914062 4.828125 -15.40625 C 4.828125 -14.882812 4.65625 -14.453125 4.3125 -14.109375 C 3.976562 -13.773438 3.554688 -13.609375 3.046875 -13.609375 Z M 3.046875 -13.609375 "/></g></g></g><g fill="#352cab" fill-opacity="1"><g transform="translate(104.864985, 19.05238)"><g/></g></g><g fill="#5e17eb" fill-opacity="1"><g transform="translate(0.622964, 37.474639)"><g><path d="M 7.5625 0.25 C 6.238281 0.25 5.050781 -0.0234375 4 -0.578125 C 2.945312 -1.140625 2.117188 -1.921875 1.515625 -2.921875 C 0.910156 -3.921875 0.609375 -5.050781 0.609375 -6.3125 C 0.609375 -7.570312 0.910156 -8.703125 1.515625 -9.703125 C 2.117188 -10.703125 2.945312 -11.476562 4 -12.03125 C 5.050781 -12.59375 6.238281 -12.875 7.5625 -12.875 C 8.707031 -12.875 9.742188 -12.664062 10.671875 -12.25 C 11.597656 -11.84375 12.367188 -11.257812 12.984375 -10.5 L 10.703125 -8.4375 C 9.890625 -9.425781 8.898438 -9.921875 7.734375 -9.921875 C 7.046875 -9.921875 6.4375 -9.769531 5.90625 -9.46875 C 5.375 -9.164062 4.957031 -8.738281 4.65625 -8.1875 C 4.363281 -7.644531 4.21875 -7.019531 4.21875 -6.3125 C 4.21875 -5.601562 4.363281 -4.972656 4.65625 -4.421875 C 4.957031 -3.878906 5.375 -3.457031 5.90625 -3.15625 C 6.4375 -2.851562 7.046875 -2.703125 7.734375 -2.703125 C 8.898438 -2.703125 9.890625 -3.195312 10.703125 -4.1875 L 12.984375 -2.125 C 12.367188 -1.351562 11.597656 -0.765625 10.671875 -0.359375 C 9.742188 0.046875 8.707031 0.25 7.5625 0.25 Z M 7.5625 0.25 "/></g></g></g><g fill="#5e17eb" fill-opacity="1"><g transform="translate(14.059448, 37.474639)"><g><path d="M 7.625 0.25 C 6.289062 0.25 5.09375 -0.03125 4.03125 -0.59375 C 2.96875 -1.15625 2.128906 -1.9375 1.515625 -2.9375 C 0.910156 -3.9375 0.609375 -5.0625 0.609375 -6.3125 C 0.609375 -7.5625 0.910156 -8.679688 1.515625 -9.671875 C 2.128906 -10.671875 2.96875 -11.453125 4.03125 -12.015625 C 5.09375 -12.585938 6.289062 -12.875 7.625 -12.875 C 8.957031 -12.875 10.15625 -12.585938 11.21875 -12.015625 C 12.28125 -11.453125 13.113281 -10.671875 13.71875 -9.671875 C 14.332031 -8.679688 14.640625 -7.5625 14.640625 -6.3125 C 14.640625 -5.0625 14.332031 -3.9375 13.71875 -2.9375 C 13.113281 -1.9375 12.28125 -1.15625 11.21875 -0.59375 C 10.15625 -0.03125 8.957031 0.25 7.625 0.25 Z M 7.625 -2.703125 C 8.257812 -2.703125 8.835938 -2.851562 9.359375 -3.15625 C 9.878906 -3.457031 10.285156 -3.878906 10.578125 -4.421875 C 10.878906 -4.972656 11.03125 -5.601562 11.03125 -6.3125 C 11.03125 -7.019531 10.878906 -7.644531 10.578125 -8.1875 C 10.285156 -8.738281 9.878906 -9.164062 9.359375 -9.46875 C 8.835938 -9.769531 8.257812 -9.921875 7.625 -9.921875 C 6.988281 -9.921875 6.410156 -9.769531 5.890625 -9.46875 C 5.378906 -9.164062 4.972656 -8.738281 4.671875 -8.1875 C 4.367188 -7.644531 4.21875 -7.019531 4.21875 -6.3125 C 4.21875 -5.601562 4.367188 -4.972656 4.671875 -4.421875 C 4.972656 -3.878906 5.378906 -3.457031 5.890625 -3.15625 C 6.410156 -2.851562 6.988281 -2.703125 7.625 -2.703125 Z M 7.625 -2.703125 "/></g></g></g><g fill="#5e17eb" fill-opacity="1"><g transform="translate(29.441134, 37.474639)"><g><path d="M 13.265625 -12.625 L 13.265625 0 L 10.328125 0 L 4.765625 -6.71875 L 4.765625 0 L 1.265625 0 L 1.265625 -12.625 L 4.203125 -12.625 L 9.765625 -5.890625 L 9.765625 -12.625 Z M 13.265625 -12.625 "/></g></g></g><g fill="#5e17eb" fill-opacity="1"><g transform="translate(44.102377, 37.474639)"><g><path d="M 14.0625 -12.625 L 8.65625 0 L 5.140625 0 L -0.25 -12.625 L 3.609375 -12.625 L 7.03125 -4.40625 L 10.53125 -12.625 Z M 14.0625 -12.625 "/></g></g></g><g fill="#5e17eb" fill-opacity="1"><g transform="translate(58.043177, 37.474639)"><g><path d="M 11.390625 -2.765625 L 11.390625 0 L 1.265625 0 L 1.265625 -12.625 L 11.15625 -12.625 L 11.15625 -9.859375 L 4.796875 -9.859375 L 4.796875 -7.734375 L 10.40625 -7.734375 L 10.40625 -5.0625 L 4.796875 -5.0625 L 4.796875 -2.765625 Z M 11.390625 -2.765625 "/></g></g></g><g fill="#5e17eb" fill-opacity="1"><g transform="translate(70.290924, 37.474639)"><g><path d="M 6.78125 -3.359375 L 4.828125 -3.359375 L 4.828125 0 L 1.265625 0 L 1.265625 -12.625 L 7.03125 -12.625 C 8.175781 -12.625 9.164062 -12.429688 10 -12.046875 C 10.84375 -11.671875 11.492188 -11.128906 11.953125 -10.421875 C 12.410156 -9.722656 12.640625 -8.898438 12.640625 -7.953125 C 12.640625 -7.035156 12.425781 -6.238281 12 -5.5625 C 11.570312 -4.882812 10.960938 -4.351562 10.171875 -3.96875 L 12.890625 0 L 9.0625 0 Z M 9.03125 -7.953125 C 9.03125 -8.535156 8.84375 -8.988281 8.46875 -9.3125 C 8.101562 -9.644531 7.550781 -9.8125 6.8125 -9.8125 L 4.828125 -9.8125 L 4.828125 -6.109375 L 6.8125 -6.109375 C 7.550781 -6.109375 8.101562 -6.265625 8.46875 -6.578125 C 8.84375 -6.898438 9.03125 -7.359375 9.03125 -7.953125 Z M 9.03125 -7.953125 "/></g></g></g><g fill="#5e17eb" fill-opacity="1"><g transform="translate(83.763429, 37.474639)"><g><path d="M 3.953125 -9.796875 L 0.078125 -9.796875 L 0.078125 -12.625 L 11.375 -12.625 L 11.375 -9.796875 L 7.515625 -9.796875 L 7.515625 0 L 3.953125 0 Z M 3.953125 -9.796875 "/></g></g></g><g fill="#5e17eb" fill-opacity="1"><g transform="translate(95.344765, 37.474639)"><g><path d="M 11.390625 -2.765625 L 11.390625 0 L 1.265625 0 L 1.265625 -12.625 L 11.15625 -12.625 L 11.15625 -9.859375 L 4.796875 -9.859375 L 4.796875 -7.734375 L 10.40625 -7.734375 L 10.40625 -5.0625 L 4.796875 -5.0625 L 4.796875 -2.765625 Z M 11.390625 -2.765625 "/></g></g></g><g fill="#5e17eb" fill-opacity="1"><g transform="translate(107.592512, 37.474639)"><g><path d="M 6.78125 -3.359375 L 4.828125 -3.359375 L 4.828125 0 L 1.265625 0 L 1.265625 -12.625 L 7.03125 -12.625 C 8.175781 -12.625 9.164062 -12.429688 10 -12.046875 C 10.84375 -11.671875 11.492188 -11.128906 11.953125 -10.421875 C 12.410156 -9.722656 12.640625 -8.898438 12.640625 -7.953125 C 12.640625 -7.035156 12.425781 -6.238281 12 -5.5625 C 11.570312 -4.882812 10.960938 -4.351562 10.171875 -3.96875 L 12.890625 0 L 9.0625 0 Z M 9.03125 -7.953125 C 9.03125 -8.535156 8.84375 -8.988281 8.46875 -9.3125 C 8.101562 -9.644531 7.550781 -9.8125 6.8125 -9.8125 L 4.828125 -9.8125 L 4.828125 -6.109375 L 6.8125 -6.109375 C 7.550781 -6.109375 8.101562 -6.265625 8.46875 -6.578125 C 8.84375 -6.898438 9.03125 -7.359375 9.03125 -7.953125 Z M 9.03125 -7.953125 "/></g></g></g></g></g></svg>