<svg xmlns="http://www.w3.org/2000/svg" xmlns:xlink="http://www.w3.org/1999/xlink" width="288" zoomAndPan="magnify" viewBox="0 0 216 60" height="80" preserveAspectRatio="xMidYMid meet" version="1.0"><defs><g/><clipPath id="9f15b226b7"><path d="M 74 14 L 76.300781 14 L 76.300781 17 L 74 17 Z M 74 14 " clip-rule="nonzero"/></clipPath><clipPath id="84ef70aa15"><path d="M 9.550781 2.191406 L 59 2.191406 L 59 56.941406 L 9.550781 56.941406 Z M 9.550781 2.191406 " clip-rule="nonzero"/></clipPath></defs><path fill="#5e17eb" d="M 55.011719 12.328125 L 61.875 12.328125 L 61.875 19.195312 L 55.011719 19.195312 Z M 55.011719 12.328125 " fill-opacity="1" fill-rule="evenodd"/><path fill="#352cab" d="M 61.722656 21.558594 L 66.988281 21.558594 L 66.988281 26.820312 L 61.722656 26.820312 Z M 61.722656 21.558594 " fill-opacity="1" fill-rule="evenodd"/><path fill="#5e17eb" d="M 67.214844 14.160156 L 71.488281 14.160156 L 71.488281 18.433594 L 67.214844 18.433594 Z M 67.214844 14.160156 " fill-opacity="1" fill-rule="evenodd"/><g clip-path="url(#9f15b226b7)"><path fill="#352cab" d="M 74.5 14.425781 L 76.558594 14.425781 L 76.558594 16.484375 L 74.5 16.484375 Z M 74.5 14.425781 " fill-opacity="1" fill-rule="evenodd"/></g><path fill="#352cab" d="M 70.839844 8.972656 L 73.355469 8.972656 L 73.355469 11.488281 L 70.839844 11.488281 Z M 70.839844 8.972656 " fill-opacity="1" fill-rule="evenodd"/><path fill="#5e17eb" d="M 67.75 3.976562 L 69.808594 3.976562 L 69.808594 6.035156 L 67.75 6.035156 Z M 67.75 3.976562 " fill-opacity="1" fill-rule="evenodd"/><path fill="#8c30dd" d="M 73.46875 4.207031 L 74.234375 4.207031 L 74.234375 4.96875 L 73.46875 4.96875 Z M 73.46875 4.207031 " fill-opacity="1" fill-rule="evenodd"/><path fill="#352cab" d="M 39.988281 26.585938 C 39.988281 23.253906 37.289062 20.554688 33.960938 20.554688 L 33.960938 10.292969 C 28.621094 14.976562 22.253906 18.332031 15.339844 19.992188 C 15.714844 27.21875 17.632812 34.609375 21.441406 40.773438 C 24.320312 45.433594 28.585938 49.765625 33.960938 51.355469 L 33.960938 38.890625 L 40.648438 38.890625 L 37.742188 31.28125 C 39.144531 30.148438 39.988281 28.433594 39.988281 26.582031 Z M 31.953125 30.699219 C 30.433594 29.957031 29.382812 28.390625 29.382812 26.585938 C 29.382812 24.058594 31.433594 22.007812 33.960938 22.007812 C 36.488281 22.007812 38.535156 24.058594 38.535156 26.585938 C 38.535156 28.390625 37.488281 29.957031 35.964844 30.699219 L 36.246094 31.441406 L 38.535156 37.4375 L 29.382812 37.4375 L 31.671875 31.441406 Z M 31.953125 30.699219 " fill-opacity="1" fill-rule="evenodd"/><g clip-path="url(#84ef70aa15)"><path fill="#5e17eb" d="M 33.960938 8.332031 C 38.929688 12.964844 44.898438 16.363281 51.425781 18.191406 L 51.425781 22.777344 L 53.816406 22.777344 C 53.132812 29.375 51.167969 35.945312 47.710938 41.539062 C 44.558594 46.640625 39.871094 51.273438 33.957031 52.867188 C 28.042969 51.273438 23.355469 46.640625 20.203125 41.539062 C 16.058594 34.832031 14.058594 26.714844 13.839844 18.839844 C 21.398438 17.253906 28.320312 13.585938 33.957031 8.332031 Z M 53.179688 18.640625 L 53.179688 14.242188 C 45.65625 12.273438 39.007812 8.003906 33.960938 2.191406 C 27.789062 9.296875 19.222656 14.101562 9.59375 15.207031 C 9.566406 15.921875 9.550781 16.640625 9.550781 17.363281 C 9.550781 37.570312 20.144531 54.3125 33.960938 57.253906 C 46.933594 54.492188 57.0625 39.5625 58.25 21.023438 L 53.183594 21.023438 L 53.183594 18.640625 Z M 53.179688 18.640625 " fill-opacity="1" fill-rule="evenodd"/></g><g fill="#68ddf1" fill-opacity="1"><g transform="translate(75.488727, 38.915462)"><g><path d="M 1.234375 0 C 1.046875 -0.195312 0.898438 -0.4375 0.796875 -0.71875 C 0.703125 -1.007812 0.65625 -1.304688 0.65625 -1.609375 C 1.226562 -1.609375 1.628906 -1.703125 1.859375 -1.890625 C 2.097656 -2.078125 2.21875 -2.40625 2.21875 -2.875 L 2.21875 -14.71875 C 2.21875 -15.1875 2.097656 -15.515625 1.859375 -15.703125 C 1.628906 -15.898438 1.226562 -16 0.65625 -16 C 0.65625 -16.300781 0.703125 -16.59375 0.796875 -16.875 C 0.898438 -17.15625 1.046875 -17.394531 1.234375 -17.59375 L 7.453125 -17.59375 C 7.828125 -17.207031 8.015625 -16.675781 8.015625 -16 C 7.441406 -16 7.019531 -15.898438 6.75 -15.703125 C 6.476562 -15.503906 6.34375 -15.175781 6.34375 -14.71875 L 6.34375 -2.140625 L 7.28125 -2.140625 C 8.507812 -2.140625 9.421875 -2.539062 10.015625 -3.34375 C 10.609375 -4.15625 10.90625 -5.289062 10.90625 -6.75 L 12.671875 -6.75 C 12.960938 -6.53125 13.191406 -6.0625 13.359375 -5.34375 C 13.523438 -4.625 13.609375 -3.914062 13.609375 -3.21875 C 13.609375 -2.164062 13.421875 -1.363281 13.046875 -0.8125 C 12.679688 -0.269531 12.078125 0 11.234375 0 Z M 1.234375 0 "/></g></g></g><g fill="#68ddf1" fill-opacity="1"><g transform="translate(91.041808, 38.915462)"><g><path d="M 6.75 0.328125 C 4.90625 0.328125 3.425781 -0.253906 2.3125 -1.421875 C 1.207031 -2.585938 0.65625 -4.253906 0.65625 -6.421875 C 0.65625 -7.972656 0.921875 -9.289062 1.453125 -10.375 C 1.984375 -11.46875 2.722656 -12.289062 3.671875 -12.84375 C 4.628906 -13.40625 5.738281 -13.6875 7 -13.6875 C 8.21875 -13.6875 9.28125 -13.421875 10.1875 -12.890625 C 11.101562 -12.359375 11.816406 -11.578125 12.328125 -10.546875 C 12.847656 -9.523438 13.109375 -8.285156 13.109375 -6.828125 C 13.109375 -5.296875 12.84375 -3.992188 12.3125 -2.921875 C 11.78125 -1.847656 11.035156 -1.035156 10.078125 -0.484375 C 9.117188 0.0546875 8.007812 0.328125 6.75 0.328125 Z M 6.953125 -1.484375 C 7.546875 -1.484375 7.984375 -1.816406 8.265625 -2.484375 C 8.546875 -3.160156 8.6875 -4.40625 8.6875 -6.21875 C 8.6875 -7.75 8.609375 -8.925781 8.453125 -9.75 C 8.304688 -10.570312 8.097656 -11.132812 7.828125 -11.4375 C 7.566406 -11.738281 7.226562 -11.890625 6.8125 -11.890625 C 6.21875 -11.890625 5.773438 -11.550781 5.484375 -10.875 C 5.191406 -10.207031 5.046875 -8.953125 5.046875 -7.109375 C 5.046875 -5.597656 5.117188 -4.429688 5.265625 -3.609375 C 5.421875 -2.796875 5.632812 -2.238281 5.90625 -1.9375 C 6.1875 -1.632812 6.535156 -1.484375 6.953125 -1.484375 Z M 6.953125 -1.484375 "/></g></g></g><g fill="#68ddf1" fill-opacity="1"><g transform="translate(106.821745, 38.915462)"><g><path d="M 10.640625 -3.203125 C 10.773438 -3.046875 10.882812 -2.84375 10.96875 -2.59375 C 11.0625 -2.34375 11.109375 -2.125 11.109375 -1.9375 C 11.109375 -1.570312 10.914062 -1.210938 10.53125 -0.859375 C 10.144531 -0.503906 9.628906 -0.210938 8.984375 0.015625 C 8.335938 0.253906 7.632812 0.375 6.875 0.375 C 5.65625 0.375 4.570312 0.0976562 3.625 -0.453125 C 2.6875 -1.003906 1.957031 -1.800781 1.4375 -2.84375 C 0.914062 -3.882812 0.65625 -5.117188 0.65625 -6.546875 C 0.65625 -8.015625 0.9375 -9.285156 1.5 -10.359375 C 2.0625 -11.429688 2.84375 -12.253906 3.84375 -12.828125 C 4.84375 -13.398438 5.960938 -13.6875 7.203125 -13.6875 C 8.453125 -13.6875 9.425781 -13.382812 10.125 -12.78125 C 10.820312 -12.1875 11.171875 -11.429688 11.171875 -10.515625 C 11.171875 -9.722656 10.96875 -9.101562 10.5625 -8.65625 C 10.15625 -8.207031 9.632812 -7.984375 9 -7.984375 C 8.476562 -7.984375 8.039062 -8.175781 7.6875 -8.5625 C 7.332031 -8.957031 7.15625 -9.429688 7.15625 -9.984375 C 7.15625 -10.347656 7.222656 -10.65625 7.359375 -10.90625 C 7.492188 -11.164062 7.675781 -11.394531 7.90625 -11.59375 C 7.644531 -11.75 7.40625 -11.828125 7.1875 -11.828125 C 6.613281 -11.828125 6.109375 -11.484375 5.671875 -10.796875 C 5.234375 -10.117188 5.015625 -9 5.015625 -7.4375 C 5.015625 -5.65625 5.273438 -4.375 5.796875 -3.59375 C 6.316406 -2.8125 7.082031 -2.421875 8.09375 -2.421875 C 8.5625 -2.421875 9.023438 -2.488281 9.484375 -2.625 C 9.953125 -2.757812 10.335938 -2.953125 10.640625 -3.203125 Z M 10.640625 -3.203125 "/></g></g></g><g fill="#68ddf1" fill-opacity="1"><g transform="translate(120.484296, 38.915462)"><g><path d="M 14.6875 -0.859375 C 14.644531 -0.503906 14.414062 -0.226562 14 -0.03125 C 13.59375 0.15625 13.066406 0.25 12.421875 0.25 C 11.566406 0.25 10.859375 0.0664062 10.296875 -0.296875 C 9.734375 -0.671875 9.289062 -1.117188 8.96875 -1.640625 C 8.65625 -2.160156 8.3125 -2.835938 7.9375 -3.671875 C 7.570312 -4.503906 7.25 -5.132812 6.96875 -5.5625 C 6.6875 -6 6.328125 -6.304688 5.890625 -6.484375 L 5.890625 -2.625 C 5.890625 -2.132812 5.992188 -1.785156 6.203125 -1.578125 C 6.421875 -1.367188 6.789062 -1.265625 7.3125 -1.265625 C 7.3125 -0.742188 7.109375 -0.296875 6.703125 0.078125 L 1.15625 0.078125 C 0.75 -0.273438 0.546875 -0.722656 0.546875 -1.265625 C 1.054688 -1.265625 1.414062 -1.367188 1.625 -1.578125 C 1.832031 -1.785156 1.9375 -2.132812 1.9375 -2.625 L 1.9375 -16.28125 C 1.9375 -16.695312 1.816406 -17.007812 1.578125 -17.21875 C 1.347656 -17.4375 0.90625 -17.546875 0.25 -17.546875 L 0.25 -18.546875 C 0.851562 -18.867188 1.617188 -19.15625 2.546875 -19.40625 C 3.484375 -19.65625 4.222656 -19.78125 4.765625 -19.78125 C 5.171875 -19.78125 5.457031 -19.6875 5.625 -19.5 C 5.800781 -19.320312 5.890625 -19.019531 5.890625 -18.59375 L 5.890625 -7.390625 L 8.671875 -10.25 C 8.992188 -10.570312 9.15625 -10.828125 9.15625 -11.015625 C 9.15625 -11.242188 8.972656 -11.457031 8.609375 -11.65625 C 8.242188 -11.863281 7.894531 -11.96875 7.5625 -11.96875 C 7.5625 -12.257812 7.609375 -12.535156 7.703125 -12.796875 C 7.804688 -13.066406 7.953125 -13.304688 8.140625 -13.515625 L 13.8125 -13.515625 C 14.132812 -13.191406 14.296875 -12.675781 14.296875 -11.96875 C 13.890625 -11.96875 13.570312 -11.910156 13.34375 -11.796875 C 13.113281 -11.679688 12.882812 -11.515625 12.65625 -11.296875 L 8.828125 -7.515625 C 9.441406 -7.410156 9.960938 -7.203125 10.390625 -6.890625 C 10.816406 -6.578125 11.207031 -6.101562 11.5625 -5.46875 C 11.988281 -4.707031 12.207031 -4.3125 12.21875 -4.28125 C 12.78125 -3.257812 13.195312 -2.578125 13.46875 -2.234375 C 13.75 -1.890625 14.148438 -1.632812 14.671875 -1.46875 Z M 14.6875 -0.859375 "/></g></g></g><g fill="#8c30dd" fill-opacity="1"><g transform="translate(137.258255, 38.915462)"><g><path d="M 7.359375 0.28125 C 6.972656 0.28125 6.503906 0.253906 5.953125 0.203125 C 4.148438 0.0664062 2.566406 0 1.203125 0 C 0.835938 -0.46875 0.65625 -1.003906 0.65625 -1.609375 C 1.207031 -1.609375 1.601562 -1.703125 1.84375 -1.890625 C 2.09375 -2.085938 2.21875 -2.421875 2.21875 -2.890625 L 2.21875 -14.75 C 2.21875 -15.195312 2.09375 -15.515625 1.84375 -15.703125 C 1.601562 -15.898438 1.207031 -16 0.65625 -16 C 0.65625 -16.644531 0.835938 -17.175781 1.203125 -17.59375 C 2.484375 -17.59375 3.632812 -17.625 4.65625 -17.6875 C 5.6875 -17.757812 6.296875 -17.800781 6.484375 -17.8125 C 7.046875 -17.863281 7.457031 -17.890625 7.71875 -17.890625 C 9.582031 -17.890625 11.144531 -17.503906 12.40625 -16.734375 C 13.675781 -15.960938 14.617188 -14.914062 15.234375 -13.59375 C 15.847656 -12.28125 16.15625 -10.804688 16.15625 -9.171875 C 16.15625 -7.378906 15.835938 -5.769531 15.203125 -4.34375 C 14.578125 -2.925781 13.609375 -1.800781 12.296875 -0.96875 C 10.984375 -0.132812 9.335938 0.28125 7.359375 0.28125 Z M 7.15625 -1.8125 C 8.601562 -1.8125 9.71875 -2.359375 10.5 -3.453125 C 11.28125 -4.554688 11.671875 -6.335938 11.671875 -8.796875 C 11.671875 -11.160156 11.253906 -12.929688 10.421875 -14.109375 C 9.585938 -15.285156 8.429688 -15.875 6.953125 -15.875 C 6.671875 -15.875 6.46875 -15.859375 6.34375 -15.828125 L 6.34375 -1.859375 C 6.519531 -1.828125 6.789062 -1.8125 7.15625 -1.8125 Z M 7.15625 -1.8125 "/></g></g></g><g fill="#8c30dd" fill-opacity="1"><g transform="translate(156.11346, 38.915462)"><g><path d="M 6.75 0.328125 C 4.90625 0.328125 3.425781 -0.253906 2.3125 -1.421875 C 1.207031 -2.585938 0.65625 -4.253906 0.65625 -6.421875 C 0.65625 -7.972656 0.921875 -9.289062 1.453125 -10.375 C 1.984375 -11.46875 2.722656 -12.289062 3.671875 -12.84375 C 4.628906 -13.40625 5.738281 -13.6875 7 -13.6875 C 8.21875 -13.6875 9.28125 -13.421875 10.1875 -12.890625 C 11.101562 -12.359375 11.816406 -11.578125 12.328125 -10.546875 C 12.847656 -9.523438 13.109375 -8.285156 13.109375 -6.828125 C 13.109375 -5.296875 12.84375 -3.992188 12.3125 -2.921875 C 11.78125 -1.847656 11.035156 -1.035156 10.078125 -0.484375 C 9.117188 0.0546875 8.007812 0.328125 6.75 0.328125 Z M 6.953125 -1.484375 C 7.546875 -1.484375 7.984375 -1.816406 8.265625 -2.484375 C 8.546875 -3.160156 8.6875 -4.40625 8.6875 -6.21875 C 8.6875 -7.75 8.609375 -8.925781 8.453125 -9.75 C 8.304688 -10.570312 8.097656 -11.132812 7.828125 -11.4375 C 7.566406 -11.738281 7.226562 -11.890625 6.8125 -11.890625 C 6.21875 -11.890625 5.773438 -11.550781 5.484375 -10.875 C 5.191406 -10.207031 5.046875 -8.953125 5.046875 -7.109375 C 5.046875 -5.597656 5.117188 -4.429688 5.265625 -3.609375 C 5.421875 -2.796875 5.632812 -2.238281 5.90625 -1.9375 C 6.1875 -1.632812 6.535156 -1.484375 6.953125 -1.484375 Z M 6.953125 -1.484375 "/></g></g></g><g fill="#8c30dd" fill-opacity="1"><g transform="translate(171.893397, 38.915462)"><g><path d="M 20.28125 -13.390625 C 20.625 -13.066406 20.796875 -12.5625 20.796875 -11.875 C 20.304688 -11.875 19.929688 -11.785156 19.671875 -11.609375 C 19.410156 -11.441406 19.222656 -11.144531 19.109375 -10.71875 L 16.859375 -2.578125 C 16.660156 -1.847656 16.472656 -1.296875 16.296875 -0.921875 C 16.128906 -0.554688 15.894531 -0.28125 15.59375 -0.09375 C 15.289062 0.0820312 14.875 0.171875 14.34375 0.171875 L 12.34375 0.171875 L 9.984375 -7.390625 L 8.625 -2.515625 C 8.363281 -1.597656 8.113281 -0.945312 7.875 -0.5625 C 7.632812 -0.1875 7.253906 0.0507812 6.734375 0.15625 L 6.734375 0.171875 L 4.15625 0.171875 L 0.734375 -10.5625 C 0.566406 -11.050781 0.382812 -11.390625 0.1875 -11.578125 C 0 -11.773438 -0.304688 -11.875 -0.734375 -11.875 C -0.734375 -12.53125 -0.554688 -13.035156 -0.203125 -13.390625 L 5.46875 -13.390625 C 5.65625 -13.203125 5.796875 -12.96875 5.890625 -12.6875 C 5.992188 -12.414062 6.046875 -12.144531 6.046875 -11.875 C 5.691406 -11.875 5.40625 -11.773438 5.1875 -11.578125 C 4.96875 -11.390625 4.859375 -11.109375 4.859375 -10.734375 C 4.859375 -10.671875 4.867188 -10.582031 4.890625 -10.46875 C 4.921875 -10.363281 4.945312 -10.273438 4.96875 -10.203125 L 5.625 -6.78125 L 6.375 -3.21875 L 7.484375 -6.78125 L 8.21875 -9.40625 C 8.46875 -10.394531 8.71875 -11.109375 8.96875 -11.546875 C 9.21875 -11.992188 9.613281 -12.21875 10.15625 -12.21875 L 12.09375 -12.203125 L 13.40625 -6.8125 L 14.515625 -3.328125 L 15.078125 -6.8125 L 15.90625 -10.359375 C 15.96875 -10.609375 16 -10.832031 16 -11.03125 C 16 -11.34375 15.914062 -11.5625 15.75 -11.6875 C 15.582031 -11.8125 15.332031 -11.875 15 -11.875 C 15 -12.5625 15.15625 -13.066406 15.46875 -13.390625 Z M 20.28125 -13.390625 "/></g></g></g><g fill="#8c30dd" fill-opacity="1"><g transform="translate(193.975103, 38.915462)"><g><path d="M 14.921875 -0.6875 C 14.671875 -0.425781 14.222656 -0.21875 13.578125 -0.0625 C 12.929688 0.0820312 12.3125 0.15625 11.71875 0.15625 C 11 0.15625 10.46875 0.0195312 10.125 -0.25 C 9.78125 -0.519531 9.609375 -0.945312 9.609375 -1.53125 L 9.609375 -9.40625 C 9.609375 -10.0625 9.460938 -10.53125 9.171875 -10.8125 C 8.890625 -11.09375 8.515625 -11.234375 8.046875 -11.234375 C 7.347656 -11.234375 6.765625 -10.957031 6.296875 -10.40625 L 6.296875 -2.71875 C 6.296875 -2.226562 6.398438 -1.875 6.609375 -1.65625 C 6.828125 -1.4375 7.1875 -1.328125 7.6875 -1.328125 C 7.6875 -0.828125 7.492188 -0.382812 7.109375 0 L 1.390625 0 C 0.984375 -0.40625 0.78125 -0.847656 0.78125 -1.328125 C 1.28125 -1.328125 1.640625 -1.4375 1.859375 -1.65625 C 2.078125 -1.875 2.1875 -2.226562 2.1875 -2.71875 L 2.1875 -10.078125 C 2.1875 -10.535156 2.0625 -10.859375 1.8125 -11.046875 C 1.5625 -11.242188 1.125 -11.34375 0.5 -11.34375 L 0.5 -12.46875 C 1.039062 -12.769531 1.800781 -13.046875 2.78125 -13.296875 C 3.769531 -13.554688 4.515625 -13.6875 5.015625 -13.6875 C 5.398438 -13.6875 5.695312 -13.5625 5.90625 -13.3125 C 6.113281 -13.070312 6.238281 -12.617188 6.28125 -11.953125 C 6.71875 -12.484375 7.257812 -12.90625 7.90625 -13.21875 C 8.5625 -13.53125 9.300781 -13.6875 10.125 -13.6875 C 11.34375 -13.6875 12.238281 -13.378906 12.8125 -12.765625 C 13.394531 -12.148438 13.6875 -11.144531 13.6875 -9.75 L 13.6875 -2.875 C 13.6875 -2.050781 14.085938 -1.5625 14.890625 -1.40625 Z M 14.921875 -0.6875 "/></g></g></g><g fill="#352cab" fill-opacity="1"><g transform="translate(77.592857, 38.915462)"><g><path d="M 1.234375 0 C 1.046875 -0.195312 0.898438 -0.4375 0.796875 -0.71875 C 0.703125 -1.007812 0.65625 -1.304688 0.65625 -1.609375 C 1.226562 -1.609375 1.628906 -1.703125 1.859375 -1.890625 C 2.097656 -2.078125 2.21875 -2.40625 2.21875 -2.875 L 2.21875 -14.71875 C 2.21875 -15.1875 2.097656 -15.515625 1.859375 -15.703125 C 1.628906 -15.898438 1.226562 -16 0.65625 -16 C 0.65625 -16.300781 0.703125 -16.59375 0.796875 -16.875 C 0.898438 -17.15625 1.046875 -17.394531 1.234375 -17.59375 L 7.453125 -17.59375 C 7.828125 -17.207031 8.015625 -16.675781 8.015625 -16 C 7.441406 -16 7.019531 -15.898438 6.75 -15.703125 C 6.476562 -15.503906 6.34375 -15.175781 6.34375 -14.71875 L 6.34375 -2.140625 L 7.28125 -2.140625 C 8.507812 -2.140625 9.421875 -2.539062 10.015625 -3.34375 C 10.609375 -4.15625 10.90625 -5.289062 10.90625 -6.75 L 12.671875 -6.75 C 12.960938 -6.53125 13.191406 -6.0625 13.359375 -5.34375 C 13.523438 -4.625 13.609375 -3.914062 13.609375 -3.21875 C 13.609375 -2.164062 13.421875 -1.363281 13.046875 -0.8125 C 12.679688 -0.269531 12.078125 0 11.234375 0 Z M 1.234375 0 "/></g></g></g><g fill="#352cab" fill-opacity="1"><g transform="translate(93.145938, 38.915462)"><g><path d="M 6.75 0.328125 C 4.90625 0.328125 3.425781 -0.253906 2.3125 -1.421875 C 1.207031 -2.585938 0.65625 -4.253906 0.65625 -6.421875 C 0.65625 -7.972656 0.921875 -9.289062 1.453125 -10.375 C 1.984375 -11.46875 2.722656 -12.289062 3.671875 -12.84375 C 4.628906 -13.40625 5.738281 -13.6875 7 -13.6875 C 8.21875 -13.6875 9.28125 -13.421875 10.1875 -12.890625 C 11.101562 -12.359375 11.816406 -11.578125 12.328125 -10.546875 C 12.847656 -9.523438 13.109375 -8.285156 13.109375 -6.828125 C 13.109375 -5.296875 12.84375 -3.992188 12.3125 -2.921875 C 11.78125 -1.847656 11.035156 -1.035156 10.078125 -0.484375 C 9.117188 0.0546875 8.007812 0.328125 6.75 0.328125 Z M 6.953125 -1.484375 C 7.546875 -1.484375 7.984375 -1.816406 8.265625 -2.484375 C 8.546875 -3.160156 8.6875 -4.40625 8.6875 -6.21875 C 8.6875 -7.75 8.609375 -8.925781 8.453125 -9.75 C 8.304688 -10.570312 8.097656 -11.132812 7.828125 -11.4375 C 7.566406 -11.738281 7.226562 -11.890625 6.8125 -11.890625 C 6.21875 -11.890625 5.773438 -11.550781 5.484375 -10.875 C 5.191406 -10.207031 5.046875 -8.953125 5.046875 -7.109375 C 5.046875 -5.597656 5.117188 -4.429688 5.265625 -3.609375 C 5.421875 -2.796875 5.632812 -2.238281 5.90625 -1.9375 C 6.1875 -1.632812 6.535156 -1.484375 6.953125 -1.484375 Z M 6.953125 -1.484375 "/></g></g></g><g fill="#352cab" fill-opacity="1"><g transform="translate(108.925875, 38.915462)"><g><path d="M 10.640625 -3.203125 C 10.773438 -3.046875 10.882812 -2.84375 10.96875 -2.59375 C 11.0625 -2.34375 11.109375 -2.125 11.109375 -1.9375 C 11.109375 -1.570312 10.914062 -1.210938 10.53125 -0.859375 C 10.144531 -0.503906 9.628906 -0.210938 8.984375 0.015625 C 8.335938 0.253906 7.632812 0.375 6.875 0.375 C 5.65625 0.375 4.570312 0.0976562 3.625 -0.453125 C 2.6875 -1.003906 1.957031 -1.800781 1.4375 -2.84375 C 0.914062 -3.882812 0.65625 -5.117188 0.65625 -6.546875 C 0.65625 -8.015625 0.9375 -9.285156 1.5 -10.359375 C 2.0625 -11.429688 2.84375 -12.253906 3.84375 -12.828125 C 4.84375 -13.398438 5.960938 -13.6875 7.203125 -13.6875 C 8.453125 -13.6875 9.425781 -13.382812 10.125 -12.78125 C 10.820312 -12.1875 11.171875 -11.429688 11.171875 -10.515625 C 11.171875 -9.722656 10.96875 -9.101562 10.5625 -8.65625 C 10.15625 -8.207031 9.632812 -7.984375 9 -7.984375 C 8.476562 -7.984375 8.039062 -8.175781 7.6875 -8.5625 C 7.332031 -8.957031 7.15625 -9.429688 7.15625 -9.984375 C 7.15625 -10.347656 7.222656 -10.65625 7.359375 -10.90625 C 7.492188 -11.164062 7.675781 -11.394531 7.90625 -11.59375 C 7.644531 -11.75 7.40625 -11.828125 7.1875 -11.828125 C 6.613281 -11.828125 6.109375 -11.484375 5.671875 -10.796875 C 5.234375 -10.117188 5.015625 -9 5.015625 -7.4375 C 5.015625 -5.65625 5.273438 -4.375 5.796875 -3.59375 C 6.316406 -2.8125 7.082031 -2.421875 8.09375 -2.421875 C 8.5625 -2.421875 9.023438 -2.488281 9.484375 -2.625 C 9.953125 -2.757812 10.335938 -2.953125 10.640625 -3.203125 Z M 10.640625 -3.203125 "/></g></g></g><g fill="#352cab" fill-opacity="1"><g transform="translate(122.588426, 38.915462)"><g><path d="M 14.6875 -0.859375 C 14.644531 -0.503906 14.414062 -0.226562 14 -0.03125 C 13.59375 0.15625 13.066406 0.25 12.421875 0.25 C 11.566406 0.25 10.859375 0.0664062 10.296875 -0.296875 C 9.734375 -0.671875 9.289062 -1.117188 8.96875 -1.640625 C 8.65625 -2.160156 8.3125 -2.835938 7.9375 -3.671875 C 7.570312 -4.503906 7.25 -5.132812 6.96875 -5.5625 C 6.6875 -6 6.328125 -6.304688 5.890625 -6.484375 L 5.890625 -2.625 C 5.890625 -2.132812 5.992188 -1.785156 6.203125 -1.578125 C 6.421875 -1.367188 6.789062 -1.265625 7.3125 -1.265625 C 7.3125 -0.742188 7.109375 -0.296875 6.703125 0.078125 L 1.15625 0.078125 C 0.75 -0.273438 0.546875 -0.722656 0.546875 -1.265625 C 1.054688 -1.265625 1.414062 -1.367188 1.625 -1.578125 C 1.832031 -1.785156 1.9375 -2.132812 1.9375 -2.625 L 1.9375 -16.28125 C 1.9375 -16.695312 1.816406 -17.007812 1.578125 -17.21875 C 1.347656 -17.4375 0.90625 -17.546875 0.25 -17.546875 L 0.25 -18.546875 C 0.851562 -18.867188 1.617188 -19.15625 2.546875 -19.40625 C 3.484375 -19.65625 4.222656 -19.78125 4.765625 -19.78125 C 5.171875 -19.78125 5.457031 -19.6875 5.625 -19.5 C 5.800781 -19.320312 5.890625 -19.019531 5.890625 -18.59375 L 5.890625 -7.390625 L 8.671875 -10.25 C 8.992188 -10.570312 9.15625 -10.828125 9.15625 -11.015625 C 9.15625 -11.242188 8.972656 -11.457031 8.609375 -11.65625 C 8.242188 -11.863281 7.894531 -11.96875 7.5625 -11.96875 C 7.5625 -12.257812 7.609375 -12.535156 7.703125 -12.796875 C 7.804688 -13.066406 7.953125 -13.304688 8.140625 -13.515625 L 13.8125 -13.515625 C 14.132812 -13.191406 14.296875 -12.675781 14.296875 -11.96875 C 13.890625 -11.96875 13.570312 -11.910156 13.34375 -11.796875 C 13.113281 -11.679688 12.882812 -11.515625 12.65625 -11.296875 L 8.828125 -7.515625 C 9.441406 -7.410156 9.960938 -7.203125 10.390625 -6.890625 C 10.816406 -6.578125 11.207031 -6.101562 11.5625 -5.46875 C 11.988281 -4.707031 12.207031 -4.3125 12.21875 -4.28125 C 12.78125 -3.257812 13.195312 -2.578125 13.46875 -2.234375 C 13.75 -1.890625 14.148438 -1.632812 14.671875 -1.46875 Z M 14.6875 -0.859375 "/></g></g></g><g fill="#352cab" fill-opacity="1"><g transform="translate(139.351445, 38.915462)"><g><path d="M 7.359375 0.28125 C 6.972656 0.28125 6.503906 0.253906 5.953125 0.203125 C 4.148438 0.0664062 2.566406 0 1.203125 0 C 0.835938 -0.46875 0.65625 -1.003906 0.65625 -1.609375 C 1.207031 -1.609375 1.601562 -1.703125 1.84375 -1.890625 C 2.09375 -2.085938 2.21875 -2.421875 2.21875 -2.890625 L 2.21875 -14.75 C 2.21875 -15.195312 2.09375 -15.515625 1.84375 -15.703125 C 1.601562 -15.898438 1.207031 -16 0.65625 -16 C 0.65625 -16.644531 0.835938 -17.175781 1.203125 -17.59375 C 2.484375 -17.59375 3.632812 -17.625 4.65625 -17.6875 C 5.6875 -17.757812 6.296875 -17.800781 6.484375 -17.8125 C 7.046875 -17.863281 7.457031 -17.890625 7.71875 -17.890625 C 9.582031 -17.890625 11.144531 -17.503906 12.40625 -16.734375 C 13.675781 -15.960938 14.617188 -14.914062 15.234375 -13.59375 C 15.847656 -12.28125 16.15625 -10.804688 16.15625 -9.171875 C 16.15625 -7.378906 15.835938 -5.769531 15.203125 -4.34375 C 14.578125 -2.925781 13.609375 -1.800781 12.296875 -0.96875 C 10.984375 -0.132812 9.335938 0.28125 7.359375 0.28125 Z M 7.15625 -1.8125 C 8.601562 -1.8125 9.71875 -2.359375 10.5 -3.453125 C 11.28125 -4.554688 11.671875 -6.335938 11.671875 -8.796875 C 11.671875 -11.160156 11.253906 -12.929688 10.421875 -14.109375 C 9.585938 -15.285156 8.429688 -15.875 6.953125 -15.875 C 6.671875 -15.875 6.46875 -15.859375 6.34375 -15.828125 L 6.34375 -1.859375 C 6.519531 -1.828125 6.789062 -1.8125 7.15625 -1.8125 Z M 7.15625 -1.8125 "/></g></g></g><g fill="#352cab" fill-opacity="1"><g transform="translate(158.20665, 38.915462)"><g><path d="M 6.75 0.328125 C 4.90625 0.328125 3.425781 -0.253906 2.3125 -1.421875 C 1.207031 -2.585938 0.65625 -4.253906 0.65625 -6.421875 C 0.65625 -7.972656 0.921875 -9.289062 1.453125 -10.375 C 1.984375 -11.46875 2.722656 -12.289062 3.671875 -12.84375 C 4.628906 -13.40625 5.738281 -13.6875 7 -13.6875 C 8.21875 -13.6875 9.28125 -13.421875 10.1875 -12.890625 C 11.101562 -12.359375 11.816406 -11.578125 12.328125 -10.546875 C 12.847656 -9.523438 13.109375 -8.285156 13.109375 -6.828125 C 13.109375 -5.296875 12.84375 -3.992188 12.3125 -2.921875 C 11.78125 -1.847656 11.035156 -1.035156 10.078125 -0.484375 C 9.117188 0.0546875 8.007812 0.328125 6.75 0.328125 Z M 6.953125 -1.484375 C 7.546875 -1.484375 7.984375 -1.816406 8.265625 -2.484375 C 8.546875 -3.160156 8.6875 -4.40625 8.6875 -6.21875 C 8.6875 -7.75 8.609375 -8.925781 8.453125 -9.75 C 8.304688 -10.570312 8.097656 -11.132812 7.828125 -11.4375 C 7.566406 -11.738281 7.226562 -11.890625 6.8125 -11.890625 C 6.21875 -11.890625 5.773438 -11.550781 5.484375 -10.875 C 5.191406 -10.207031 5.046875 -8.953125 5.046875 -7.109375 C 5.046875 -5.597656 5.117188 -4.429688 5.265625 -3.609375 C 5.421875 -2.796875 5.632812 -2.238281 5.90625 -1.9375 C 6.1875 -1.632812 6.535156 -1.484375 6.953125 -1.484375 Z M 6.953125 -1.484375 "/></g></g></g><g fill="#352cab" fill-opacity="1"><g transform="translate(173.986587, 38.915462)"><g><path d="M 20.28125 -13.390625 C 20.625 -13.066406 20.796875 -12.5625 20.796875 -11.875 C 20.304688 -11.875 19.929688 -11.785156 19.671875 -11.609375 C 19.410156 -11.441406 19.222656 -11.144531 19.109375 -10.71875 L 16.859375 -2.578125 C 16.660156 -1.847656 16.472656 -1.296875 16.296875 -0.921875 C 16.128906 -0.554688 15.894531 -0.28125 15.59375 -0.09375 C 15.289062 0.0820312 14.875 0.171875 14.34375 0.171875 L 12.34375 0.171875 L 9.984375 -7.390625 L 8.625 -2.515625 C 8.363281 -1.597656 8.113281 -0.945312 7.875 -0.5625 C 7.632812 -0.1875 7.253906 0.0507812 6.734375 0.15625 L 6.734375 0.171875 L 4.15625 0.171875 L 0.734375 -10.5625 C 0.566406 -11.050781 0.382812 -11.390625 0.1875 -11.578125 C 0 -11.773438 -0.304688 -11.875 -0.734375 -11.875 C -0.734375 -12.53125 -0.554688 -13.035156 -0.203125 -13.390625 L 5.46875 -13.390625 C 5.65625 -13.203125 5.796875 -12.96875 5.890625 -12.6875 C 5.992188 -12.414062 6.046875 -12.144531 6.046875 -11.875 C 5.691406 -11.875 5.40625 -11.773438 5.1875 -11.578125 C 4.96875 -11.390625 4.859375 -11.109375 4.859375 -10.734375 C 4.859375 -10.671875 4.867188 -10.582031 4.890625 -10.46875 C 4.921875 -10.363281 4.945312 -10.273438 4.96875 -10.203125 L 5.625 -6.78125 L 6.375 -3.21875 L 7.484375 -6.78125 L 8.21875 -9.40625 C 8.46875 -10.394531 8.71875 -11.109375 8.96875 -11.546875 C 9.21875 -11.992188 9.613281 -12.21875 10.15625 -12.21875 L 12.09375 -12.203125 L 13.40625 -6.8125 L 14.515625 -3.328125 L 15.078125 -6.8125 L 15.90625 -10.359375 C 15.96875 -10.609375 16 -10.832031 16 -11.03125 C 16 -11.34375 15.914062 -11.5625 15.75 -11.6875 C 15.582031 -11.8125 15.332031 -11.875 15 -11.875 C 15 -12.5625 15.15625 -13.066406 15.46875 -13.390625 Z M 20.28125 -13.390625 "/></g></g></g><g fill="#352cab" fill-opacity="1"><g transform="translate(196.068293, 38.915462)"><g><path d="M 14.921875 -0.6875 C 14.671875 -0.425781 14.222656 -0.21875 13.578125 -0.0625 C 12.929688 0.0820312 12.3125 0.15625 11.71875 0.15625 C 11 0.15625 10.46875 0.0195312 10.125 -0.25 C 9.78125 -0.519531 9.609375 -0.945312 9.609375 -1.53125 L 9.609375 -9.40625 C 9.609375 -10.0625 9.460938 -10.53125 9.171875 -10.8125 C 8.890625 -11.09375 8.515625 -11.234375 8.046875 -11.234375 C 7.347656 -11.234375 6.765625 -10.957031 6.296875 -10.40625 L 6.296875 -2.71875 C 6.296875 -2.226562 6.398438 -1.875 6.609375 -1.65625 C 6.828125 -1.4375 7.1875 -1.328125 7.6875 -1.328125 C 7.6875 -0.828125 7.492188 -0.382812 7.109375 0 L 1.390625 0 C 0.984375 -0.40625 0.78125 -0.847656 0.78125 -1.328125 C 1.28125 -1.328125 1.640625 -1.4375 1.859375 -1.65625 C 2.078125 -1.875 2.1875 -2.226562 2.1875 -2.71875 L 2.1875 -10.078125 C 2.1875 -10.535156 2.0625 -10.859375 1.8125 -11.046875 C 1.5625 -11.242188 1.125 -11.34375 0.5 -11.34375 L 0.5 -12.46875 C 1.039062 -12.769531 1.800781 -13.046875 2.78125 -13.296875 C 3.769531 -13.554688 4.515625 -13.6875 5.015625 -13.6875 C 5.398438 -13.6875 5.695312 -13.5625 5.90625 -13.3125 C 6.113281 -13.070312 6.238281 -12.617188 6.28125 -11.953125 C 6.71875 -12.484375 7.257812 -12.90625 7.90625 -13.21875 C 8.5625 -13.53125 9.300781 -13.6875 10.125 -13.6875 C 11.34375 -13.6875 12.238281 -13.378906 12.8125 -12.765625 C 13.394531 -12.148438 13.6875 -11.144531 13.6875 -9.75 L 13.6875 -2.875 C 13.6875 -2.050781 14.085938 -1.5625 14.890625 -1.40625 Z M 14.921875 -0.6875 "/></g></g></g><g fill="#352cab" fill-opacity="1"><g transform="translate(112.381137, 54.280001)"><g><path d="M 4.1875 -4.671875 C 4.414062 -4.671875 4.578125 -4.75 4.671875 -4.90625 C 4.773438 -5.0625 4.828125 -5.304688 4.828125 -5.640625 C 5.015625 -5.640625 5.207031 -5.613281 5.40625 -5.5625 C 5.601562 -5.507812 5.765625 -5.445312 5.890625 -5.375 L 5.890625 -3.09375 C 5.765625 -3.007812 5.601562 -2.941406 5.40625 -2.890625 C 5.207031 -2.835938 5.015625 -2.8125 4.828125 -2.8125 C 4.828125 -3.15625 4.78125 -3.394531 4.6875 -3.53125 C 4.59375 -3.675781 4.429688 -3.75 4.203125 -3.75 L 3.171875 -3.75 L 3.171875 -1.5625 C 3.171875 -1.3125 3.226562 -1.128906 3.34375 -1.015625 C 3.457031 -0.898438 3.671875 -0.84375 3.984375 -0.84375 L 4.96875 -0.84375 C 4.96875 -0.457031 4.894531 -0.175781 4.75 0 L 0.609375 0 C 0.515625 -0.09375 0.441406 -0.207031 0.390625 -0.34375 C 0.335938 -0.488281 0.3125 -0.632812 0.3125 -0.78125 C 0.644531 -0.78125 0.867188 -0.828125 0.984375 -0.921875 C 1.097656 -1.015625 1.15625 -1.175781 1.15625 -1.40625 L 1.15625 -7.1875 C 1.15625 -7.40625 1.09375 -7.5625 0.96875 -7.65625 C 0.84375 -7.757812 0.644531 -7.8125 0.375 -7.8125 C 0.375 -8.113281 0.46875 -8.367188 0.65625 -8.578125 L 5.359375 -8.578125 C 5.679688 -8.722656 5.992188 -8.796875 6.296875 -8.796875 C 6.390625 -8.609375 6.476562 -8.304688 6.5625 -7.890625 C 6.65625 -7.472656 6.703125 -7.15625 6.703125 -6.9375 C 6.597656 -6.84375 6.4375 -6.75 6.21875 -6.65625 C 6.007812 -6.5625 5.820312 -6.5 5.65625 -6.46875 C 5.550781 -6.78125 5.382812 -7.035156 5.15625 -7.234375 C 4.9375 -7.429688 4.640625 -7.53125 4.265625 -7.53125 L 3.171875 -7.53125 L 3.171875 -4.671875 Z M 4.1875 -4.671875 "/></g></g></g><g fill="#352cab" fill-opacity="1"><g transform="translate(119.936904, 54.280001)"><g><path d="M 0.625 0 C 0.539062 -0.09375 0.472656 -0.207031 0.421875 -0.34375 C 0.378906 -0.488281 0.359375 -0.632812 0.359375 -0.78125 C 0.628906 -0.78125 0.816406 -0.828125 0.921875 -0.921875 C 1.035156 -1.015625 1.09375 -1.175781 1.09375 -1.40625 L 1.09375 -7.1875 C 1.09375 -7.414062 1.035156 -7.578125 0.921875 -7.671875 C 0.816406 -7.765625 0.628906 -7.8125 0.359375 -7.8125 C 0.359375 -7.957031 0.378906 -8.097656 0.421875 -8.234375 C 0.472656 -8.378906 0.539062 -8.5 0.625 -8.59375 L 3.625 -8.59375 C 3.707031 -8.5 3.769531 -8.378906 3.8125 -8.234375 C 3.863281 -8.097656 3.890625 -7.957031 3.890625 -7.8125 C 3.617188 -7.8125 3.425781 -7.765625 3.3125 -7.671875 C 3.207031 -7.578125 3.15625 -7.414062 3.15625 -7.1875 L 3.15625 -1.40625 C 3.15625 -1.175781 3.207031 -1.015625 3.3125 -0.921875 C 3.425781 -0.828125 3.617188 -0.78125 3.890625 -0.78125 C 3.890625 -0.632812 3.863281 -0.488281 3.8125 -0.34375 C 3.769531 -0.207031 3.707031 -0.09375 3.625 0 Z M 3.296875 -10.4375 C 3.296875 -10.082031 3.1875 -9.800781 2.96875 -9.59375 C 2.757812 -9.382812 2.472656 -9.28125 2.109375 -9.28125 C 1.753906 -9.28125 1.472656 -9.382812 1.265625 -9.59375 C 1.054688 -9.800781 0.953125 -10.082031 0.953125 -10.4375 C 0.953125 -10.78125 1.0625 -11.054688 1.28125 -11.265625 C 1.5 -11.484375 1.785156 -11.59375 2.140625 -11.59375 C 2.492188 -11.59375 2.773438 -11.484375 2.984375 -11.265625 C 3.191406 -11.054688 3.296875 -10.78125 3.296875 -10.4375 Z M 3.296875 -10.4375 "/></g></g></g><g fill="#352cab" fill-opacity="1"><g transform="translate(124.79793, 54.280001)"><g><path d="M 0.609375 0 C 0.515625 -0.09375 0.441406 -0.207031 0.390625 -0.34375 C 0.335938 -0.488281 0.3125 -0.632812 0.3125 -0.78125 C 0.59375 -0.78125 0.789062 -0.828125 0.90625 -0.921875 C 1.019531 -1.015625 1.078125 -1.175781 1.078125 -1.40625 L 1.078125 -7.1875 C 1.078125 -7.414062 1.019531 -7.578125 0.90625 -7.671875 C 0.789062 -7.765625 0.59375 -7.8125 0.3125 -7.8125 C 0.3125 -7.96875 0.335938 -8.113281 0.390625 -8.25 C 0.441406 -8.382812 0.515625 -8.5 0.609375 -8.59375 L 3.640625 -8.59375 C 3.828125 -8.40625 3.921875 -8.144531 3.921875 -7.8125 C 3.640625 -7.8125 3.429688 -7.757812 3.296875 -7.65625 C 3.171875 -7.5625 3.109375 -7.40625 3.109375 -7.1875 L 3.109375 -1.046875 L 3.5625 -1.046875 C 4.15625 -1.046875 4.597656 -1.242188 4.890625 -1.640625 C 5.179688 -2.035156 5.328125 -2.585938 5.328125 -3.296875 L 6.1875 -3.296875 C 6.332031 -3.191406 6.445312 -2.960938 6.53125 -2.609375 C 6.613281 -2.253906 6.65625 -1.910156 6.65625 -1.578125 C 6.65625 -1.054688 6.5625 -0.660156 6.375 -0.390625 C 6.195312 -0.128906 5.898438 0 5.484375 0 Z M 0.609375 0 "/></g></g></g><g fill="#352cab" fill-opacity="1"><g transform="translate(132.021464, 54.280001)"><g><path d="M 7.375 -2.59375 C 7.375 -2.320312 7.304688 -1.835938 7.171875 -1.140625 C 7.046875 -0.453125 6.929688 -0.00390625 6.828125 0.203125 C 6.691406 0.160156 6.515625 0.09375 6.296875 0 L 0.609375 0 C 0.410156 -0.25 0.3125 -0.507812 0.3125 -0.78125 C 0.59375 -0.78125 0.796875 -0.828125 0.921875 -0.921875 C 1.054688 -1.023438 1.125 -1.191406 1.125 -1.421875 L 1.125 -7.1875 C 1.125 -7.40625 1.0625 -7.5625 0.9375 -7.65625 C 0.8125 -7.757812 0.609375 -7.8125 0.328125 -7.8125 C 0.328125 -8.082031 0.421875 -8.34375 0.609375 -8.59375 L 5.390625 -8.59375 C 5.535156 -8.65625 5.695312 -8.703125 5.875 -8.734375 C 6.0625 -8.773438 6.234375 -8.796875 6.390625 -8.796875 C 6.515625 -8.566406 6.644531 -8.238281 6.78125 -7.8125 C 6.925781 -7.394531 7 -7.09375 7 -6.90625 C 6.90625 -6.8125 6.738281 -6.710938 6.5 -6.609375 C 6.257812 -6.515625 6.054688 -6.453125 5.890625 -6.421875 C 5.773438 -6.722656 5.601562 -6.984375 5.375 -7.203125 C 5.144531 -7.429688 4.878906 -7.546875 4.578125 -7.546875 L 3.1875 -7.546875 L 3.1875 -4.953125 L 4.078125 -4.953125 C 4.609375 -4.953125 4.875 -5.25 4.875 -5.84375 C 5.25 -5.84375 5.582031 -5.757812 5.875 -5.59375 L 5.875 -3.296875 C 5.738281 -3.210938 5.582031 -3.148438 5.40625 -3.109375 C 5.238281 -3.066406 5.066406 -3.046875 4.890625 -3.046875 C 4.890625 -3.359375 4.8125 -3.59375 4.65625 -3.75 C 4.507812 -3.90625 4.320312 -3.984375 4.09375 -3.984375 L 3.1875 -3.984375 L 3.1875 -1.078125 L 4.671875 -1.078125 C 5.023438 -1.078125 5.328125 -1.222656 5.578125 -1.515625 C 5.828125 -1.804688 5.988281 -2.164062 6.0625 -2.59375 Z M 7.375 -2.59375 "/></g></g></g><g fill="#352cab" fill-opacity="1"><g transform="translate(140.204767, 54.280001)"><g><path d="M 1.703125 -3.03125 C 1.828125 -2.34375 2.082031 -1.796875 2.46875 -1.390625 C 2.851562 -0.992188 3.3125 -0.796875 3.84375 -0.796875 C 4.1875 -0.796875 4.4375 -0.894531 4.59375 -1.09375 C 4.757812 -1.289062 4.84375 -1.507812 4.84375 -1.75 C 4.84375 -2.101562 4.6875 -2.398438 4.375 -2.640625 C 4.070312 -2.878906 3.632812 -3.140625 3.0625 -3.421875 C 2.289062 -3.796875 1.707031 -4.210938 1.3125 -4.671875 C 0.914062 -5.140625 0.71875 -5.703125 0.71875 -6.359375 C 0.71875 -6.835938 0.835938 -7.253906 1.078125 -7.609375 C 1.328125 -7.972656 1.660156 -8.25 2.078125 -8.4375 C 2.492188 -8.625 2.960938 -8.71875 3.484375 -8.71875 C 3.753906 -8.71875 4.046875 -8.691406 4.359375 -8.640625 C 4.679688 -8.585938 4.9375 -8.503906 5.125 -8.390625 L 6.171875 -8.71875 C 6.316406 -8.457031 6.410156 -8.101562 6.453125 -7.65625 C 6.492188 -7.21875 6.515625 -6.707031 6.515625 -6.125 L 6.515625 -5.9375 L 5.484375 -5.9375 C 5.191406 -7.132812 4.613281 -7.734375 3.75 -7.734375 C 3.425781 -7.734375 3.179688 -7.640625 3.015625 -7.453125 C 2.847656 -7.265625 2.765625 -7.019531 2.765625 -6.71875 C 2.765625 -6.476562 2.832031 -6.265625 2.96875 -6.078125 C 3.101562 -5.898438 3.269531 -5.75 3.46875 -5.625 C 3.664062 -5.5 3.929688 -5.351562 4.265625 -5.1875 C 4.785156 -4.925781 5.21875 -4.6875 5.5625 -4.46875 C 5.914062 -4.25 6.21875 -3.957031 6.46875 -3.59375 C 6.726562 -3.226562 6.859375 -2.796875 6.859375 -2.296875 C 6.859375 -1.828125 6.742188 -1.40625 6.515625 -1.03125 C 6.285156 -0.664062 5.945312 -0.367188 5.5 -0.140625 C 5.0625 0.078125 4.554688 0.1875 3.984375 0.1875 C 3.316406 0.1875 2.65625 0.046875 2 -0.234375 L 1.046875 0.1875 C 0.890625 -0.125 0.753906 -0.609375 0.640625 -1.265625 C 0.523438 -1.929688 0.46875 -2.519531 0.46875 -3.03125 Z M 1.703125 -3.03125 "/></g></g></g></svg>