<svg xmlns="http://www.w3.org/2000/svg" xmlns:xlink="http://www.w3.org/1999/xlink" width="288" zoomAndPan="magnify" viewBox="0 0 216 60" height="80" preserveAspectRatio="xMidYMid meet" version="1.0"><defs><g/><clipPath id="110375fafa"><path d="M 11.347656 6.089844 L 33.398438 6.089844 L 33.398438 28.140625 L 11.347656 28.140625 Z M 11.347656 6.089844 " clip-rule="nonzero"/></clipPath><clipPath id="1fe79f446f"><path d="M 22.371094 6.089844 C 16.285156 6.089844 11.347656 11.027344 11.347656 17.117188 C 11.347656 23.203125 16.285156 28.140625 22.371094 28.140625 C 28.460938 28.140625 33.398438 23.203125 33.398438 17.117188 C 33.398438 11.027344 28.460938 6.089844 22.371094 6.089844 Z M 22.371094 6.089844 " clip-rule="nonzero"/></clipPath><clipPath id="245a43b306"><path d="M 0.347656 0.0898438 L 22.398438 0.0898438 L 22.398438 22.140625 L 0.347656 22.140625 Z M 0.347656 0.0898438 " clip-rule="nonzero"/></clipPath><clipPath id="cb13cd7096"><path d="M 11.371094 0.0898438 C 5.285156 0.0898438 0.347656 5.027344 0.347656 11.117188 C 0.347656 17.203125 5.285156 22.140625 11.371094 22.140625 C 17.460938 22.140625 22.398438 17.203125 22.398438 11.117188 C 22.398438 5.027344 17.460938 0.0898438 11.371094 0.0898438 Z M 11.371094 0.0898438 " clip-rule="nonzero"/></clipPath><clipPath id="6edda83787"><rect x="0" width="23" y="0" height="23"/></clipPath><clipPath id="5d440d21aa"><path d="M 4.914062 23.691406 L 18.605469 23.691406 L 18.605469 37.378906 L 4.914062 37.378906 Z M 4.914062 23.691406 " clip-rule="nonzero"/></clipPath><clipPath id="a882f9b910"><path d="M 11.761719 23.691406 C 7.980469 23.691406 4.914062 26.753906 4.914062 30.535156 C 4.914062 34.3125 7.980469 37.378906 11.761719 37.378906 C 15.539062 37.378906 18.605469 34.3125 18.605469 30.535156 C 18.605469 26.753906 15.539062 23.691406 11.761719 23.691406 Z M 11.761719 23.691406 " clip-rule="nonzero"/></clipPath><clipPath id="376ed21f7c"><path d="M 0.914062 0.691406 L 14.605469 0.691406 L 14.605469 14.378906 L 0.914062 14.378906 Z M 0.914062 0.691406 " clip-rule="nonzero"/></clipPath><clipPath id="2cde7c0423"><path d="M 7.761719 0.691406 C 3.980469 0.691406 0.914062 3.753906 0.914062 7.535156 C 0.914062 11.3125 3.980469 14.378906 7.761719 14.378906 C 11.539062 14.378906 14.605469 11.3125 14.605469 7.535156 C 14.605469 3.753906 11.539062 0.691406 7.761719 0.691406 Z M 7.761719 0.691406 " clip-rule="nonzero"/></clipPath><clipPath id="76ad72b11a"><rect x="0" width="15" y="0" height="15"/></clipPath><clipPath id="0755fc0f2a"><path d="M 0.359375 0.34375 L 34.40625 0.34375 L 34.40625 40.472656 L 0.359375 40.472656 Z M 0.359375 0.34375 " clip-rule="nonzero"/></clipPath><clipPath id="21f6231e33"><rect x="0" width="35" y="0" height="41"/></clipPath><clipPath id="5c6e48fd9b"><rect x="0" width="126" y="0" height="36"/></clipPath></defs><g transform="matrix(1, 0, 0, 1, 31, 1)"><g clip-path="url(#21f6231e33)"><g clip-path="url(#110375fafa)"><g clip-path="url(#1fe79f446f)"><g transform="matrix(1, 0, 0, 1, 11, 6)"><g clip-path="url(#6edda83787)"><g clip-path="url(#245a43b306)"><g clip-path="url(#cb13cd7096)"><path fill="#9c6cfe" d="M 0.347656 0.0898438 L 22.398438 0.0898438 L 22.398438 22.140625 L 0.347656 22.140625 Z M 0.347656 0.0898438 " fill-opacity="1" fill-rule="nonzero"/></g></g></g></g></g></g><g clip-path="url(#5d440d21aa)"><g clip-path="url(#a882f9b910)"><g transform="matrix(1, 0, 0, 1, 4, 23)"><g clip-path="url(#76ad72b11a)"><g clip-path="url(#376ed21f7c)"><g clip-path="url(#2cde7c0423)"><path fill="#06d2dd" d="M 0.914062 0.691406 L 14.605469 0.691406 L 14.605469 14.378906 L 0.914062 14.378906 Z M 0.914062 0.691406 " fill-opacity="1" fill-rule="nonzero"/></g></g></g></g></g></g><g clip-path="url(#0755fc0f2a)"><path fill="#352cab" d="M 14.265625 28.25 C 14.265625 27.570312 13.714844 27.015625 13.035156 27.015625 C 12.355469 27.015625 11.800781 27.570312 11.800781 28.25 C 11.800781 28.929688 12.355469 29.484375 13.035156 29.484375 C 13.714844 29.484375 14.265625 28.929688 14.265625 28.25 Z M 10.59375 28.25 C 10.59375 27.570312 10.042969 27.015625 9.363281 27.015625 C 8.679688 27.015625 8.128906 27.570312 8.128906 28.25 C 8.128906 28.929688 8.679688 29.484375 9.363281 29.484375 C 10.042969 29.484375 10.59375 28.929688 10.59375 28.25 Z M 6.921875 28.25 C 6.921875 27.570312 6.371094 27.015625 5.6875 27.015625 C 5.007812 27.015625 4.457031 27.570312 4.457031 28.25 C 4.457031 28.929688 5.007812 29.484375 5.6875 29.484375 C 6.371094 29.484375 6.921875 28.929688 6.921875 28.25 Z M 9.363281 19.71875 C 11.882812 19.71875 13.863281 20.453125 15.089844 21.84375 C 15.742188 22.585938 15.484375 23.355469 15.066406 23.789062 C 14.492188 24.378906 13.441406 24.585938 12.386719 23.714844 C 11.050781 22.613281 9.984375 21.253906 9.230469 19.71875 C 9.273438 19.71875 9.316406 19.71875 9.363281 19.71875 Z M 14.683594 40.449219 C 14.835938 40.378906 14.9375 40.230469 14.945312 40.0625 L 15.195312 34.679688 C 16.566406 33.511719 17.546875 31.988281 18.03125 30.257812 C 18.097656 30.019531 17.957031 29.769531 17.71875 29.703125 C 17.480469 29.636719 17.234375 29.777344 17.167969 30.015625 C 16.714844 31.628906 15.78125 33.046875 14.472656 34.113281 C 14.371094 34.191406 14.3125 34.3125 14.304688 34.441406 L 14.089844 39.144531 L 10.128906 36.007812 C 10.042969 35.941406 9.933594 35.90625 9.824219 35.914062 C 9.65625 35.921875 9.503906 35.925781 9.363281 35.925781 C 4.894531 35.925781 1.257812 32.292969 1.257812 27.824219 C 1.257812 23.726562 4.316406 20.328125 8.269531 19.792969 C 9.085938 21.570312 10.289062 23.148438 11.8125 24.40625 C 13.304688 25.636719 14.878906 25.273438 15.710938 24.414062 C 16.585938 23.507812 16.605469 22.207031 15.761719 21.25 C 14.785156 20.140625 12.882812 18.820312 9.363281 18.820312 C 9.183594 18.820312 9.007812 18.824219 8.835938 18.835938 C 8.234375 17.335938 7.917969 15.703125 7.917969 14.015625 C 7.917969 6.976562 13.644531 1.25 20.679688 1.25 C 27.71875 1.25 33.441406 6.976562 33.441406 14.015625 C 33.441406 17.871094 31.722656 21.480469 28.726562 23.917969 C 28.628906 24 28.566406 24.121094 28.5625 24.246094 L 28.203125 31.992188 L 21.710938 26.851562 C 21.515625 26.699219 21.234375 26.730469 21.078125 26.925781 C 20.925781 27.121094 20.957031 27.402344 21.152344 27.554688 L 28.332031 33.238281 C 28.464844 33.34375 28.644531 33.367188 28.796875 33.296875 C 28.953125 33.226562 29.050781 33.078125 29.058594 32.910156 L 29.449219 24.488281 C 32.5625 21.878906 34.339844 18.074219 34.339844 14.015625 C 34.339844 6.480469 28.210938 0.351562 20.679688 0.351562 C 13.148438 0.351562 7.019531 6.480469 7.019531 14.015625 C 7.019531 15.734375 7.328125 17.398438 7.910156 18.9375 C 3.632812 19.632812 0.359375 23.351562 0.359375 27.824219 C 0.359375 32.785156 4.398438 36.824219 9.363281 36.824219 C 9.472656 36.824219 9.582031 36.824219 9.703125 36.816406 L 14.21875 40.394531 C 14.300781 40.457031 14.398438 40.492188 14.496094 40.492188 C 14.558594 40.492188 14.625 40.476562 14.683594 40.449219 Z M 26.457031 13.5625 C 26.457031 12.792969 25.832031 12.167969 25.058594 12.167969 C 24.289062 12.167969 23.664062 12.792969 23.664062 13.5625 C 23.664062 14.335938 24.289062 14.957031 25.058594 14.957031 C 25.832031 14.957031 26.457031 14.335938 26.457031 13.5625 Z M 22.300781 13.5625 C 22.300781 12.792969 21.675781 12.167969 20.90625 12.167969 C 20.132812 12.167969 19.507812 12.792969 19.507812 13.5625 C 19.507812 14.335938 20.132812 14.957031 20.90625 14.957031 C 21.675781 14.957031 22.300781 14.335938 22.300781 13.5625 Z M 16.75 14.957031 C 15.976562 14.957031 15.351562 14.335938 15.351562 13.5625 C 15.351562 12.792969 15.976562 12.167969 16.75 12.167969 C 17.519531 12.167969 18.144531 12.792969 18.144531 13.5625 C 18.144531 14.335938 17.519531 14.957031 16.75 14.957031 " fill-opacity="1" fill-rule="nonzero"/></g></g></g><g transform="matrix(1, 0, 0, 1, 63, 20)"><g clip-path="url(#5c6e48fd9b)"><g fill="#352cab" fill-opacity="1"><g transform="translate(0.347327, 27.378497)"><g><path d="M 7.6875 0.296875 C 7.289062 0.296875 6.800781 0.265625 6.21875 0.203125 C 4.332031 0.0664062 2.679688 0 1.265625 0 C 0.878906 -0.488281 0.6875 -1.050781 0.6875 -1.6875 C 1.257812 -1.6875 1.671875 -1.785156 1.921875 -1.984375 C 2.179688 -2.191406 2.3125 -2.539062 2.3125 -3.03125 L 2.3125 -15.40625 C 2.3125 -15.882812 2.179688 -16.222656 1.921875 -16.421875 C 1.671875 -16.628906 1.257812 -16.734375 0.6875 -16.734375 C 0.6875 -17.398438 0.878906 -17.953125 1.265625 -18.390625 C 2.597656 -18.390625 3.800781 -18.421875 4.875 -18.484375 C 5.945312 -18.554688 6.578125 -18.601562 6.765625 -18.625 C 7.367188 -18.675781 7.800781 -18.703125 8.0625 -18.703125 C 10.007812 -18.703125 11.644531 -18.296875 12.96875 -17.484375 C 14.300781 -16.679688 15.285156 -15.585938 15.921875 -14.203125 C 16.566406 -12.828125 16.890625 -11.289062 16.890625 -9.59375 C 16.890625 -7.707031 16.554688 -6.019531 15.890625 -4.53125 C 15.234375 -3.050781 14.21875 -1.875 12.84375 -1 C 11.476562 -0.132812 9.757812 0.296875 7.6875 0.296875 Z M 7.484375 -1.890625 C 8.992188 -1.890625 10.15625 -2.460938 10.96875 -3.609375 C 11.789062 -4.765625 12.203125 -6.625 12.203125 -9.1875 C 12.203125 -11.664062 11.765625 -13.519531 10.890625 -14.75 C 10.023438 -15.976562 8.816406 -16.59375 7.265625 -16.59375 C 6.972656 -16.59375 6.765625 -16.578125 6.640625 -16.546875 L 6.640625 -1.953125 C 6.816406 -1.910156 7.097656 -1.890625 7.484375 -1.890625 Z M 7.484375 -1.890625 "/></g></g></g><g fill="#352cab" fill-opacity="1"><g transform="translate(17.944657, 27.378497)"><g><path d="M 8.4375 -2.6875 C 9.539062 -2.6875 10.566406 -3.035156 11.515625 -3.734375 C 11.648438 -3.597656 11.769531 -3.390625 11.875 -3.109375 C 11.988281 -2.828125 12.046875 -2.582031 12.046875 -2.375 C 12.046875 -2.050781 11.832031 -1.679688 11.40625 -1.265625 C 10.988281 -0.859375 10.40625 -0.503906 9.65625 -0.203125 C 8.90625 0.0859375 8.066406 0.234375 7.140625 0.234375 C 5.835938 0.234375 4.695312 -0.046875 3.71875 -0.609375 C 2.75 -1.171875 2 -1.984375 1.46875 -3.046875 C 0.945312 -4.117188 0.6875 -5.382812 0.6875 -6.84375 C 0.6875 -8.34375 0.96875 -9.648438 1.53125 -10.765625 C 2.101562 -11.890625 2.890625 -12.753906 3.890625 -13.359375 C 4.898438 -13.972656 6.035156 -14.28125 7.296875 -14.28125 C 8.890625 -14.28125 10.160156 -13.8125 11.109375 -12.875 C 12.066406 -11.945312 12.546875 -10.660156 12.546875 -9.015625 C 12.546875 -8.234375 12.421875 -7.617188 12.171875 -7.171875 C 11.921875 -6.722656 11.484375 -6.5 10.859375 -6.5 L 5.15625 -6.5 C 5.269531 -3.957031 6.363281 -2.6875 8.4375 -2.6875 Z M 7.140625 -12.453125 C 6.597656 -12.453125 6.140625 -12.148438 5.765625 -11.546875 C 5.398438 -10.941406 5.195312 -9.929688 5.15625 -8.515625 L 7.828125 -8.515625 C 8.109375 -8.515625 8.289062 -8.609375 8.375 -8.796875 C 8.46875 -8.992188 8.515625 -9.289062 8.515625 -9.6875 C 8.515625 -10.726562 8.390625 -11.445312 8.140625 -11.84375 C 7.890625 -12.25 7.554688 -12.453125 7.140625 -12.453125 Z M 7.140625 -12.453125 "/></g></g></g><g fill="#352cab" fill-opacity="1"><g transform="translate(31.168991, 27.378497)"><g><path d="M 6.34375 -7.09375 L 7.5625 -2.46875 L 8.765625 -7.09375 L 9.796875 -10.671875 C 9.867188 -10.953125 9.90625 -11.160156 9.90625 -11.296875 C 9.90625 -11.671875 9.785156 -11.945312 9.546875 -12.125 C 9.304688 -12.3125 8.96875 -12.40625 8.53125 -12.40625 C 8.53125 -13.125 8.695312 -13.648438 9.03125 -13.984375 L 14.140625 -13.984375 C 14.492188 -13.640625 14.671875 -13.113281 14.671875 -12.40625 C 14.234375 -12.40625 13.898438 -12.300781 13.671875 -12.09375 C 13.441406 -11.882812 13.25 -11.53125 13.09375 -11.03125 L 10.359375 -2.640625 C 10.054688 -1.597656 9.71875 -0.863281 9.34375 -0.4375 C 8.976562 -0.0195312 8.421875 0.1875 7.671875 0.1875 L 4.921875 0.1875 L 0.765625 -11.03125 C 0.566406 -11.539062 0.367188 -11.894531 0.171875 -12.09375 C -0.015625 -12.300781 -0.328125 -12.40625 -0.765625 -12.40625 C -0.765625 -13.09375 -0.578125 -13.617188 -0.203125 -13.984375 L 5.796875 -13.984375 C 5.984375 -13.796875 6.128906 -13.554688 6.234375 -13.265625 C 6.347656 -12.972656 6.40625 -12.6875 6.40625 -12.40625 C 6.03125 -12.40625 5.726562 -12.300781 5.5 -12.09375 C 5.269531 -11.894531 5.15625 -11.601562 5.15625 -11.21875 C 5.15625 -11.09375 5.191406 -10.910156 5.265625 -10.671875 Z M 6.34375 -7.09375 "/></g></g></g><g fill="#352cab" fill-opacity="1"><g transform="translate(45.078256, 27.378497)"><g><path d="M 8.953125 -10.015625 C 9.441406 -10.015625 9.789062 -10.175781 10 -10.5 C 10.21875 -10.820312 10.328125 -11.34375 10.328125 -12.0625 C 10.734375 -12.0625 11.144531 -12.007812 11.5625 -11.90625 C 11.988281 -11.800781 12.332031 -11.660156 12.59375 -11.484375 L 12.59375 -6.609375 C 12.332031 -6.429688 11.988281 -6.289062 11.5625 -6.1875 C 11.144531 -6.082031 10.734375 -6.03125 10.328125 -6.03125 C 10.328125 -6.75 10.222656 -7.257812 10.015625 -7.5625 C 9.816406 -7.875 9.472656 -8.03125 8.984375 -8.03125 L 6.796875 -8.03125 L 6.796875 -3.34375 C 6.796875 -2.800781 6.914062 -2.40625 7.15625 -2.15625 C 7.394531 -1.914062 7.851562 -1.796875 8.53125 -1.796875 L 10.640625 -1.796875 C 10.640625 -0.960938 10.484375 -0.363281 10.171875 0 L 1.296875 0 C 1.097656 -0.207031 0.945312 -0.460938 0.84375 -0.765625 C 0.738281 -1.066406 0.6875 -1.375 0.6875 -1.6875 C 1.382812 -1.6875 1.851562 -1.78125 2.09375 -1.96875 C 2.34375 -2.164062 2.46875 -2.507812 2.46875 -3 L 2.46875 -15.390625 C 2.46875 -15.859375 2.332031 -16.191406 2.0625 -16.390625 C 1.789062 -16.597656 1.367188 -16.703125 0.796875 -16.703125 C 0.796875 -17.347656 0.992188 -17.898438 1.390625 -18.359375 L 11.453125 -18.359375 C 12.140625 -18.660156 12.8125 -18.8125 13.46875 -18.8125 C 13.675781 -18.40625 13.867188 -17.757812 14.046875 -16.875 C 14.234375 -15.988281 14.328125 -15.304688 14.328125 -14.828125 C 14.117188 -14.640625 13.785156 -14.441406 13.328125 -14.234375 C 12.867188 -14.035156 12.457031 -13.898438 12.09375 -13.828125 C 11.882812 -14.492188 11.535156 -15.039062 11.046875 -15.46875 C 10.566406 -15.90625 9.921875 -16.125 9.109375 -16.125 L 6.796875 -16.125 L 6.796875 -10.015625 Z M 8.953125 -10.015625 "/></g></g></g><g fill="#352cab" fill-opacity="1"><g transform="translate(59.935877, 27.378497)"><g><path d="M 7.0625 0.34375 C 5.125 0.34375 3.578125 -0.265625 2.421875 -1.484375 C 1.265625 -2.703125 0.6875 -4.445312 0.6875 -6.71875 C 0.6875 -8.332031 0.960938 -9.707031 1.515625 -10.84375 C 2.066406 -11.988281 2.84375 -12.851562 3.84375 -13.4375 C 4.84375 -14.019531 6.003906 -14.3125 7.328125 -14.3125 C 8.585938 -14.3125 9.695312 -14.03125 10.65625 -13.46875 C 11.613281 -12.914062 12.359375 -12.101562 12.890625 -11.03125 C 13.429688 -9.96875 13.703125 -8.671875 13.703125 -7.140625 C 13.703125 -5.535156 13.425781 -4.171875 12.875 -3.046875 C 12.320312 -1.929688 11.539062 -1.085938 10.53125 -0.515625 C 9.53125 0.0546875 8.375 0.34375 7.0625 0.34375 Z M 7.265625 -1.546875 C 7.878906 -1.546875 8.335938 -1.894531 8.640625 -2.59375 C 8.941406 -3.300781 9.09375 -4.601562 9.09375 -6.5 C 9.09375 -8.101562 9.007812 -9.332031 8.84375 -10.1875 C 8.6875 -11.050781 8.46875 -11.640625 8.1875 -11.953125 C 7.90625 -12.273438 7.546875 -12.4375 7.109375 -12.4375 C 6.492188 -12.4375 6.03125 -12.082031 5.71875 -11.375 C 5.414062 -10.675781 5.265625 -9.359375 5.265625 -7.421875 C 5.265625 -5.847656 5.34375 -4.632812 5.5 -3.78125 C 5.664062 -2.925781 5.890625 -2.335938 6.171875 -2.015625 C 6.460938 -1.703125 6.828125 -1.546875 7.265625 -1.546875 Z M 7.265625 -1.546875 "/></g></g></g><g fill="#352cab" fill-opacity="1"><g transform="translate(74.31932, 27.378497)"><g><path d="M 9.6875 -14.3125 C 10.476562 -14.3125 11.054688 -14.109375 11.421875 -13.703125 C 11.796875 -13.296875 11.984375 -12.742188 11.984375 -12.046875 C 11.984375 -11.285156 11.785156 -10.664062 11.390625 -10.1875 C 10.992188 -9.71875 10.460938 -9.484375 9.796875 -9.484375 C 9.222656 -9.484375 8.753906 -9.648438 8.390625 -9.984375 C 8.023438 -10.316406 7.84375 -10.710938 7.84375 -11.171875 C 7.84375 -11.453125 7.867188 -11.671875 7.921875 -11.828125 C 7.296875 -11.671875 6.765625 -11.398438 6.328125 -11.015625 L 6.328125 -3.109375 C 6.328125 -2.671875 6.382812 -2.335938 6.5 -2.109375 C 6.625 -1.878906 6.863281 -1.707031 7.21875 -1.59375 C 7.582031 -1.476562 8.125 -1.421875 8.84375 -1.421875 C 8.84375 -1.109375 8.804688 -0.84375 8.734375 -0.625 C 8.671875 -0.40625 8.539062 -0.195312 8.34375 0 L 1.3125 0 C 0.914062 -0.40625 0.71875 -0.878906 0.71875 -1.421875 C 1.21875 -1.421875 1.578125 -1.53125 1.796875 -1.75 C 2.023438 -1.96875 2.140625 -2.34375 2.140625 -2.875 L 2.140625 -10.484375 C 2.140625 -10.960938 2.007812 -11.296875 1.75 -11.484375 C 1.5 -11.679688 1.046875 -11.78125 0.390625 -11.78125 L 0.390625 -12.96875 C 0.972656 -13.300781 1.742188 -13.59375 2.703125 -13.84375 C 3.660156 -14.09375 4.398438 -14.21875 4.921875 -14.21875 C 5.347656 -14.21875 5.644531 -14.066406 5.8125 -13.765625 C 5.988281 -13.472656 6.078125 -12.878906 6.078125 -11.984375 C 6.398438 -12.578125 6.898438 -13.113281 7.578125 -13.59375 C 8.265625 -14.070312 8.96875 -14.3125 9.6875 -14.3125 Z M 9.6875 -14.3125 "/></g></g></g><g fill="#352cab" fill-opacity="1"><g transform="translate(86.173805, 27.378497)"><g><path d="M 13.484375 -3.078125 C 13.484375 -2.660156 13.59375 -2.3125 13.8125 -2.03125 C 14.03125 -1.75 14.34375 -1.585938 14.75 -1.546875 L 14.75 -0.8125 C 14.46875 -0.5 14.03125 -0.253906 13.4375 -0.078125 C 12.851562 0.0976562 12.265625 0.1875 11.671875 0.1875 C 11.078125 0.1875 10.566406 0.03125 10.140625 -0.28125 C 9.722656 -0.601562 9.441406 -1.046875 9.296875 -1.609375 C 8.453125 -0.410156 7.25 0.1875 5.6875 0.1875 C 4.457031 0.1875 3.5 -0.1875 2.8125 -0.9375 C 2.132812 -1.695312 1.796875 -2.71875 1.796875 -4 L 1.796875 -11.25 C 1.796875 -11.550781 1.679688 -11.757812 1.453125 -11.875 C 1.234375 -12 0.914062 -12.0625 0.5 -12.0625 L 0.5 -13.21875 C 0.757812 -13.4375 1.265625 -13.648438 2.015625 -13.859375 C 2.765625 -14.066406 3.5625 -14.171875 4.40625 -14.171875 C 4.894531 -14.171875 5.253906 -14.140625 5.484375 -14.078125 C 5.710938 -14.015625 5.867188 -13.882812 5.953125 -13.6875 C 6.035156 -13.5 6.078125 -13.195312 6.078125 -12.78125 L 6.078125 -3.921875 C 6.078125 -3.378906 6.171875 -2.972656 6.359375 -2.703125 C 6.546875 -2.429688 6.847656 -2.296875 7.265625 -2.296875 C 7.617188 -2.296875 7.96875 -2.40625 8.3125 -2.625 C 8.65625 -2.84375 8.945312 -3.109375 9.1875 -3.421875 L 9.1875 -11.25 C 9.1875 -11.789062 8.695312 -12.0625 7.71875 -12.0625 L 7.71875 -13.21875 C 8 -13.445312 8.507812 -13.660156 9.25 -13.859375 C 10 -14.066406 10.820312 -14.171875 11.71875 -14.171875 C 12.4375 -14.171875 12.910156 -14.085938 13.140625 -13.921875 C 13.367188 -13.753906 13.484375 -13.375 13.484375 -12.78125 Z M 13.484375 -3.078125 "/></g></g></g><g fill="#352cab" fill-opacity="1"><g transform="translate(101.242177, 27.378497)"><g><path d="M 22.078125 -2.84375 C 22.078125 -2.09375 22.503906 -1.632812 23.359375 -1.46875 L 23.359375 -0.71875 C 22.691406 -0.132812 21.613281 0.15625 20.125 0.15625 C 19.382812 0.15625 18.800781 0.0546875 18.375 -0.140625 C 17.957031 -0.347656 17.75 -0.707031 17.75 -1.21875 L 17.75 -9.984375 C 17.75 -10.546875 17.59375 -10.976562 17.28125 -11.28125 C 16.976562 -11.59375 16.570312 -11.75 16.0625 -11.75 C 15.4375 -11.75 14.894531 -11.535156 14.4375 -11.109375 C 14.457031 -11.023438 14.46875 -10.894531 14.46875 -10.71875 L 14.46875 -2.84375 C 14.46875 -2.332031 14.570312 -1.96875 14.78125 -1.75 C 14.988281 -1.53125 15.320312 -1.421875 15.78125 -1.421875 C 15.78125 -0.890625 15.566406 -0.414062 15.140625 0 L 9.53125 0 C 9.132812 -0.4375 8.9375 -0.910156 8.9375 -1.421875 C 9.375 -1.421875 9.6875 -1.53125 9.875 -1.75 C 10.070312 -1.96875 10.171875 -2.332031 10.171875 -2.84375 L 10.171875 -9.984375 C 10.171875 -10.523438 10.007812 -10.953125 9.6875 -11.265625 C 9.375 -11.585938 8.984375 -11.75 8.515625 -11.75 C 8.160156 -11.75 7.804688 -11.664062 7.453125 -11.5 C 7.097656 -11.332031 6.8125 -11.109375 6.59375 -10.828125 L 6.59375 -2.84375 C 6.59375 -2.332031 6.679688 -1.96875 6.859375 -1.75 C 7.046875 -1.53125 7.359375 -1.421875 7.796875 -1.421875 C 7.796875 -0.878906 7.585938 -0.40625 7.171875 0 L 1.453125 0 C 1.023438 -0.414062 0.8125 -0.890625 0.8125 -1.421875 C 1.34375 -1.421875 1.722656 -1.53125 1.953125 -1.75 C 2.179688 -1.96875 2.296875 -2.332031 2.296875 -2.84375 L 2.296875 -10.5625 C 2.296875 -11.039062 2.160156 -11.378906 1.890625 -11.578125 C 1.628906 -11.773438 1.175781 -11.875 0.53125 -11.875 L 0.53125 -13.046875 C 1.09375 -13.378906 1.882812 -13.675781 2.90625 -13.9375 C 3.9375 -14.195312 4.71875 -14.328125 5.25 -14.328125 C 5.632812 -14.328125 5.9375 -14.207031 6.15625 -13.96875 C 6.375 -13.738281 6.519531 -13.296875 6.59375 -12.640625 C 7.039062 -13.171875 7.613281 -13.582031 8.3125 -13.875 C 9.019531 -14.175781 9.804688 -14.328125 10.671875 -14.328125 C 12.421875 -14.328125 13.5625 -13.738281 14.09375 -12.5625 C 14.550781 -13.125 15.144531 -13.554688 15.875 -13.859375 C 16.601562 -14.171875 17.414062 -14.328125 18.3125 -14.328125 C 19.550781 -14.328125 20.488281 -14.019531 21.125 -13.40625 C 21.757812 -12.789062 22.078125 -11.894531 22.078125 -10.71875 Z M 22.078125 -2.84375 "/></g></g></g></g></g></svg>