<svg xmlns="http://www.w3.org/2000/svg" xmlns:xlink="http://www.w3.org/1999/xlink" width="500" zoomAndPan="magnify" viewBox="0 0 375 374.999991" height="500" preserveAspectRatio="xMidYMid meet" version="1.0"><defs><clipPath id="61d971f13f"><path d="M 105 106 L 269.941406 106 L 269.941406 269 L 105 269 Z M 105 106 " clip-rule="nonzero"/></clipPath></defs><g clip-path="url(#61d971f13f)"><path fill="#00bf63" d="M 207.710938 110.019531 C 205.558594 106.582031 200.941406 105.6875 197.65625 108.070312 L 182.460938 119.113281 C 180.507812 120.53125 177.964844 120.847656 175.722656 119.945312 L 158.300781 112.929688 C 154.535156 111.414062 150.273438 113.402344 149.019531 117.261719 L 143.214844 135.128906 C 142.46875 137.421875 140.59375 139.171875 138.253906 139.761719 L 120.035156 144.328125 C 116.097656 145.3125 113.820312 149.429688 115.074219 153.289062 L 120.878906 171.152344 C 121.625 173.449219 121.136719 175.964844 119.589844 177.816406 L 107.53125 192.21875 C 104.925781 195.332031 105.503906 200 108.785156 202.386719 L 123.984375 213.425781 C 125.933594 214.84375 127.019531 217.167969 126.855469 219.574219 L 125.566406 238.316406 C 125.289062 242.363281 128.5 245.800781 132.558594 245.800781 L 151.339844 245.800781 C 153.753906 245.800781 155.996094 247.042969 157.277344 249.085938 L 167.253906 265.003906 C 169.40625 268.445312 174.023438 269.339844 177.308594 266.953125 L 192.503906 255.910156 C 194.457031 254.492188 197 254.179688 199.238281 255.082031 L 216.664062 262.097656 C 220.429688 263.613281 224.691406 261.621094 225.945312 257.761719 L 231.75 239.894531 C 232.496094 237.601562 234.367188 235.851562 236.710938 235.265625 L 254.929688 230.699219 C 258.867188 229.710938 261.144531 225.597656 259.890625 221.738281 L 254.085938 203.871094 C 253.339844 201.578125 253.828125 199.058594 255.375 197.210938 L 267.433594 182.804688 C 270.039062 179.695312 269.460938 175.027344 266.179688 172.640625 L 250.980469 161.601562 C 249.03125 160.179688 247.945312 157.859375 248.109375 155.449219 L 249.398438 136.710938 C 249.675781 132.660156 246.464844 129.222656 242.40625 129.222656 L 223.621094 129.226562 C 221.210938 129.226562 218.964844 127.984375 217.683594 125.9375 Z M 177.972656 214.996094 L 219.65625 173.3125 L 210.691406 164.347656 L 177.972656 197.066406 L 163.9375 183.03125 L 154.972656 191.996094 Z M 177.972656 214.996094 " fill-opacity="1" fill-rule="evenodd"/></g></svg>