<svg xmlns="http://www.w3.org/2000/svg" xmlns:xlink="http://www.w3.org/1999/xlink" width="288" zoomAndPan="magnify" viewBox="0 0 216 60" height="80" preserveAspectRatio="xMidYMid meet" version="1.0"><defs><g/><clipPath id="52068bdbbd"><path d="M 9.628906 1.375 L 62 1.375 L 62 43 L 9.628906 43 Z M 9.628906 1.375 " clip-rule="nonzero"/></clipPath><clipPath id="4da29d5c53"><path d="M 9.628906 20 L 48 20 L 48 58.375 L 9.628906 58.375 Z M 9.628906 20 " clip-rule="nonzero"/></clipPath><clipPath id="6b07c9cda6"><path d="M 0.640625 3 L 6 3 L 6 9 L 0.640625 9 Z M 0.640625 3 " clip-rule="nonzero"/></clipPath><clipPath id="b753e31d31"><rect x="0" width="82" y="0" height="12"/></clipPath><clipPath id="f17eb75a35"><path d="M 6 1.375 L 58.5 1.375 L 58.5 43 L 6 43 Z M 6 1.375 " clip-rule="nonzero"/></clipPath><clipPath id="097f1a6827"><path d="M 6 20 L 44 20 L 44 58.375 L 6 58.375 Z M 6 20 " clip-rule="nonzero"/></clipPath></defs><g clip-path="url(#52068bdbbd)"><path fill="#352cab" d="M 14.511719 2.734375 C 12.980469 3.613281 11.769531 4.839844 10.925781 6.289062 C 10.082031 7.75 9.628906 9.414062 9.628906 11.183594 L 9.628906 28.101562 C 9.628906 29.859375 10.082031 31.523438 10.925781 32.984375 C 11.769531 34.433594 12.980469 35.660156 14.511719 36.550781 L 23.410156 41.695312 C 24.742188 42.46875 26.429688 42.015625 27.203125 40.683594 C 27.972656 39.355469 27.523438 37.667969 26.191406 36.894531 L 17.292969 31.75 L 17.28125 31.75 C 16.605469 31.359375 16.070312 30.835938 15.722656 30.230469 C 15.378906 29.625 15.191406 28.898438 15.191406 28.101562 L 15.191406 11.183594 C 15.191406 10.386719 15.378906 9.664062 15.722656 9.066406 L 15.722656 9.054688 C 16.070312 8.449219 16.605469 7.925781 17.292969 7.535156 C 17.96875 7.144531 18.683594 6.953125 19.394531 6.953125 C 20.109375 6.953125 20.832031 7.144531 21.5 7.535156 L 37.789062 16.945312 L 37.800781 16.945312 L 54.101562 26.34375 C 54.78125 26.734375 55.300781 27.257812 55.660156 27.875 C 56.003906 28.484375 56.191406 29.195312 56.191406 30.003906 C 56.191406 30.753906 56.027344 31.441406 55.730469 32.011719 C 55.707031 32.046875 55.683594 32.082031 55.671875 32.117188 C 55.3125 32.734375 54.78125 33.269531 54.113281 33.652344 C 52.785156 34.410156 52.332031 36.109375 53.09375 37.429688 C 53.851562 38.761719 55.550781 39.210938 56.871094 38.453125 C 58.414062 37.558594 59.640625 36.335938 60.472656 34.898438 C 60.507812 34.839844 60.542969 34.78125 60.566406 34.707031 C 61.351562 33.292969 61.765625 31.691406 61.765625 29.992188 C 61.765625 28.234375 61.3125 26.570312 60.472656 25.109375 L 60.472656 25.097656 C 59.640625 23.660156 58.414062 22.433594 56.871094 21.542969 L 40.59375 12.144531 L 24.277344 2.734375 C 22.734375 1.84375 21.070312 1.390625 19.394531 1.390625 C 17.730469 1.390625 16.070312 1.84375 14.511719 2.734375 Z M 14.511719 2.734375 " fill-opacity="1" fill-rule="evenodd"/></g><g clip-path="url(#4da29d5c53)"><path fill="#352cab" d="M 9.628906 44.6875 L 9.628906 48.8125 C 9.628906 50.570312 10.082031 52.234375 10.925781 53.695312 C 11.769531 55.15625 12.980469 56.378906 14.511719 57.261719 C 14.570312 57.296875 14.632812 57.332031 14.691406 57.355469 C 16.1875 58.1875 17.792969 58.601562 19.394531 58.601562 C 21.058594 58.601562 22.722656 58.152344 24.265625 57.261719 L 42.542969 46.722656 C 44.085938 45.828125 45.308594 44.605469 46.140625 43.167969 L 46.140625 43.15625 C 46.984375 41.695312 47.4375 40.03125 47.4375 38.273438 C 47.4375 36.515625 46.984375 34.851562 46.140625 33.390625 C 45.296875 31.941406 44.085938 30.714844 42.542969 29.824219 L 26.441406 20.535156 C 26.003906 20.285156 25.539062 20.164062 25.0625 20.164062 C 24.101562 20.164062 23.175781 20.664062 22.664062 21.554688 C 21.902344 22.886719 22.355469 24.574219 23.683594 25.335938 L 39.785156 34.625 C 40.460938 35.019531 40.996094 35.539062 41.339844 36.144531 C 41.6875 36.753906 41.875 37.476562 41.875 38.273438 C 41.875 39.070312 41.6875 39.792969 41.339844 40.386719 C 40.984375 41.007812 40.449219 41.539062 39.785156 41.921875 L 21.511719 52.460938 C 20.832031 52.851562 20.121094 53.042969 19.394531 53.042969 C 18.71875 53.042969 18.042969 52.875 17.398438 52.53125 C 17.363281 52.507812 17.328125 52.484375 17.292969 52.460938 C 16.605469 52.054688 16.070312 51.53125 15.722656 50.9375 C 15.378906 50.332031 15.191406 49.609375 15.191406 48.8125 L 15.191406 44.6875 C 15.191406 43.15625 13.941406 41.910156 12.410156 41.910156 C 10.875 41.910156 9.628906 43.144531 9.628906 44.6875 Z M 9.628906 44.6875 " fill-opacity="1" fill-rule="evenodd"/></g><g fill="#352cab" fill-opacity="1"><g transform="translate(68.753472, 35.714653)"><g><path d="M 10.0625 -5.671875 L 10.0625 0 L 5.578125 0 L 5.578125 -5.75 L -0.453125 -15.828125 L 4.265625 -15.828125 L 8.03125 -9.546875 L 11.78125 -15.828125 L 16.125 -15.828125 Z M 10.0625 -5.671875 "/></g></g></g><g fill="#352cab" fill-opacity="1"><g transform="translate(84.645206, 35.714653)"><g><path d="M 9.5625 0.3125 C 7.882812 0.3125 6.378906 -0.0390625 5.046875 -0.75 C 3.710938 -1.457031 2.664062 -2.4375 1.90625 -3.6875 C 1.144531 -4.9375 0.765625 -6.34375 0.765625 -7.90625 C 0.765625 -9.476562 1.144531 -10.890625 1.90625 -12.140625 C 2.664062 -13.390625 3.710938 -14.367188 5.046875 -15.078125 C 6.378906 -15.785156 7.882812 -16.140625 9.5625 -16.140625 C 11.238281 -16.140625 12.742188 -15.785156 14.078125 -15.078125 C 15.410156 -14.367188 16.457031 -13.390625 17.21875 -12.140625 C 17.976562 -10.890625 18.359375 -9.476562 18.359375 -7.90625 C 18.359375 -6.34375 17.976562 -4.9375 17.21875 -3.6875 C 16.457031 -2.4375 15.410156 -1.457031 14.078125 -0.75 C 12.742188 -0.0390625 11.238281 0.3125 9.5625 0.3125 Z M 9.5625 -3.390625 C 10.363281 -3.390625 11.085938 -3.578125 11.734375 -3.953125 C 12.378906 -4.328125 12.890625 -4.859375 13.265625 -5.546875 C 13.648438 -6.234375 13.84375 -7.019531 13.84375 -7.90625 C 13.84375 -8.800781 13.648438 -9.59375 13.265625 -10.28125 C 12.890625 -10.96875 12.378906 -11.5 11.734375 -11.875 C 11.085938 -12.25 10.363281 -12.4375 9.5625 -12.4375 C 8.757812 -12.4375 8.035156 -12.25 7.390625 -11.875 C 6.742188 -11.5 6.234375 -10.96875 5.859375 -10.28125 C 5.484375 -9.59375 5.296875 -8.800781 5.296875 -7.90625 C 5.296875 -7.019531 5.484375 -6.234375 5.859375 -5.546875 C 6.234375 -4.859375 6.742188 -4.328125 7.390625 -3.953125 C 8.035156 -3.578125 8.757812 -3.390625 9.5625 -3.390625 Z M 9.5625 -3.390625 "/></g></g></g><g fill="#352cab" fill-opacity="1"><g transform="translate(103.995573, 35.714653)"><g><path d="M 8.890625 0.3125 C 6.535156 0.3125 4.707031 -0.328125 3.40625 -1.609375 C 2.101562 -2.890625 1.453125 -4.703125 1.453125 -7.046875 L 1.453125 -15.828125 L 5.921875 -15.828125 L 5.921875 -7.1875 C 5.921875 -4.65625 6.925781 -3.390625 8.9375 -3.390625 C 10.925781 -3.390625 11.921875 -4.65625 11.921875 -7.1875 L 11.921875 -15.828125 L 16.328125 -15.828125 L 16.328125 -7.046875 C 16.328125 -4.703125 15.671875 -2.890625 14.359375 -1.609375 C 13.054688 -0.328125 11.234375 0.3125 8.890625 0.3125 Z M 8.890625 0.3125 "/></g></g></g><g fill="#352cab" fill-opacity="1"><g transform="translate(121.98961, 35.714653)"><g><path d="M 4.953125 -12.28125 L 0.09375 -12.28125 L 0.09375 -15.828125 L 14.265625 -15.828125 L 14.265625 -12.28125 L 9.421875 -12.28125 L 9.421875 0 L 4.953125 0 Z M 4.953125 -12.28125 "/></g></g></g><g fill="#352cab" fill-opacity="1"><g transform="translate(136.570229, 35.714653)"><g><path d="M 8.890625 0.3125 C 6.535156 0.3125 4.707031 -0.328125 3.40625 -1.609375 C 2.101562 -2.890625 1.453125 -4.703125 1.453125 -7.046875 L 1.453125 -15.828125 L 5.921875 -15.828125 L 5.921875 -7.1875 C 5.921875 -4.65625 6.925781 -3.390625 8.9375 -3.390625 C 10.925781 -3.390625 11.921875 -4.65625 11.921875 -7.1875 L 11.921875 -15.828125 L 16.328125 -15.828125 L 16.328125 -7.046875 C 16.328125 -4.703125 15.671875 -2.890625 14.359375 -1.609375 C 13.054688 -0.328125 11.234375 0.3125 8.890625 0.3125 Z M 8.890625 0.3125 "/></g></g></g><g fill="#352cab" fill-opacity="1"><g transform="translate(154.564266, 35.714653)"><g><path d="M 13.75 -8.25 C 14.65625 -7.9375 15.363281 -7.441406 15.875 -6.765625 C 16.382812 -6.097656 16.640625 -5.289062 16.640625 -4.34375 C 16.640625 -2.957031 16.082031 -1.882812 14.96875 -1.125 C 13.851562 -0.375 12.238281 0 10.125 0 L 1.578125 0 L 1.578125 -15.828125 L 9.671875 -15.828125 C 11.691406 -15.828125 13.226562 -15.453125 14.28125 -14.703125 C 15.34375 -13.960938 15.875 -12.957031 15.875 -11.6875 C 15.875 -10.9375 15.6875 -10.257812 15.3125 -9.65625 C 14.945312 -9.0625 14.425781 -8.59375 13.75 -8.25 Z M 6.015625 -12.59375 L 6.015625 -9.546875 L 9.09375 -9.546875 C 10.59375 -9.546875 11.34375 -10.054688 11.34375 -11.078125 C 11.34375 -12.085938 10.59375 -12.59375 9.09375 -12.59375 Z M 9.765625 -3.234375 C 11.335938 -3.234375 12.125 -3.769531 12.125 -4.84375 C 12.125 -5.90625 11.335938 -6.4375 9.765625 -6.4375 L 6.015625 -6.4375 L 6.015625 -3.234375 Z M 9.765625 -3.234375 "/></g></g></g><g fill="#352cab" fill-opacity="1"><g transform="translate(172.17401, 35.714653)"><g><path d="M 14.296875 -3.453125 L 14.296875 0 L 1.578125 0 L 1.578125 -15.828125 L 14 -15.828125 L 14 -12.375 L 6.015625 -12.375 L 6.015625 -9.703125 L 13.046875 -9.703125 L 13.046875 -6.359375 L 6.015625 -6.359375 L 6.015625 -3.453125 Z M 14.296875 -3.453125 "/></g></g></g><g transform="matrix(1, 0, 0, 1, 86, 40)"><g clip-path="url(#b753e31d31)"><g clip-path="url(#6b07c9cda6)"><g fill="#5e17eb" fill-opacity="1"><g transform="translate(0.644574, 8.935512)"><g><path d="M 4.703125 -5.640625 C 4.835938 -5.640625 4.953125 -5.59375 5.046875 -5.5 C 5.148438 -5.414062 5.203125 -5.304688 5.203125 -5.171875 C 5.203125 -5.097656 5.1875 -5.023438 5.15625 -4.953125 L 3.171875 -0.3125 C 3.117188 -0.207031 3.046875 -0.128906 2.953125 -0.078125 C 2.867188 -0.0234375 2.785156 0 2.703125 0 C 2.609375 -0.0078125 2.519531 -0.0351562 2.4375 -0.078125 C 2.363281 -0.128906 2.304688 -0.207031 2.265625 -0.3125 L 0.28125 -4.96875 C 0.257812 -5 0.242188 -5.03125 0.234375 -5.0625 C 0.234375 -5.09375 0.234375 -5.128906 0.234375 -5.171875 C 0.234375 -5.316406 0.289062 -5.429688 0.40625 -5.515625 C 0.519531 -5.597656 0.628906 -5.640625 0.734375 -5.640625 C 0.929688 -5.640625 1.078125 -5.535156 1.171875 -5.328125 L 2.9375 -1.203125 L 2.65625 -1.1875 L 4.265625 -5.328125 C 4.359375 -5.535156 4.503906 -5.640625 4.703125 -5.640625 Z M 4.703125 -5.640625 "/></g></g></g></g><g fill="#5e17eb" fill-opacity="1"><g transform="translate(6.695647, 8.935512)"><g><path d="M 1.609375 -0.484375 C 1.609375 -0.347656 1.554688 -0.234375 1.453125 -0.140625 C 1.347656 -0.046875 1.226562 0 1.09375 0 C 0.945312 0 0.828125 -0.046875 0.734375 -0.140625 C 0.648438 -0.234375 0.609375 -0.347656 0.609375 -0.484375 L 0.609375 -5.125 C 0.609375 -5.269531 0.65625 -5.390625 0.75 -5.484375 C 0.84375 -5.578125 0.960938 -5.625 1.109375 -5.625 C 1.242188 -5.625 1.359375 -5.578125 1.453125 -5.484375 C 1.554688 -5.390625 1.609375 -5.269531 1.609375 -5.125 Z M 1.109375 -5.9375 C 0.929688 -5.9375 0.804688 -5.96875 0.734375 -6.03125 C 0.660156 -6.09375 0.625 -6.195312 0.625 -6.34375 L 0.625 -6.5 C 0.625 -6.65625 0.664062 -6.757812 0.75 -6.8125 C 0.832031 -6.875 0.957031 -6.90625 1.125 -6.90625 C 1.3125 -6.90625 1.441406 -6.875 1.515625 -6.8125 C 1.585938 -6.757812 1.625 -6.65625 1.625 -6.5 L 1.625 -6.34375 C 1.625 -6.1875 1.582031 -6.078125 1.5 -6.015625 C 1.425781 -5.960938 1.296875 -5.9375 1.109375 -5.9375 Z M 1.109375 -5.9375 "/></g></g></g><g fill="#5e17eb" fill-opacity="1"><g transform="translate(9.508221, 8.935512)"><g><path d="M 3.015625 -5.625 C 3.398438 -5.625 3.738281 -5.550781 4.03125 -5.40625 C 4.332031 -5.257812 4.585938 -5.054688 4.796875 -4.796875 C 5.003906 -4.535156 5.160156 -4.234375 5.265625 -3.890625 C 5.367188 -3.554688 5.421875 -3.195312 5.421875 -2.8125 C 5.421875 -2.289062 5.328125 -1.816406 5.140625 -1.390625 C 4.953125 -0.960938 4.679688 -0.625 4.328125 -0.375 C 3.972656 -0.125 3.535156 0 3.015625 0 L 1.09375 0 C 0.957031 0 0.84375 -0.046875 0.75 -0.140625 C 0.65625 -0.234375 0.609375 -0.347656 0.609375 -0.484375 L 0.609375 -5.125 C 0.609375 -5.269531 0.65625 -5.390625 0.75 -5.484375 C 0.84375 -5.578125 0.957031 -5.625 1.09375 -5.625 Z M 2.9375 -0.921875 C 3.269531 -0.921875 3.539062 -1.007812 3.75 -1.1875 C 3.96875 -1.363281 4.125 -1.59375 4.21875 -1.875 C 4.320312 -2.164062 4.375 -2.476562 4.375 -2.8125 C 4.375 -3.0625 4.34375 -3.300781 4.28125 -3.53125 C 4.226562 -3.757812 4.144531 -3.957031 4.03125 -4.125 C 3.914062 -4.300781 3.765625 -4.441406 3.578125 -4.546875 C 3.398438 -4.648438 3.1875 -4.703125 2.9375 -4.703125 L 1.53125 -4.703125 L 1.609375 -4.765625 L 1.609375 -0.828125 L 1.5625 -0.921875 Z M 2.9375 -0.921875 "/></g></g></g><g fill="#5e17eb" fill-opacity="1"><g transform="translate(15.856622, 8.935512)"><g><path d="M 1.09375 -5.625 L 3.78125 -5.625 C 3.914062 -5.625 4.03125 -5.578125 4.125 -5.484375 C 4.21875 -5.398438 4.265625 -5.285156 4.265625 -5.140625 C 4.265625 -5.015625 4.21875 -4.910156 4.125 -4.828125 C 4.03125 -4.742188 3.914062 -4.703125 3.78125 -4.703125 L 1.53125 -4.703125 L 1.609375 -4.828125 L 1.609375 -3.265625 L 1.546875 -3.328125 L 3.421875 -3.328125 C 3.554688 -3.328125 3.671875 -3.28125 3.765625 -3.1875 C 3.859375 -3.101562 3.90625 -2.992188 3.90625 -2.859375 C 3.90625 -2.722656 3.859375 -2.613281 3.765625 -2.53125 C 3.671875 -2.445312 3.554688 -2.40625 3.421875 -2.40625 L 1.5625 -2.40625 L 1.609375 -2.46875 L 1.609375 -0.84375 L 1.546875 -0.921875 L 3.78125 -0.921875 C 3.914062 -0.921875 4.03125 -0.875 4.125 -0.78125 C 4.21875 -0.6875 4.265625 -0.578125 4.265625 -0.453125 C 4.265625 -0.316406 4.21875 -0.207031 4.125 -0.125 C 4.03125 -0.0390625 3.914062 0 3.78125 0 L 1.09375 0 C 0.957031 0 0.84375 -0.046875 0.75 -0.140625 C 0.65625 -0.234375 0.609375 -0.347656 0.609375 -0.484375 L 0.609375 -5.125 C 0.609375 -5.269531 0.65625 -5.390625 0.75 -5.484375 C 0.84375 -5.578125 0.957031 -5.625 1.09375 -5.625 Z M 1.09375 -5.625 "/></g></g></g><g fill="#5e17eb" fill-opacity="1"><g transform="translate(21.055876, 8.935512)"><g><path d="M 5.78125 -2.8125 C 5.78125 -2.40625 5.710938 -2.03125 5.578125 -1.6875 C 5.441406 -1.34375 5.25 -1.035156 5 -0.765625 C 4.757812 -0.503906 4.472656 -0.296875 4.140625 -0.140625 C 3.804688 0.00390625 3.441406 0.078125 3.046875 0.078125 C 2.648438 0.078125 2.285156 0.00390625 1.953125 -0.140625 C 1.617188 -0.296875 1.328125 -0.503906 1.078125 -0.765625 C 0.835938 -1.035156 0.648438 -1.34375 0.515625 -1.6875 C 0.390625 -2.03125 0.328125 -2.40625 0.328125 -2.8125 C 0.328125 -3.207031 0.390625 -3.578125 0.515625 -3.921875 C 0.648438 -4.273438 0.835938 -4.582031 1.078125 -4.84375 C 1.328125 -5.113281 1.617188 -5.320312 1.953125 -5.46875 C 2.285156 -5.625 2.648438 -5.703125 3.046875 -5.703125 C 3.441406 -5.703125 3.804688 -5.625 4.140625 -5.46875 C 4.472656 -5.320312 4.757812 -5.113281 5 -4.84375 C 5.25 -4.582031 5.441406 -4.273438 5.578125 -3.921875 C 5.710938 -3.578125 5.78125 -3.207031 5.78125 -2.8125 Z M 4.734375 -2.8125 C 4.734375 -3.164062 4.660156 -3.488281 4.515625 -3.78125 C 4.367188 -4.070312 4.171875 -4.300781 3.921875 -4.46875 C 3.671875 -4.644531 3.378906 -4.734375 3.046875 -4.734375 C 2.710938 -4.734375 2.421875 -4.644531 2.171875 -4.46875 C 1.921875 -4.300781 1.722656 -4.070312 1.578125 -3.78125 C 1.429688 -3.5 1.359375 -3.175781 1.359375 -2.8125 C 1.359375 -2.445312 1.429688 -2.117188 1.578125 -1.828125 C 1.722656 -1.535156 1.921875 -1.304688 2.171875 -1.140625 C 2.421875 -0.972656 2.710938 -0.890625 3.046875 -0.890625 C 3.378906 -0.890625 3.671875 -0.972656 3.921875 -1.140625 C 4.171875 -1.304688 4.367188 -1.535156 4.515625 -1.828125 C 4.660156 -2.117188 4.734375 -2.445312 4.734375 -2.8125 Z M 4.734375 -2.8125 "/></g></g></g><g fill="#5e17eb" fill-opacity="1"><g transform="translate(27.757857, 8.935512)"><g/></g></g><g fill="#5e17eb" fill-opacity="1"><g transform="translate(30.610619, 8.935512)"><g><path d="M 3.015625 -5.625 C 3.398438 -5.625 3.738281 -5.550781 4.03125 -5.40625 C 4.332031 -5.257812 4.585938 -5.054688 4.796875 -4.796875 C 5.003906 -4.535156 5.160156 -4.234375 5.265625 -3.890625 C 5.367188 -3.554688 5.421875 -3.195312 5.421875 -2.8125 C 5.421875 -2.289062 5.328125 -1.816406 5.140625 -1.390625 C 4.953125 -0.960938 4.679688 -0.625 4.328125 -0.375 C 3.972656 -0.125 3.535156 0 3.015625 0 L 1.09375 0 C 0.957031 0 0.84375 -0.046875 0.75 -0.140625 C 0.65625 -0.234375 0.609375 -0.347656 0.609375 -0.484375 L 0.609375 -5.125 C 0.609375 -5.269531 0.65625 -5.390625 0.75 -5.484375 C 0.84375 -5.578125 0.957031 -5.625 1.09375 -5.625 Z M 2.9375 -0.921875 C 3.269531 -0.921875 3.539062 -1.007812 3.75 -1.1875 C 3.96875 -1.363281 4.125 -1.59375 4.21875 -1.875 C 4.320312 -2.164062 4.375 -2.476562 4.375 -2.8125 C 4.375 -3.0625 4.34375 -3.300781 4.28125 -3.53125 C 4.226562 -3.757812 4.144531 -3.957031 4.03125 -4.125 C 3.914062 -4.300781 3.765625 -4.441406 3.578125 -4.546875 C 3.398438 -4.648438 3.1875 -4.703125 2.9375 -4.703125 L 1.53125 -4.703125 L 1.609375 -4.765625 L 1.609375 -0.828125 L 1.5625 -0.921875 Z M 2.9375 -0.921875 "/></g></g></g><g fill="#5e17eb" fill-opacity="1"><g transform="translate(36.95902, 8.935512)"><g><path d="M 5.78125 -2.8125 C 5.78125 -2.40625 5.710938 -2.03125 5.578125 -1.6875 C 5.441406 -1.34375 5.25 -1.035156 5 -0.765625 C 4.757812 -0.503906 4.472656 -0.296875 4.140625 -0.140625 C 3.804688 0.00390625 3.441406 0.078125 3.046875 0.078125 C 2.648438 0.078125 2.285156 0.00390625 1.953125 -0.140625 C 1.617188 -0.296875 1.328125 -0.503906 1.078125 -0.765625 C 0.835938 -1.035156 0.648438 -1.34375 0.515625 -1.6875 C 0.390625 -2.03125 0.328125 -2.40625 0.328125 -2.8125 C 0.328125 -3.207031 0.390625 -3.578125 0.515625 -3.921875 C 0.648438 -4.273438 0.835938 -4.582031 1.078125 -4.84375 C 1.328125 -5.113281 1.617188 -5.320312 1.953125 -5.46875 C 2.285156 -5.625 2.648438 -5.703125 3.046875 -5.703125 C 3.441406 -5.703125 3.804688 -5.625 4.140625 -5.46875 C 4.472656 -5.320312 4.757812 -5.113281 5 -4.84375 C 5.25 -4.582031 5.441406 -4.273438 5.578125 -3.921875 C 5.710938 -3.578125 5.78125 -3.207031 5.78125 -2.8125 Z M 4.734375 -2.8125 C 4.734375 -3.164062 4.660156 -3.488281 4.515625 -3.78125 C 4.367188 -4.070312 4.171875 -4.300781 3.921875 -4.46875 C 3.671875 -4.644531 3.378906 -4.734375 3.046875 -4.734375 C 2.710938 -4.734375 2.421875 -4.644531 2.171875 -4.46875 C 1.921875 -4.300781 1.722656 -4.070312 1.578125 -3.78125 C 1.429688 -3.5 1.359375 -3.175781 1.359375 -2.8125 C 1.359375 -2.445312 1.429688 -2.117188 1.578125 -1.828125 C 1.722656 -1.535156 1.921875 -1.304688 2.171875 -1.140625 C 2.421875 -0.972656 2.710938 -0.890625 3.046875 -0.890625 C 3.378906 -0.890625 3.671875 -0.972656 3.921875 -1.140625 C 4.171875 -1.304688 4.367188 -1.535156 4.515625 -1.828125 C 4.660156 -2.117188 4.734375 -2.445312 4.734375 -2.8125 Z M 4.734375 -2.8125 "/></g></g></g><g fill="#5e17eb" fill-opacity="1"><g transform="translate(43.661001, 8.935512)"><g><path d="M 6.921875 -5.640625 C 7.046875 -5.640625 7.160156 -5.59375 7.265625 -5.5 C 7.378906 -5.40625 7.4375 -5.28125 7.4375 -5.125 C 7.4375 -5.070312 7.429688 -5.019531 7.421875 -4.96875 L 5.84375 -0.3125 C 5.8125 -0.207031 5.753906 -0.128906 5.671875 -0.078125 C 5.585938 -0.0351562 5.5 -0.0078125 5.40625 0 C 5.3125 0 5.21875 -0.0234375 5.125 -0.078125 C 5.039062 -0.128906 4.976562 -0.207031 4.9375 -0.3125 L 3.75 -3.015625 L 3.8125 -2.96875 L 2.640625 -0.3125 C 2.585938 -0.207031 2.519531 -0.128906 2.4375 -0.078125 C 2.351562 -0.0234375 2.265625 0 2.171875 0 C 2.085938 -0.0078125 2 -0.0351562 1.90625 -0.078125 C 1.820312 -0.128906 1.765625 -0.207031 1.734375 -0.3125 L 0.15625 -4.96875 C 0.132812 -5.019531 0.125 -5.070312 0.125 -5.125 C 0.125 -5.28125 0.179688 -5.40625 0.296875 -5.5 C 0.410156 -5.59375 0.53125 -5.640625 0.65625 -5.640625 C 0.757812 -5.640625 0.851562 -5.613281 0.9375 -5.5625 C 1.03125 -5.507812 1.09375 -5.429688 1.125 -5.328125 L 2.40625 -1.46875 L 2.21875 -1.46875 L 3.359375 -4.203125 C 3.398438 -4.304688 3.460938 -4.382812 3.546875 -4.4375 C 3.628906 -4.488281 3.722656 -4.515625 3.828125 -4.515625 C 3.921875 -4.515625 4.007812 -4.488281 4.09375 -4.4375 C 4.175781 -4.382812 4.234375 -4.304688 4.265625 -4.203125 L 5.3125 -1.59375 L 5.1875 -1.515625 L 6.453125 -5.328125 C 6.484375 -5.429688 6.539062 -5.507812 6.625 -5.5625 C 6.71875 -5.613281 6.816406 -5.640625 6.921875 -5.640625 Z M 6.921875 -5.640625 "/></g></g></g><g fill="#5e17eb" fill-opacity="1"><g transform="translate(51.841603, 8.935512)"><g><path d="M 3.703125 -0.9375 C 3.835938 -0.9375 3.953125 -0.890625 4.046875 -0.796875 C 4.140625 -0.710938 4.1875 -0.601562 4.1875 -0.46875 C 4.1875 -0.332031 4.140625 -0.21875 4.046875 -0.125 C 3.953125 -0.0390625 3.835938 0 3.703125 0 L 1.09375 0 C 0.957031 0 0.84375 -0.046875 0.75 -0.140625 C 0.65625 -0.234375 0.609375 -0.347656 0.609375 -0.484375 L 0.609375 -5.125 C 0.609375 -5.269531 0.65625 -5.390625 0.75 -5.484375 C 0.84375 -5.578125 0.960938 -5.625 1.109375 -5.625 C 1.242188 -5.625 1.359375 -5.578125 1.453125 -5.484375 C 1.554688 -5.390625 1.609375 -5.269531 1.609375 -5.125 L 1.609375 -0.796875 L 1.421875 -0.9375 Z M 3.703125 -0.9375 "/></g></g></g><g fill="#5e17eb" fill-opacity="1"><g transform="translate(56.960502, 8.935512)"><g><path d="M 5.78125 -2.8125 C 5.78125 -2.40625 5.710938 -2.03125 5.578125 -1.6875 C 5.441406 -1.34375 5.25 -1.035156 5 -0.765625 C 4.757812 -0.503906 4.472656 -0.296875 4.140625 -0.140625 C 3.804688 0.00390625 3.441406 0.078125 3.046875 0.078125 C 2.648438 0.078125 2.285156 0.00390625 1.953125 -0.140625 C 1.617188 -0.296875 1.328125 -0.503906 1.078125 -0.765625 C 0.835938 -1.035156 0.648438 -1.34375 0.515625 -1.6875 C 0.390625 -2.03125 0.328125 -2.40625 0.328125 -2.8125 C 0.328125 -3.207031 0.390625 -3.578125 0.515625 -3.921875 C 0.648438 -4.273438 0.835938 -4.582031 1.078125 -4.84375 C 1.328125 -5.113281 1.617188 -5.320312 1.953125 -5.46875 C 2.285156 -5.625 2.648438 -5.703125 3.046875 -5.703125 C 3.441406 -5.703125 3.804688 -5.625 4.140625 -5.46875 C 4.472656 -5.320312 4.757812 -5.113281 5 -4.84375 C 5.25 -4.582031 5.441406 -4.273438 5.578125 -3.921875 C 5.710938 -3.578125 5.78125 -3.207031 5.78125 -2.8125 Z M 4.734375 -2.8125 C 4.734375 -3.164062 4.660156 -3.488281 4.515625 -3.78125 C 4.367188 -4.070312 4.171875 -4.300781 3.921875 -4.46875 C 3.671875 -4.644531 3.378906 -4.734375 3.046875 -4.734375 C 2.710938 -4.734375 2.421875 -4.644531 2.171875 -4.46875 C 1.921875 -4.300781 1.722656 -4.070312 1.578125 -3.78125 C 1.429688 -3.5 1.359375 -3.175781 1.359375 -2.8125 C 1.359375 -2.445312 1.429688 -2.117188 1.578125 -1.828125 C 1.722656 -1.535156 1.921875 -1.304688 2.171875 -1.140625 C 2.421875 -0.972656 2.710938 -0.890625 3.046875 -0.890625 C 3.378906 -0.890625 3.671875 -0.972656 3.921875 -1.140625 C 4.171875 -1.304688 4.367188 -1.535156 4.515625 -1.828125 C 4.660156 -2.117188 4.734375 -2.445312 4.734375 -2.8125 Z M 4.734375 -2.8125 "/></g></g></g><g fill="#5e17eb" fill-opacity="1"><g transform="translate(63.662483, 8.935512)"><g><path d="M 2.671875 -4.359375 L 0.9375 -0.28125 C 0.894531 -0.175781 0.832031 -0.09375 0.75 -0.03125 C 0.675781 0.0195312 0.59375 0.046875 0.5 0.046875 C 0.363281 0.046875 0.257812 0.00390625 0.1875 -0.078125 C 0.113281 -0.160156 0.078125 -0.257812 0.078125 -0.375 C 0.078125 -0.425781 0.0859375 -0.476562 0.109375 -0.53125 L 2.109375 -5.328125 C 2.148438 -5.441406 2.210938 -5.523438 2.296875 -5.578125 C 2.390625 -5.640625 2.488281 -5.664062 2.59375 -5.65625 C 2.6875 -5.65625 2.773438 -5.625 2.859375 -5.5625 C 2.941406 -5.507812 3 -5.429688 3.03125 -5.328125 L 5.015625 -0.625 C 5.035156 -0.550781 5.046875 -0.488281 5.046875 -0.4375 C 5.046875 -0.289062 5 -0.171875 4.90625 -0.078125 C 4.8125 0.00390625 4.710938 0.046875 4.609375 0.046875 C 4.503906 0.046875 4.410156 0.015625 4.328125 -0.046875 C 4.253906 -0.109375 4.195312 -0.191406 4.15625 -0.296875 L 2.4375 -4.3125 Z M 1.1875 -1.265625 L 1.625 -2.1875 L 3.796875 -2.1875 L 3.9375 -1.265625 Z M 1.1875 -1.265625 "/></g></g></g><g fill="#5e17eb" fill-opacity="1"><g transform="translate(69.400154, 8.935512)"><g><path d="M 3.015625 -5.625 C 3.398438 -5.625 3.738281 -5.550781 4.03125 -5.40625 C 4.332031 -5.257812 4.585938 -5.054688 4.796875 -4.796875 C 5.003906 -4.535156 5.160156 -4.234375 5.265625 -3.890625 C 5.367188 -3.554688 5.421875 -3.195312 5.421875 -2.8125 C 5.421875 -2.289062 5.328125 -1.816406 5.140625 -1.390625 C 4.953125 -0.960938 4.679688 -0.625 4.328125 -0.375 C 3.972656 -0.125 3.535156 0 3.015625 0 L 1.09375 0 C 0.957031 0 0.84375 -0.046875 0.75 -0.140625 C 0.65625 -0.234375 0.609375 -0.347656 0.609375 -0.484375 L 0.609375 -5.125 C 0.609375 -5.269531 0.65625 -5.390625 0.75 -5.484375 C 0.84375 -5.578125 0.957031 -5.625 1.09375 -5.625 Z M 2.9375 -0.921875 C 3.269531 -0.921875 3.539062 -1.007812 3.75 -1.1875 C 3.96875 -1.363281 4.125 -1.59375 4.21875 -1.875 C 4.320312 -2.164062 4.375 -2.476562 4.375 -2.8125 C 4.375 -3.0625 4.34375 -3.300781 4.28125 -3.53125 C 4.226562 -3.757812 4.144531 -3.957031 4.03125 -4.125 C 3.914062 -4.300781 3.765625 -4.441406 3.578125 -4.546875 C 3.398438 -4.648438 3.1875 -4.703125 2.9375 -4.703125 L 1.53125 -4.703125 L 1.609375 -4.765625 L 1.609375 -0.828125 L 1.5625 -0.921875 Z M 2.9375 -0.921875 "/></g></g></g><g fill="#5e17eb" fill-opacity="1"><g transform="translate(75.748555, 8.935512)"><g><path d="M 2.40625 0.078125 C 2.03125 0.078125 1.691406 0.03125 1.390625 -0.0625 C 1.097656 -0.15625 0.8125 -0.316406 0.53125 -0.546875 C 0.46875 -0.609375 0.414062 -0.675781 0.375 -0.75 C 0.34375 -0.832031 0.328125 -0.910156 0.328125 -0.984375 C 0.328125 -1.109375 0.367188 -1.21875 0.453125 -1.3125 C 0.546875 -1.40625 0.65625 -1.453125 0.78125 -1.453125 C 0.882812 -1.453125 0.976562 -1.414062 1.0625 -1.34375 C 1.257812 -1.175781 1.457031 -1.050781 1.65625 -0.96875 C 1.863281 -0.882812 2.113281 -0.84375 2.40625 -0.84375 C 2.601562 -0.84375 2.785156 -0.875 2.953125 -0.9375 C 3.117188 -1 3.253906 -1.082031 3.359375 -1.1875 C 3.460938 -1.289062 3.515625 -1.410156 3.515625 -1.546875 C 3.515625 -1.703125 3.460938 -1.835938 3.359375 -1.953125 C 3.265625 -2.066406 3.117188 -2.160156 2.921875 -2.234375 C 2.722656 -2.316406 2.472656 -2.378906 2.171875 -2.421875 C 1.878906 -2.460938 1.625 -2.523438 1.40625 -2.609375 C 1.1875 -2.703125 1.003906 -2.816406 0.859375 -2.953125 C 0.710938 -3.085938 0.597656 -3.242188 0.515625 -3.421875 C 0.441406 -3.609375 0.40625 -3.820312 0.40625 -4.0625 C 0.40625 -4.40625 0.492188 -4.695312 0.671875 -4.9375 C 0.859375 -5.1875 1.101562 -5.375 1.40625 -5.5 C 1.707031 -5.632812 2.046875 -5.703125 2.421875 -5.703125 C 2.765625 -5.703125 3.082031 -5.648438 3.375 -5.546875 C 3.675781 -5.441406 3.921875 -5.304688 4.109375 -5.140625 C 4.265625 -5.023438 4.34375 -4.882812 4.34375 -4.71875 C 4.34375 -4.601562 4.296875 -4.492188 4.203125 -4.390625 C 4.117188 -4.296875 4.015625 -4.25 3.890625 -4.25 C 3.804688 -4.25 3.734375 -4.273438 3.671875 -4.328125 C 3.585938 -4.398438 3.472656 -4.46875 3.328125 -4.53125 C 3.179688 -4.601562 3.023438 -4.660156 2.859375 -4.703125 C 2.703125 -4.753906 2.554688 -4.78125 2.421875 -4.78125 C 2.191406 -4.78125 1.992188 -4.75 1.828125 -4.6875 C 1.671875 -4.632812 1.550781 -4.554688 1.46875 -4.453125 C 1.394531 -4.347656 1.359375 -4.226562 1.359375 -4.09375 C 1.359375 -3.9375 1.40625 -3.804688 1.5 -3.703125 C 1.59375 -3.597656 1.726562 -3.515625 1.90625 -3.453125 C 2.082031 -3.390625 2.289062 -3.332031 2.53125 -3.28125 C 2.851562 -3.226562 3.132812 -3.160156 3.375 -3.078125 C 3.625 -2.992188 3.828125 -2.890625 3.984375 -2.765625 C 4.148438 -2.640625 4.269531 -2.484375 4.34375 -2.296875 C 4.425781 -2.109375 4.46875 -1.875 4.46875 -1.59375 C 4.46875 -1.25 4.367188 -0.953125 4.171875 -0.703125 C 3.984375 -0.453125 3.734375 -0.257812 3.421875 -0.125 C 3.109375 0.0078125 2.769531 0.078125 2.40625 0.078125 Z M 2.40625 0.078125 "/></g></g></g></g></g><g clip-path="url(#f17eb75a35)"><path fill="#5e17eb" d="M 10.882812 2.734375 C 9.351562 3.613281 8.140625 4.839844 7.296875 6.289062 C 6.453125 7.75 6 9.414062 6 11.183594 L 6 28.101562 C 6 29.859375 6.453125 31.523438 7.296875 32.984375 C 8.140625 34.433594 9.351562 35.660156 10.882812 36.550781 L 19.78125 41.695312 C 21.113281 42.46875 22.800781 42.015625 23.574219 40.683594 C 24.34375 39.355469 23.894531 37.667969 22.5625 36.894531 L 13.664062 31.75 L 13.652344 31.75 C 12.972656 31.359375 12.441406 30.835938 12.09375 30.230469 C 11.75 29.625 11.5625 28.898438 11.5625 28.101562 L 11.5625 11.183594 C 11.5625 10.386719 11.75 9.664062 12.09375 9.066406 L 12.09375 9.054688 C 12.441406 8.449219 12.972656 7.925781 13.664062 7.535156 C 14.339844 7.144531 15.054688 6.953125 15.765625 6.953125 C 16.480469 6.953125 17.203125 7.144531 17.871094 7.535156 L 34.160156 16.945312 L 34.171875 16.945312 L 50.472656 26.34375 C 51.148438 26.734375 51.671875 27.257812 52.03125 27.875 C 52.375 28.484375 52.5625 29.195312 52.5625 30.003906 C 52.5625 30.753906 52.398438 31.441406 52.101562 32.011719 C 52.078125 32.046875 52.054688 32.082031 52.042969 32.117188 C 51.683594 32.734375 51.148438 33.269531 50.484375 33.652344 C 49.152344 34.410156 48.703125 36.109375 49.464844 37.429688 C 50.222656 38.761719 51.921875 39.210938 53.242188 38.453125 C 54.785156 37.558594 56.011719 36.335938 56.839844 34.898438 C 56.878906 34.839844 56.914062 34.78125 56.9375 34.707031 C 57.722656 33.292969 58.136719 31.691406 58.136719 29.992188 C 58.136719 28.234375 57.683594 26.570312 56.839844 25.109375 L 56.839844 25.097656 C 56.011719 23.660156 54.785156 22.433594 53.242188 21.542969 L 36.964844 12.144531 L 20.648438 2.734375 C 19.105469 1.84375 17.441406 1.390625 15.765625 1.390625 C 14.101562 1.390625 12.441406 1.84375 10.882812 2.734375 Z M 10.882812 2.734375 " fill-opacity="1" fill-rule="evenodd"/></g><g clip-path="url(#097f1a6827)"><path fill="#e60f0f" d="M 6 44.6875 L 6 48.8125 C 6 50.570312 6.453125 52.234375 7.296875 53.695312 C 8.140625 55.15625 9.351562 56.378906 10.882812 57.261719 C 10.941406 57.296875 11.003906 57.332031 11.0625 57.355469 C 12.558594 58.1875 14.164062 58.601562 15.765625 58.601562 C 17.429688 58.601562 19.09375 58.152344 20.636719 57.261719 L 38.914062 46.722656 C 40.457031 45.828125 41.679688 44.605469 42.511719 43.167969 L 42.511719 43.15625 C 43.355469 41.695312 43.808594 40.03125 43.808594 38.273438 C 43.808594 36.515625 43.355469 34.851562 42.511719 33.390625 C 41.667969 31.941406 40.457031 30.714844 38.914062 29.824219 L 22.8125 20.535156 C 22.371094 20.285156 21.910156 20.164062 21.433594 20.164062 C 20.472656 20.164062 19.546875 20.664062 19.035156 21.554688 C 18.273438 22.886719 18.726562 24.574219 20.054688 25.335938 L 36.15625 34.625 C 36.832031 35.019531 37.367188 35.539062 37.710938 36.144531 C 38.058594 36.753906 38.246094 37.476562 38.246094 38.273438 C 38.246094 39.070312 38.058594 39.792969 37.710938 40.386719 C 37.355469 41.007812 36.820312 41.539062 36.15625 41.921875 L 17.882812 52.460938 C 17.203125 52.851562 16.492188 53.042969 15.765625 53.042969 C 15.089844 53.042969 14.414062 52.875 13.769531 52.53125 C 13.734375 52.507812 13.699219 52.484375 13.664062 52.460938 C 12.972656 52.054688 12.441406 51.53125 12.09375 50.9375 C 11.75 50.332031 11.5625 49.609375 11.5625 48.8125 L 11.5625 44.6875 C 11.5625 43.15625 10.3125 41.910156 8.78125 41.910156 C 7.246094 41.910156 6 43.144531 6 44.6875 Z M 6 44.6875 " fill-opacity="1" fill-rule="evenodd"/></g><g fill="#e60f0f" fill-opacity="1"><g transform="translate(70.853464, 35.714653)"><g><path d="M 10.0625 -5.671875 L 10.0625 0 L 5.578125 0 L 5.578125 -5.75 L -0.453125 -15.828125 L 4.265625 -15.828125 L 8.03125 -9.546875 L 11.78125 -15.828125 L 16.125 -15.828125 Z M 10.0625 -5.671875 "/></g></g></g><g fill="#e60f0f" fill-opacity="1"><g transform="translate(86.745199, 35.714653)"><g><path d="M 9.5625 0.3125 C 7.882812 0.3125 6.378906 -0.0390625 5.046875 -0.75 C 3.710938 -1.457031 2.664062 -2.4375 1.90625 -3.6875 C 1.144531 -4.9375 0.765625 -6.34375 0.765625 -7.90625 C 0.765625 -9.476562 1.144531 -10.890625 1.90625 -12.140625 C 2.664062 -13.390625 3.710938 -14.367188 5.046875 -15.078125 C 6.378906 -15.785156 7.882812 -16.140625 9.5625 -16.140625 C 11.238281 -16.140625 12.742188 -15.785156 14.078125 -15.078125 C 15.410156 -14.367188 16.457031 -13.390625 17.21875 -12.140625 C 17.976562 -10.890625 18.359375 -9.476562 18.359375 -7.90625 C 18.359375 -6.34375 17.976562 -4.9375 17.21875 -3.6875 C 16.457031 -2.4375 15.410156 -1.457031 14.078125 -0.75 C 12.742188 -0.0390625 11.238281 0.3125 9.5625 0.3125 Z M 9.5625 -3.390625 C 10.363281 -3.390625 11.085938 -3.578125 11.734375 -3.953125 C 12.378906 -4.328125 12.890625 -4.859375 13.265625 -5.546875 C 13.648438 -6.234375 13.84375 -7.019531 13.84375 -7.90625 C 13.84375 -8.800781 13.648438 -9.59375 13.265625 -10.28125 C 12.890625 -10.96875 12.378906 -11.5 11.734375 -11.875 C 11.085938 -12.25 10.363281 -12.4375 9.5625 -12.4375 C 8.757812 -12.4375 8.035156 -12.25 7.390625 -11.875 C 6.742188 -11.5 6.234375 -10.96875 5.859375 -10.28125 C 5.484375 -9.59375 5.296875 -8.800781 5.296875 -7.90625 C 5.296875 -7.019531 5.484375 -6.234375 5.859375 -5.546875 C 6.234375 -4.859375 6.742188 -4.328125 7.390625 -3.953125 C 8.035156 -3.578125 8.757812 -3.390625 9.5625 -3.390625 Z M 9.5625 -3.390625 "/></g></g></g><g fill="#e60f0f" fill-opacity="1"><g transform="translate(106.095566, 35.714653)"><g><path d="M 8.890625 0.3125 C 6.535156 0.3125 4.707031 -0.328125 3.40625 -1.609375 C 2.101562 -2.890625 1.453125 -4.703125 1.453125 -7.046875 L 1.453125 -15.828125 L 5.921875 -15.828125 L 5.921875 -7.1875 C 5.921875 -4.65625 6.925781 -3.390625 8.9375 -3.390625 C 10.925781 -3.390625 11.921875 -4.65625 11.921875 -7.1875 L 11.921875 -15.828125 L 16.328125 -15.828125 L 16.328125 -7.046875 C 16.328125 -4.703125 15.671875 -2.890625 14.359375 -1.609375 C 13.054688 -0.328125 11.234375 0.3125 8.890625 0.3125 Z M 8.890625 0.3125 "/></g></g></g><g fill="#5e17eb" fill-opacity="1"><g transform="translate(124.091743, 35.714653)"><g><path d="M 4.953125 -12.28125 L 0.09375 -12.28125 L 0.09375 -15.828125 L 14.265625 -15.828125 L 14.265625 -12.28125 L 9.421875 -12.28125 L 9.421875 0 L 4.953125 0 Z M 4.953125 -12.28125 "/></g></g></g><g fill="#5e17eb" fill-opacity="1"><g transform="translate(138.672362, 35.714653)"><g><path d="M 8.890625 0.3125 C 6.535156 0.3125 4.707031 -0.328125 3.40625 -1.609375 C 2.101562 -2.890625 1.453125 -4.703125 1.453125 -7.046875 L 1.453125 -15.828125 L 5.921875 -15.828125 L 5.921875 -7.1875 C 5.921875 -4.65625 6.925781 -3.390625 8.9375 -3.390625 C 10.925781 -3.390625 11.921875 -4.65625 11.921875 -7.1875 L 11.921875 -15.828125 L 16.328125 -15.828125 L 16.328125 -7.046875 C 16.328125 -4.703125 15.671875 -2.890625 14.359375 -1.609375 C 13.054688 -0.328125 11.234375 0.3125 8.890625 0.3125 Z M 8.890625 0.3125 "/></g></g></g><g fill="#5e17eb" fill-opacity="1"><g transform="translate(156.666399, 35.714653)"><g><path d="M 13.75 -8.25 C 14.65625 -7.9375 15.363281 -7.441406 15.875 -6.765625 C 16.382812 -6.097656 16.640625 -5.289062 16.640625 -4.34375 C 16.640625 -2.957031 16.082031 -1.882812 14.96875 -1.125 C 13.851562 -0.375 12.238281 0 10.125 0 L 1.578125 0 L 1.578125 -15.828125 L 9.671875 -15.828125 C 11.691406 -15.828125 13.226562 -15.453125 14.28125 -14.703125 C 15.34375 -13.960938 15.875 -12.957031 15.875 -11.6875 C 15.875 -10.9375 15.6875 -10.257812 15.3125 -9.65625 C 14.945312 -9.0625 14.425781 -8.59375 13.75 -8.25 Z M 6.015625 -12.59375 L 6.015625 -9.546875 L 9.09375 -9.546875 C 10.59375 -9.546875 11.34375 -10.054688 11.34375 -11.078125 C 11.34375 -12.085938 10.59375 -12.59375 9.09375 -12.59375 Z M 9.765625 -3.234375 C 11.335938 -3.234375 12.125 -3.769531 12.125 -4.84375 C 12.125 -5.90625 11.335938 -6.4375 9.765625 -6.4375 L 6.015625 -6.4375 L 6.015625 -3.234375 Z M 9.765625 -3.234375 "/></g></g></g><g fill="#5e17eb" fill-opacity="1"><g transform="translate(174.276143, 35.714653)"><g><path d="M 14.296875 -3.453125 L 14.296875 0 L 1.578125 0 L 1.578125 -15.828125 L 14 -15.828125 L 14 -12.375 L 6.015625 -12.375 L 6.015625 -9.703125 L 13.046875 -9.703125 L 13.046875 -6.359375 L 6.015625 -6.359375 L 6.015625 -3.453125 Z M 14.296875 -3.453125 "/></g></g></g></svg>